M48
;Layer_Color=9474304
;FILE_FORMAT=4:4
METRIC,LZ
;TYPE=PLATED
T01F00S00C0.2000
T02F00S00C0.3000
T03F00S00C0.3300
T04F00S00C0.4000
T05F00S00C0.5000
T07F00S00C0.6500
T08F00S00C0.8000
T09F00S00C0.9000
T10F00S00C0.9652
T11F00S00C1.0000
T12F00S00C1.0200
T13F00S00C1.1000
T14F00S00C1.2000
T15F00S00C1.6000
T16F00S00C1.7000
T17F00S00C1.8000
T18F00S00C2.7000
T19F00S00C3.2500
;TYPE=NON_PLATED
T20F00S00C1.7500
T21F00S00C3.0000
T22F00S00C3.2500
%
T01
X01581Y0005975
X016155Y00037
X0163925Y0004625
X0167025Y0005975
X001465Y00168
X00983Y003185
X010095Y00329
X01004Y0034875
Y0035875
X0103475Y0034225
X01031Y0038775
X010755Y00396
X0108825Y00368
X0110125Y0036775
X010755Y00447
X01005Y004485
Y0045875
X00993Y004465
X010105Y00429
X00984Y004185
X0113575Y00182
X01139Y0015775
X0137975Y00442
X0138175Y00422766
X01448811Y003705
X01545Y003785
X0154375Y00411
X01551Y00416358
X0155175Y0043225
X01562Y0042375
X0155975Y0044425
X01607Y00449
X0162675Y0045675
X015355Y0040625
X0147925Y00452
X015085Y00299
X01502Y0026625
X01476001Y00253751
X01413001Y00211501
X01412001Y00171751
X01387001
X01388001Y00296251
X015615Y00299
X0157Y0023375
X015615Y00197
X0165675Y0018225
X01725Y00199
X01725Y00211
X01725Y00245
X01725Y00165
X01774835Y0017225
Y00179
X01666Y0009875
X016145Y0009225
X0162075Y0007925
X016145Y0007275
X016325
X01647Y0031675
X018125Y00321
Y00309
X018125Y00296
X01836Y002885
X0184725Y0033425
X01836Y003535
X018125Y00361
Y00374
X018125Y00386
X018125Y00416
X018125Y00441
X0184725Y0045425
Y0039925
X01836Y004085
X0177775Y0045975
X01789Y00228
X018025Y0019475
X018315Y00185
X0186675Y00172
X0191525Y001115
X0195675Y001135
X0192275Y00065
X01924Y00247
Y0028425
X0211125Y00364865
Y00371135
Y00401865
Y00408135
Y00440865
Y00447135
X02114873Y0018
X02121143
X02178343Y00225
X02184613
X02123Y0065
X02075093Y00677
Y00688
X02075593Y00699
Y0071
Y00732
Y00743
Y00754
X02123Y00804
X019715Y0078475
X01965
X0197825Y007675
X019395Y00761
Y00775
Y00747
Y00733
Y00719
Y00705
Y00691
Y00677
X0197825Y006565
X020255Y0065208
X019445Y00621744
X0193975Y0060975
X0184725Y0057225
X01836Y00573
X018125Y00559
Y00547
Y00535
Y00514
Y005
X01836Y005215
X01836Y00527
X0184725Y0048885
Y0047615
X018195Y007155
X0182175Y007255
X01815
X01814Y0078575
Y0081925
X01779Y007825
X017741Y0079535
X0176025Y00808
X0174675Y0078875
X0173625Y0079525
X0173725Y007745
X0170905Y0076995
X01701Y0076275
X0163575Y0076325
X01623Y0076625
X01607
X0159925Y007975
X0156075Y00783
X01553Y0077125
X01537
X01525Y0078225
X01523475Y0081432
X0152425Y0082843
X01553Y0082275
X0156075Y008145
X01495Y0081375
X01464
X0145375Y00791
Y00777
X01495Y0076825
X0147275Y00718
Y00702
Y00653
Y00637
X0147175Y00603
Y00587
X0145675Y0061775
X0151025Y0061625
X015165Y00625
X01522Y006325
X0152225Y0061175
X0152475Y005725
X015345Y0057375
X0153625Y0055375
X015265Y005575
X015275Y0054525
X015175Y0053875
X0151425Y005675
Y005775
X0148675Y00525
X0144075Y0053425
X014545Y00555
X01422007Y00576243
X013935Y0055
X0144875Y00667
X015615Y006725
X0156825Y00665
X015795Y0063175
Y006205
Y006125
X015905
X0160575Y0064375
X01615Y006555
X01635Y00657
X0164325Y0064975
X0166075Y006575
X0166575Y006625
X0167075Y006575
X0167575Y006625
X0168075Y006575
X0169675Y006625
X0169575Y006875
X016995Y006955
X0173525Y00707
Y00723
X01755Y00731881
X017675Y006636
X0173525Y00658
Y00642
X01752Y00632
X0173525Y00608
Y00592
X01738047Y005805
X01740168Y0057025
X0175Y0054425
X0176075Y005445
X017355Y0053025
X0171375Y00483
X01698Y0049775
X01682
X016625Y004875
X0165425Y004705
Y00464484
X01633Y0049775
X01617
X015975Y0048025
X01578Y0048275
X01562
X015925Y00534
X015915Y0054025
X0165675Y0053775
X0167175Y0057
X0168825Y0059075
X016815Y0061
X016805Y0061975
X01613Y0068075
X01618Y006875
X016185Y0071975
X016075Y00717
X0160475Y0070975
X015625Y0072275
X015375Y0072375
X01648Y0081395
X01662Y0081395
X01676Y0081395
X0132625Y00804
Y0079
Y00775
X0132625Y00747
X0132625Y00719
X0129Y0068875
X01276
X01262
X0125125Y00683
X01208Y0067875
X011945Y00679
X01181Y0067875
X01173Y00727
X0117325Y00741
X011735Y00755
X0117425Y0077975
X011735Y00805
X0116175Y0081125
X01145037Y00798463
X011275Y0081125
X0114675Y00828
Y00844
X01176Y0082675
X01202Y00817
X0123275Y0081825
X012425Y00817677
X012525Y00816
X012315Y0080825
X01235Y0085225
X01249
X01263
X01221
X01289Y0083475
X0132625Y00831
X0129175Y0076775
X01224Y007225
X0119675Y0071925
X01144963Y00761037
X01089657Y00762865
Y00769135
X01089657Y00790992
Y00797008
X01097Y0062225
X01111Y0061725
X0111525Y0061175
X01146Y00603
X012265Y00554
X01032Y0048775
X00872Y0070875
Y0071875
X008655Y0071375
X006655Y0083875
X0064975Y00834758
X0064975Y008535
X00497Y0085675
X0049175Y0085125
X0021075Y008207
X0019475Y0082075
Y008013
X0021075Y0080125
X001915Y00501
X00154
Y00479
X0013Y0046675
X001475Y00518
X0018315Y00555
Y00569
Y00583
Y00597
Y0061
Y00624
Y00638
Y00652
X0017975Y00673492
Y00679508
X00178Y0068725
X0014525Y00697
X0014625Y00725
X00161Y0073325
X0011217Y0071
X0010725Y0068525
X0011925Y006795
Y00673484
X00161Y0065725
X00078201Y0073425
X00072185
X000285Y00738
X001071Y0093
X004565Y00928604
X0043275Y00895004
X00607996Y00872004
X0062Y00863254
X00632004Y00872004
X00632004Y00958
X0062Y0096675
X00607996Y00958
X01883Y0092125
T02
X0059625Y00044
X006385Y0004425
X0063875Y00056
X006455Y000625
Y00035
X007395Y0004
X0080675Y0003525
X008165
X008295
X0084725Y0003525
X00833Y00057
X00813
X0089125Y00044
X00548Y0003525
X005345Y0003525
X005215
X0051175
X00518Y00057
X00538
X00444Y0004
Y00068
Y00125
Y00153
Y0021
Y00238
Y00295
Y00323
Y0038
Y00408
X00416Y00444
X0049125
X0051175Y0046025
X005215
X005345
X00541Y004535
X0055925Y00444
X00538Y00417
Y00397
X00518
Y00417
X005215Y0037525
X0051175
X005345
X00541Y003685
X0055925Y00359
X00538Y00332
X00518
Y00312
X00538
X005345Y0029025
X005215
X0051175
X00541Y002835
X0055925Y00274
X00538Y00247
X00518
Y00227
X00538
X005345Y0020525
X005215
X0051175
X00541Y001985
X0055925Y00189
X00538Y00162
X00518
Y00142
X00538
X005345Y0012025
X005215
X0051175
X00541Y001135
X0055925Y00104
X00538Y00077
X00518
X0049125Y00104
X00416
Y00189
X0049125
Y00274
X00416
Y00359
X0049125
X00609Y00359
X0059625Y00384
X00596Y0041025
X00609Y00444
X006455Y0046
Y004025
X0063875Y00396
X006385Y0038425
X006455Y00375
Y003175
X0063875Y00311
X006385Y0029925
X006455Y0029
X00609Y00274
X0059625Y00299
X00596Y0032525
Y0024025
X0059625Y00214
X00609Y00189
X00596Y0015525
X0059625Y00129
X00609Y00104
X00596Y0007025
X006455Y0012
X006385Y0012925
X0063875Y00141
X006455Y001475
Y00205
X006385Y0021425
X0063875Y00226
X006455Y002325
X00739Y00238
X007395Y0021
X00711Y00189
X00739Y00153
X007395Y00125
X00711Y00104
X00739Y00068
X00813Y00077
X00833
X00836Y001135
X008295Y0012025
X008165
X0080675
X00813Y00142
Y00162
X00833
Y00142
X0085425Y00104
X00904
X0089125Y00129
X00891Y0015525
X00904Y00189
X0089125Y00214
X00891Y0024025
X00904Y00274
X0089125Y00299
X00891Y0032525
X00904Y00359
X00934Y00363595
Y00354
Y00344665
Y00336
Y00374484
X00934266Y00386
Y0039651
Y00407019
X00935Y00436
Y00444665
Y00454
X00904Y00444
X00891Y0041025
X0089125Y00384
X0085425Y00359
X00836Y003685
X008295Y0037525
X008165
X0080675
X00813Y00397
Y00417
X00833
Y00397
X00836Y004535
X008295Y0046025
X008165
X0080675
X0078625Y00444
X0085425Y00444
X00833Y00332
X00813
Y00312
X00833
X008295Y0029025
X008165
X0080675
X00836Y002835
X0085425Y00274
X00833Y00247
X00813
Y00227
X00833
X008295Y0020525
X008165
X0080675
X00836Y001985
X0085425Y00189
X0078625Y00189
Y00104
X00891Y0007025
X0078625Y00274
X007395Y00295
X00739Y00323
X007395Y0038
X00739Y00408
X00711Y00444
Y00359
X0078625
X00711Y00274
X0110025Y0015775
X01282Y003605
X01305
X01328
X01351
X01374
X01397
X01676Y00774482
X0137Y004985
X0134
X0131
X00935266Y0049651
Y00486
X00935Y00474484
Y00463595
X00935266Y00507019
X00904Y00529
X0089125Y00554
X00891Y0058025
X00904Y00614
X0089125Y00639
X00891Y0066525
X00904Y00699
X0085425
X00833Y00672
X00813
Y00652
X00833
X008295Y0063025
X008165
X0080675
X00836Y006235
X0085425Y00614
X00833Y00587
X00813
Y00567
X00833
X008295Y0054525
X008165
X0080675
X00836Y005385
X0085425Y00529
X00833Y00502
X00813
Y00482
X00833
X00891Y0049525
X0089125Y00469
X00739Y00465
Y00493
Y0055
Y00578
Y00635
Y00663
X00711Y00699
X0078625
Y00614
X00711
X006455Y0063
X006385Y0063925
X0063875Y00651
X006455Y006575
X00596Y0066525
X0059625Y00639
X00609Y00614
X00596Y0058025
X0059625Y00554
X00609Y00529
X00596Y0049525
X0059625Y00469
X006385Y0046925
X0063875Y00481
X006455Y004875
Y00545
X006385Y0055425
X0063875Y00566
X006455Y005725
X00711Y00529
X0078625
X00609Y00699
X0055925
X00538Y00672
X00518
Y00652
X00538
X005345Y0062975
X00541Y006235
X005215Y0063025
X0051175
X0049125Y00614
X00518Y00587
Y00567
X00538
Y00587
X005345Y0054525
X005215
X0051175
X00541Y005385
X0055925Y00529
X00538Y00502
X00518
Y00482
X00538
X0049125Y00529
X00444Y0055
Y00578
Y00635
Y00663
X00416Y00699
X0049125
X0055925Y00614
X00416Y00614
Y00529
X00444Y00493
Y00465
X0040325Y00899129
X00383Y00899004
X0036325Y00899129
X0034325
T03
X0189Y00038
X01897
Y00045
X01904
Y00052
X01897
X0189
Y00045
X01904Y00038
X01374001Y00189001
Y00196001
Y00203001
X01367001
Y00196001
Y00189001
X01360001
X01353001
X01346001
Y00196001
X01353001
Y00203001
X01360001
Y00196001
X01346001Y00203001
Y00249001
Y00256001
X01353001
X01360001
Y00249001
X01353001
Y00263001
X01360001
X01367001
Y00256001
Y00249001
X01374001
Y00256001
Y00263001
X01346001
X01355001Y00309001
X01362001
X01369001
X01376001
X0126Y00254
X01253
Y00247
Y0024
X0126
Y00247
X01246
Y00254
Y0024
X01409751Y00249001
Y00256001
Y00263001
X01411001Y00309001
X01404001
X01397001
X01390001
X01383001
X01418001
X01425001
X01432001
X01439001
X01446001
X01453001
X01460001
X01467001
X01843Y00234
X0185
Y00227
Y0022
X01857
Y00227
Y00234
X01843Y00227
Y0022
X01843Y00206
Y00199
Y00192
X0185
X01857
Y00199
Y00206
X0185
Y00199
X01255999Y00773999
X01250001Y00779999
X01256001Y00785999
X01244Y00786
Y00774
X02007Y00928
Y00935
Y00942
X02014
X02021
Y00935
Y00928
X02014
Y00935
X0215075
Y00928
X0215775
X0216475
Y00935
Y00942
X0215775
X0215075
X0215775Y00935
T04
X00039301Y007072
X00048301
X00057301
X00066301
X00075301
X00084301
X00093301
X00088801Y00715
X00097801
X00079801
X00070801
X00061801
X00052801
X00043801
T05
X0218Y00045
X02166
X02152
X02138
X02124
X0211
X02096
X02082
X02068
X02054
X0204
X02026
X02027Y00065
X02041
X02055
X02069
X02083
X02097
X02111
X02125
X02139
X02153
X02167
X02166Y00085
X02152
X02138
X02124
X0211
X02096
X02082
X02068
X02054
X0204
X02026
X02027Y00105
X02041
X02055
X02069
X02083
X02097
X02111
X02125
X02139
X02153
X02167
X02166Y00125
X02152
X02138
X02124
X0211
X02096
X02082
X02068
X02054
X0204
X02026
X02027Y00145
X02041
X02055
X02069
X02083
X02097
X02111
X02125
X02139
X02153
X02167
X02181
X0218Y00125
X02181Y00105
X0218Y00085
X02181Y00065
T07
X00045Y0020395
Y0021995
Y0023595
Y0025195
Y0026795
Y0028395
Y0029995
Y0031595
Y0033195
Y0034795
Y0036395
Y0037995
Y0039595
Y0041195
Y0042795
Y0044395
Y0045995
X000565Y0045195
Y0043595
Y0041995
X000685Y0041595
Y0043195
Y0044795
X0008Y0045595
Y0043995
Y0042395
Y0040795
Y0039195
Y0037595
Y0035995
Y0034395
Y0032795
Y0031195
Y0029595
Y0027995
Y0026395
Y0024795
Y0023195
Y0021595
Y0019995
X000685Y0020795
Y0022395
Y0023995
X000565Y0024395
Y0022795
Y0021195
Y0019595
Y0025995
X000685Y0025595
Y0027195
Y0028795
Y0030395
Y0031995
Y0033595
Y0035195
Y0036795
Y0038395
Y0039995
X000565Y0040395
Y0038795
Y0037195
Y0035595
Y0033995
Y0032395
Y0030795
Y0029195
Y0027595
X000685Y0046395
T08
X000189Y005673
Y005927
X000443
Y005673
X000697
Y005927
X000951
Y005673
Y006223
X000697
X000443
X000189
Y006477
X000443
X000697
X000951
T09
X001355Y0077285
Y0079825
Y0082365
Y0084905
X001609Y0083635
Y0081095
Y0078555
Y0086175
Y0088715
X001355Y0087445
T10
X01847Y00802
X018724
T11
X01992301Y00247204
X02017701
Y00272604
X01992301
Y00298004
X02017701
Y00323404
X01992301
Y00348804
Y00374204
X02017701
Y00399604
X01992301
Y00425004
X02017701
Y00450404
X01992301
X02017701Y00348804
Y00475804
Y00501204
X01992301
Y00526604
X02017701
Y00552004
X01992301
Y00577404
X02017701
Y00602804
X01992301
Y00475804
X019232Y00772
X018978
X018724
X01847
X01771596Y00957
X01746197
X01720798
X01695399
X0167
X01644601
X016192
X015938
X015684
X01543
T12
X000262Y00762
X000465
Y00898
X000262
T13
X0118Y00045939
Y00071339
Y00096739
Y00122139
Y00427061
Y00452461
Y00477861
Y00503261
Y00528661
Y00554061
T14
X000575Y0016825
X000575Y0049175
T15
X001025Y0075155
Y0090845
T16
X0204997Y00818847
X0210597Y00851847
X0204997Y00884847
T17
X02020409Y00830847
X02075409Y00830847
Y00872847
X02020409
T18
X0005056Y00055118
Y00944118
T19
X00072Y0077285
T20
X000312Y001205
Y005395
T21
X02148409Y00851847
T22
X00072Y0088715
M30
