G04*
G04 #@! TF.GenerationSoftware,Altium Limited,Altium Designer,24.7.2 (38)*
G04*
G04 Layer_Color=8421504*
%FSLAX25Y25*%
%MOIN*%
G70*
G04*
G04 #@! TF.SameCoordinates,7466D0F8-E9CD-42B0-AAD5-FE8217CC6D43*
G04*
G04*
G04 #@! TF.FilePolarity,Positive*
G04*
G01*
G75*
%ADD23R,0.03543X0.03937*%
%ADD24R,0.01378X0.05315*%
%ADD25R,0.03937X0.03543*%
%ADD26R,0.03937X0.03740*%
%ADD27R,0.03740X0.03937*%
%ADD28R,0.07087X0.04921*%
%ADD29R,0.03937X0.05906*%
%ADD30R,0.04134X0.05512*%
%ADD31R,0.03740X0.03937*%
%ADD32R,0.03622X0.04252*%
%ADD33R,0.01575X0.03740*%
%ADD34R,0.03543X0.01575*%
%ADD35R,0.03937X0.03740*%
%ADD36R,0.07284X0.02362*%
%ADD37R,0.04252X0.03622*%
%ADD38R,0.07874X0.13780*%
%ADD39R,0.04134X0.02362*%
%ADD40R,0.03740X0.05512*%
%ADD41R,0.07087X0.04528*%
%ADD42R,0.04134X0.02559*%
%ADD43R,0.07874X0.04724*%
%ADD44R,0.03937X0.03937*%
%ADD45R,0.12500X0.12500*%
%ADD46R,0.05512X0.04134*%
%ADD47R,0.09055X0.08465*%
%ADD48R,0.05906X0.03150*%
%ADD49R,0.06693X0.05512*%
%ADD50R,0.04528X0.05906*%
%ADD51R,0.05906X0.04528*%
%ADD52R,0.09449X0.02913*%
%ADD53R,0.02717X0.01102*%
%ADD54R,0.03150X0.02362*%
%ADD55R,0.03150X0.03150*%
%ADD56R,0.02362X0.06102*%
%ADD57R,0.03600X0.03600*%
%ADD58R,0.03600X0.05000*%
%ADD59R,0.09646X0.09252*%
%ADD60R,0.03543X0.01968*%
%ADD61R,0.06299X0.02362*%
%ADD62R,0.13386X0.07284*%
%ADD63O,0.01378X0.04134*%
%ADD64O,0.04134X0.01378*%
%ADD65R,0.13189X0.13189*%
%ADD66R,0.03937X0.03937*%
%ADD67R,0.05906X0.01772*%
%ADD68R,0.04921X0.07087*%
%ADD69R,0.03937X0.03347*%
%ADD70R,0.03740X0.03740*%
%ADD71R,0.08465X0.04331*%
%ADD72R,0.05512X0.04528*%
%ADD73R,0.03150X0.03150*%
%ADD74R,0.03740X0.03740*%
%ADD75R,0.05315X0.01378*%
%ADD76R,0.06102X0.02362*%
%ADD77R,0.04331X0.02362*%
%ADD78R,0.09843X0.09843*%
%ADD79R,0.01102X0.02717*%
%ADD80R,0.05709X0.01772*%
%ADD81R,0.03937X0.02362*%
%ADD82O,0.10827X0.01181*%
%ADD83O,0.01181X0.03347*%
%ADD84R,0.02953X0.05512*%
D23*
X773622Y272047D02*
D03*
X767323D02*
D03*
X773622Y294094D02*
D03*
X767323D02*
D03*
X816929Y201575D02*
D03*
X816929Y207087D02*
D03*
Y231890D02*
D03*
Y237402D02*
D03*
X39370Y269685D02*
D03*
X33071D02*
D03*
X20472Y290551D02*
D03*
X14173D02*
D03*
X471260Y316929D02*
D03*
X464961D02*
D03*
X623622Y79921D02*
D03*
X629921D02*
D03*
X47638Y274410D02*
D03*
X53937D02*
D03*
X87795Y279528D02*
D03*
X81496D02*
D03*
X464961Y297244D02*
D03*
X471260D02*
D03*
Y291732D02*
D03*
X464961D02*
D03*
X55905Y377165D02*
D03*
X62205D02*
D03*
X250000Y323623D02*
D03*
X243701D02*
D03*
X810630Y201575D02*
D03*
X810630Y207087D02*
D03*
X433268Y315354D02*
D03*
X439567D02*
D03*
X433268Y309842D02*
D03*
X439567D02*
D03*
X433268Y304331D02*
D03*
X439567D02*
D03*
X433268Y298819D02*
D03*
X439567D02*
D03*
X464961Y310236D02*
D03*
X471260D02*
D03*
X464961Y303937D02*
D03*
X471260D02*
D03*
X76378Y274016D02*
D03*
X70079D02*
D03*
Y279528D02*
D03*
X76378D02*
D03*
X710630Y225590D02*
D03*
X704331D02*
D03*
X600394Y311417D02*
D03*
X606693D02*
D03*
X716535Y173622D02*
D03*
X722835D02*
D03*
X704331D02*
D03*
X710630D02*
D03*
X438878Y62106D02*
D03*
X445177D02*
D03*
X421161D02*
D03*
X427461D02*
D03*
X542520Y220472D02*
D03*
X536221D02*
D03*
X816929Y172047D02*
D03*
Y177559D02*
D03*
X810630Y172047D02*
D03*
Y177559D02*
D03*
Y142126D02*
D03*
Y147638D02*
D03*
Y231890D02*
D03*
Y237402D02*
D03*
X518898Y288583D02*
D03*
X512598D02*
D03*
X704375Y121653D02*
D03*
X710674D02*
D03*
X704331Y151969D02*
D03*
X710630D02*
D03*
X704331Y147244D02*
D03*
X710630D02*
D03*
X766929Y25591D02*
D03*
X760630D02*
D03*
X423425Y189170D02*
D03*
X417126D02*
D03*
Y150000D02*
D03*
X423425D02*
D03*
Y179134D02*
D03*
X417126D02*
D03*
X423425Y184252D02*
D03*
X417126D02*
D03*
Y144882D02*
D03*
X423425D02*
D03*
X417126Y139764D02*
D03*
X423425D02*
D03*
X177953Y26772D02*
D03*
X184252D02*
D03*
X294094Y127165D02*
D03*
X300394D02*
D03*
X177953Y160630D02*
D03*
X184252D02*
D03*
X300394D02*
D03*
X294094D02*
D03*
X184252Y194095D02*
D03*
X177953D02*
D03*
X300394D02*
D03*
X294094D02*
D03*
X184252Y227559D02*
D03*
X177953D02*
D03*
X300394D02*
D03*
X294094D02*
D03*
X184252Y261024D02*
D03*
X177953D02*
D03*
X300394D02*
D03*
X294094D02*
D03*
X690158Y270472D02*
D03*
X683858D02*
D03*
X63779Y197244D02*
D03*
X70079D02*
D03*
X512598Y327165D02*
D03*
X518898D02*
D03*
X63779Y188583D02*
D03*
X70079D02*
D03*
X722835Y151969D02*
D03*
X716535D02*
D03*
X722835Y121653D02*
D03*
X716535D02*
D03*
X594882Y305906D02*
D03*
X588583D02*
D03*
X722835Y215354D02*
D03*
X716535D02*
D03*
X722835Y147244D02*
D03*
X716535D02*
D03*
X722835Y126378D02*
D03*
X716535D02*
D03*
X722835Y196850D02*
D03*
X716535D02*
D03*
X722835Y220079D02*
D03*
X716535D02*
D03*
X41732Y378346D02*
D03*
X35433D02*
D03*
X37402Y28740D02*
D03*
X43701D02*
D03*
X56299Y224016D02*
D03*
X50000D02*
D03*
X56299Y218504D02*
D03*
X50000D02*
D03*
Y229528D02*
D03*
X56299D02*
D03*
Y235039D02*
D03*
X50000D02*
D03*
X56299Y240158D02*
D03*
X50000D02*
D03*
X56299Y245669D02*
D03*
X50000D02*
D03*
X56299Y251181D02*
D03*
X50000D02*
D03*
X56299Y256693D02*
D03*
X50000D02*
D03*
X711417Y67716D02*
D03*
X717717D02*
D03*
Y72835D02*
D03*
X711417D02*
D03*
X512598Y311024D02*
D03*
X518898D02*
D03*
X512598Y322047D02*
D03*
X518898D02*
D03*
X512598Y316535D02*
D03*
X518898D02*
D03*
X512598Y283071D02*
D03*
X518898D02*
D03*
X512598Y294094D02*
D03*
X518898D02*
D03*
X512598Y299606D02*
D03*
X518898D02*
D03*
X573622Y262598D02*
D03*
X579921D02*
D03*
X816929Y192520D02*
D03*
X810630D02*
D03*
X816929Y187008D02*
D03*
X810630D02*
D03*
X767323Y305118D02*
D03*
X773622D02*
D03*
X767323Y266535D02*
D03*
X773622D02*
D03*
X767323Y299606D02*
D03*
X773622D02*
D03*
X767323Y277559D02*
D03*
X773622D02*
D03*
X767323Y288583D02*
D03*
X773622D02*
D03*
X184252Y127165D02*
D03*
X177953D02*
D03*
X300394Y93701D02*
D03*
X294094D02*
D03*
X184252D02*
D03*
X177953D02*
D03*
X294094Y60236D02*
D03*
X300394D02*
D03*
X184252D02*
D03*
X177953D02*
D03*
X300394Y26772D02*
D03*
X294094D02*
D03*
X683858Y264961D02*
D03*
X690158D02*
D03*
X48031Y66142D02*
D03*
X54331D02*
D03*
X816929Y142126D02*
D03*
X710630Y126378D02*
D03*
X704331D02*
D03*
Y215354D02*
D03*
X710630D02*
D03*
X704331Y220079D02*
D03*
X710630D02*
D03*
Y196850D02*
D03*
X704331D02*
D03*
X810630Y216929D02*
D03*
X816929D02*
D03*
X810630Y222441D02*
D03*
X816929D02*
D03*
X810630Y129921D02*
D03*
X816929D02*
D03*
X810630Y135039D02*
D03*
X816929D02*
D03*
Y147638D02*
D03*
X810630Y157087D02*
D03*
X816929D02*
D03*
X810630Y162205D02*
D03*
X816929D02*
D03*
D24*
X656496Y206201D02*
D03*
X658465D02*
D03*
X666339D02*
D03*
X664370D02*
D03*
X662402D02*
D03*
X660433D02*
D03*
X654528D02*
D03*
X652559D02*
D03*
X650591D02*
D03*
X648622D02*
D03*
X646654D02*
D03*
X644685D02*
D03*
X642717D02*
D03*
X640748D02*
D03*
X638779D02*
D03*
X636811D02*
D03*
X634842D02*
D03*
X632874D02*
D03*
X630905D02*
D03*
X628937D02*
D03*
X626968D02*
D03*
X625000D02*
D03*
X623032D02*
D03*
X621063D02*
D03*
X619095D02*
D03*
X617126D02*
D03*
X615158D02*
D03*
X613189D02*
D03*
X611221D02*
D03*
X609252D02*
D03*
X607283D02*
D03*
X605315D02*
D03*
X603346D02*
D03*
X601378D02*
D03*
X597441D02*
D03*
X599409Y289862D02*
D03*
X601378D02*
D03*
X603346D02*
D03*
X605315D02*
D03*
X607283D02*
D03*
X609252D02*
D03*
X611221D02*
D03*
X613189D02*
D03*
X617126D02*
D03*
X619095D02*
D03*
X621063D02*
D03*
X623032D02*
D03*
X625000D02*
D03*
X626968D02*
D03*
X628937D02*
D03*
X630905D02*
D03*
X632874D02*
D03*
X634842D02*
D03*
X636811D02*
D03*
X638779D02*
D03*
X640748D02*
D03*
X642717D02*
D03*
X644685D02*
D03*
X646654D02*
D03*
X648622D02*
D03*
X650591D02*
D03*
X652559D02*
D03*
X654528D02*
D03*
X656496D02*
D03*
X658465D02*
D03*
X660433D02*
D03*
X662402D02*
D03*
X664370D02*
D03*
X666339D02*
D03*
X615158D02*
D03*
X597441D02*
D03*
X599409Y206201D02*
D03*
D25*
X637008Y114961D02*
D03*
Y121260D02*
D03*
X502756Y332283D02*
D03*
Y325984D02*
D03*
X497244D02*
D03*
Y332283D02*
D03*
X491732D02*
D03*
Y325984D02*
D03*
X165354Y340946D02*
D03*
Y347246D02*
D03*
Y358663D02*
D03*
Y352364D02*
D03*
X170866Y364962D02*
D03*
Y358663D02*
D03*
X768898Y225984D02*
D03*
Y219685D02*
D03*
Y132283D02*
D03*
Y125984D02*
D03*
Y157874D02*
D03*
Y151575D02*
D03*
X513779Y152362D02*
D03*
Y146063D02*
D03*
X531890D02*
D03*
Y152362D02*
D03*
X522835D02*
D03*
Y146063D02*
D03*
X504724D02*
D03*
Y152362D02*
D03*
X540945D02*
D03*
Y146063D02*
D03*
X527559Y192126D02*
D03*
Y185827D02*
D03*
X539370D02*
D03*
Y192126D02*
D03*
X515748Y180315D02*
D03*
Y174016D02*
D03*
Y192126D02*
D03*
Y185827D02*
D03*
X527559Y180315D02*
D03*
Y174016D02*
D03*
X539370D02*
D03*
Y180315D02*
D03*
X690945Y284646D02*
D03*
Y278346D02*
D03*
X669685Y318110D02*
D03*
Y311811D02*
D03*
X178347Y22047D02*
D03*
Y15748D02*
D03*
Y49213D02*
D03*
Y55512D02*
D03*
X294488D02*
D03*
Y49213D02*
D03*
X178347Y88976D02*
D03*
Y82677D02*
D03*
X189370Y68110D02*
D03*
Y74410D02*
D03*
X294488Y88976D02*
D03*
Y82677D02*
D03*
X178347Y122441D02*
D03*
Y116142D02*
D03*
X294488Y122441D02*
D03*
Y116142D02*
D03*
X178347Y155905D02*
D03*
Y149606D02*
D03*
X294488D02*
D03*
Y155905D02*
D03*
X178347Y183071D02*
D03*
Y189370D02*
D03*
X294488Y183071D02*
D03*
Y189370D02*
D03*
X178347Y216535D02*
D03*
Y222835D02*
D03*
X294488Y216535D02*
D03*
Y222835D02*
D03*
X178347Y250000D02*
D03*
Y256299D02*
D03*
X294488Y250000D02*
D03*
Y256299D02*
D03*
X189370Y34646D02*
D03*
Y40945D02*
D03*
X761024Y122047D02*
D03*
Y115748D02*
D03*
Y179291D02*
D03*
Y172992D02*
D03*
X761024Y147638D02*
D03*
Y141339D02*
D03*
X761024Y215748D02*
D03*
Y209449D02*
D03*
X475591Y270866D02*
D03*
Y277165D02*
D03*
X597244Y177953D02*
D03*
Y184252D02*
D03*
X602362Y177953D02*
D03*
Y184252D02*
D03*
X592126Y177953D02*
D03*
Y184252D02*
D03*
X587008Y177953D02*
D03*
Y184252D02*
D03*
X470276Y277264D02*
D03*
Y270965D02*
D03*
X464961Y270866D02*
D03*
Y277165D02*
D03*
X305512Y208268D02*
D03*
Y201969D02*
D03*
Y241732D02*
D03*
Y235433D02*
D03*
X183858Y168504D02*
D03*
Y174803D02*
D03*
X189370Y168504D02*
D03*
Y174803D02*
D03*
X183858Y208268D02*
D03*
Y201969D02*
D03*
X189370Y208268D02*
D03*
Y201969D02*
D03*
X300000Y174803D02*
D03*
Y168504D02*
D03*
Y208268D02*
D03*
Y201969D02*
D03*
X189370Y241732D02*
D03*
Y235433D02*
D03*
X300000Y241732D02*
D03*
Y235433D02*
D03*
X189370Y275197D02*
D03*
Y268898D02*
D03*
X300000Y275197D02*
D03*
Y268898D02*
D03*
X183858Y241732D02*
D03*
Y235433D02*
D03*
Y275197D02*
D03*
Y268898D02*
D03*
X305512Y275197D02*
D03*
Y268898D02*
D03*
Y174803D02*
D03*
Y168504D02*
D03*
X555906Y70867D02*
D03*
Y77166D02*
D03*
X294488Y22047D02*
D03*
Y15748D02*
D03*
X183858Y34646D02*
D03*
Y40945D02*
D03*
X546457Y113386D02*
D03*
Y107087D02*
D03*
X552362Y113386D02*
D03*
Y107087D02*
D03*
X189370Y101575D02*
D03*
Y107874D02*
D03*
X183858Y101575D02*
D03*
Y107874D02*
D03*
X305512Y40945D02*
D03*
Y34646D02*
D03*
X300000Y40945D02*
D03*
Y34646D02*
D03*
X183858Y74410D02*
D03*
Y68110D02*
D03*
X189370Y135039D02*
D03*
Y141339D02*
D03*
X183858Y135039D02*
D03*
Y141339D02*
D03*
X305512Y101575D02*
D03*
Y107874D02*
D03*
X300000Y101575D02*
D03*
Y107874D02*
D03*
X305512Y135039D02*
D03*
Y141339D02*
D03*
X300000Y135039D02*
D03*
Y141339D02*
D03*
Y68110D02*
D03*
Y74410D02*
D03*
X305512Y68110D02*
D03*
Y74410D02*
D03*
D26*
X642913Y114961D02*
D03*
Y121260D02*
D03*
X648425D02*
D03*
Y114961D02*
D03*
X486221Y325984D02*
D03*
Y332283D02*
D03*
X455512Y325984D02*
D03*
Y332283D02*
D03*
X63386Y285433D02*
D03*
Y279134D02*
D03*
X510201Y174016D02*
D03*
Y180315D02*
D03*
X521654Y174016D02*
D03*
Y180315D02*
D03*
X533464D02*
D03*
Y174016D02*
D03*
X591339Y101575D02*
D03*
Y95276D02*
D03*
X618110D02*
D03*
Y101575D02*
D03*
X714173Y318898D02*
D03*
Y312598D02*
D03*
X679921Y278346D02*
D03*
Y284646D02*
D03*
X583465Y282677D02*
D03*
Y276378D02*
D03*
X223622Y28248D02*
D03*
Y21949D02*
D03*
X339764Y55413D02*
D03*
Y61713D02*
D03*
X223622Y95177D02*
D03*
Y88878D02*
D03*
X339764Y95177D02*
D03*
Y88878D02*
D03*
X223622Y128642D02*
D03*
Y122343D02*
D03*
X339764Y128642D02*
D03*
Y122343D02*
D03*
X223622Y162106D02*
D03*
Y155807D02*
D03*
X339764D02*
D03*
Y162106D02*
D03*
X223622Y189272D02*
D03*
Y195571D02*
D03*
X339764Y189272D02*
D03*
Y195571D02*
D03*
X223622Y222736D02*
D03*
Y229035D02*
D03*
Y34646D02*
D03*
Y40945D02*
D03*
X339764Y241732D02*
D03*
Y235433D02*
D03*
Y222736D02*
D03*
Y229035D02*
D03*
X300000Y22047D02*
D03*
Y15748D02*
D03*
X223622Y275197D02*
D03*
Y268898D02*
D03*
Y256201D02*
D03*
Y262500D02*
D03*
X339764Y275197D02*
D03*
Y268898D02*
D03*
Y256201D02*
D03*
Y262500D02*
D03*
X223622Y168504D02*
D03*
Y174803D02*
D03*
X496850Y280709D02*
D03*
Y274409D02*
D03*
X659842Y309842D02*
D03*
Y316142D02*
D03*
X679134Y86614D02*
D03*
Y92913D02*
D03*
X502362Y280709D02*
D03*
Y274409D02*
D03*
X583465Y257087D02*
D03*
Y250787D02*
D03*
X679921Y239370D02*
D03*
Y233071D02*
D03*
Y252756D02*
D03*
Y259055D02*
D03*
X582677Y237402D02*
D03*
Y231102D02*
D03*
X581890Y206693D02*
D03*
Y212992D02*
D03*
X679134Y74803D02*
D03*
Y68504D02*
D03*
X617717Y308268D02*
D03*
Y301969D02*
D03*
X626378Y308268D02*
D03*
Y301969D02*
D03*
X507874Y274409D02*
D03*
Y280709D02*
D03*
X339764Y201969D02*
D03*
Y208268D02*
D03*
X183858Y149606D02*
D03*
Y155905D02*
D03*
X300000D02*
D03*
Y149606D02*
D03*
X183858Y189370D02*
D03*
Y183071D02*
D03*
Y222835D02*
D03*
Y216535D02*
D03*
X300000Y189370D02*
D03*
Y183071D02*
D03*
X223622Y201969D02*
D03*
Y208268D02*
D03*
X300000Y222835D02*
D03*
Y216535D02*
D03*
X223622Y235433D02*
D03*
Y241732D02*
D03*
X300000Y256299D02*
D03*
Y250000D02*
D03*
X183858Y256299D02*
D03*
Y250000D02*
D03*
X339764Y168504D02*
D03*
Y174803D02*
D03*
Y141339D02*
D03*
Y135039D02*
D03*
X223622Y141339D02*
D03*
Y135039D02*
D03*
X339764Y107874D02*
D03*
Y101575D02*
D03*
X223622Y107874D02*
D03*
Y101575D02*
D03*
X339764Y68110D02*
D03*
Y74410D02*
D03*
X223622D02*
D03*
Y68110D02*
D03*
X339764Y40945D02*
D03*
Y34646D02*
D03*
X183858Y15748D02*
D03*
Y22047D02*
D03*
X223622Y55413D02*
D03*
Y61713D02*
D03*
X339764Y21949D02*
D03*
Y28248D02*
D03*
X300000Y116142D02*
D03*
Y122441D02*
D03*
X183858Y116142D02*
D03*
Y122441D02*
D03*
X300000Y82677D02*
D03*
Y88976D02*
D03*
X183858Y82677D02*
D03*
Y88976D02*
D03*
X300000Y55512D02*
D03*
Y49213D02*
D03*
X183858D02*
D03*
Y55512D02*
D03*
X654331Y309842D02*
D03*
Y316142D02*
D03*
X567717Y113386D02*
D03*
Y107087D02*
D03*
X561811Y113386D02*
D03*
Y107087D02*
D03*
X546063Y70867D02*
D03*
Y77166D02*
D03*
X540945Y92126D02*
D03*
Y85827D02*
D03*
X648819Y309842D02*
D03*
Y316142D02*
D03*
D27*
X637402Y79921D02*
D03*
X643701D02*
D03*
X81496Y268504D02*
D03*
X87795D02*
D03*
X464862Y286221D02*
D03*
X471161D02*
D03*
X76673Y319291D02*
D03*
X82972D02*
D03*
X453543Y319390D02*
D03*
X447244D02*
D03*
X611417Y300394D02*
D03*
X605118D02*
D03*
X773622Y283071D02*
D03*
X767323D02*
D03*
X393701Y168898D02*
D03*
X387402D02*
D03*
X393307Y129528D02*
D03*
X387008D02*
D03*
X662205Y199606D02*
D03*
X668504D02*
D03*
X483071Y268898D02*
D03*
X489370D02*
D03*
X614961Y193307D02*
D03*
X621260D02*
D03*
X636614Y199213D02*
D03*
X642913D02*
D03*
X638976Y298425D02*
D03*
X632677D02*
D03*
X716535Y202362D02*
D03*
X722835D02*
D03*
Y142126D02*
D03*
X716535D02*
D03*
X722835Y210630D02*
D03*
X716535D02*
D03*
X722835Y163779D02*
D03*
X716535D02*
D03*
X722835Y116535D02*
D03*
X716535D02*
D03*
X594882Y311417D02*
D03*
X588583D02*
D03*
X582677D02*
D03*
X576378D02*
D03*
X594882Y316929D02*
D03*
X588583D02*
D03*
X582677Y305906D02*
D03*
X576378D02*
D03*
X518898Y305118D02*
D03*
X512598D02*
D03*
X636024Y18209D02*
D03*
X642323D02*
D03*
D28*
X646457Y71751D02*
D03*
X636221D02*
D03*
X473228Y329134D02*
D03*
X462992D02*
D03*
X609449Y117717D02*
D03*
X599213D02*
D03*
Y77559D02*
D03*
X609449D02*
D03*
D29*
X77559Y292126D02*
D03*
X68898D02*
D03*
D30*
X47244Y285433D02*
D03*
X54331D02*
D03*
X55512Y363779D02*
D03*
X62598D02*
D03*
Y370866D02*
D03*
X55512D02*
D03*
X42126Y371654D02*
D03*
X35039Y371654D02*
D03*
X37008Y21654D02*
D03*
X44094D02*
D03*
X47638Y203937D02*
D03*
X54724D02*
D03*
D31*
X53937Y279528D02*
D03*
X47638D02*
D03*
X87795Y262205D02*
D03*
X81496D02*
D03*
X582677Y316929D02*
D03*
X576378D02*
D03*
D32*
X98425Y292126D02*
D03*
X85827D02*
D03*
X813780Y368110D02*
D03*
X801181D02*
D03*
X749213Y89370D02*
D03*
X736614D02*
D03*
X472441Y97244D02*
D03*
X485039D02*
D03*
X767717Y17717D02*
D03*
X755118D02*
D03*
X736614Y78347D02*
D03*
X749213D02*
D03*
D33*
X65945Y262008D02*
D03*
Y270669D02*
D03*
X60827D02*
D03*
X63386Y270669D02*
D03*
Y262008D02*
D03*
X60827Y262008D02*
D03*
X448228Y311319D02*
D03*
X450787D02*
D03*
X453346D02*
D03*
Y302658D02*
D03*
X450787D02*
D03*
X448228D02*
D03*
X725394Y244488D02*
D03*
X722835D02*
D03*
X720276D02*
D03*
Y253150D02*
D03*
X722835D02*
D03*
X725394D02*
D03*
X53740Y188583D02*
D03*
X51181D02*
D03*
X48622D02*
D03*
Y197244D02*
D03*
X51181D02*
D03*
X53740D02*
D03*
X760039Y100394D02*
D03*
X757480D02*
D03*
X754921D02*
D03*
Y109055D02*
D03*
X757480D02*
D03*
X760039D02*
D03*
D34*
X56496Y267913D02*
D03*
Y264764D02*
D03*
X49803Y267913D02*
D03*
Y264764D02*
D03*
D35*
X480709Y325984D02*
D03*
Y332283D02*
D03*
X236221Y40945D02*
D03*
Y34646D02*
D03*
X352362Y275197D02*
D03*
Y268898D02*
D03*
X236221Y168504D02*
D03*
Y174803D02*
D03*
X352362Y201969D02*
D03*
Y208268D02*
D03*
Y168504D02*
D03*
Y174803D02*
D03*
Y235433D02*
D03*
Y241732D02*
D03*
X236221Y201969D02*
D03*
Y208268D02*
D03*
Y235433D02*
D03*
Y241732D02*
D03*
Y268898D02*
D03*
Y275197D02*
D03*
Y107874D02*
D03*
Y101575D02*
D03*
X352362Y40945D02*
D03*
Y34646D02*
D03*
X236221Y74410D02*
D03*
Y68110D02*
D03*
Y141339D02*
D03*
Y135039D02*
D03*
X352362Y107874D02*
D03*
Y101575D02*
D03*
Y141339D02*
D03*
Y135039D02*
D03*
Y68110D02*
D03*
Y74410D02*
D03*
D36*
X210039Y323486D02*
D03*
Y328486D02*
D03*
X234842D02*
D03*
Y323486D02*
D03*
X502559Y220610D02*
D03*
Y215610D02*
D03*
X527362D02*
D03*
Y220610D02*
D03*
D37*
X158661Y371261D02*
D03*
Y358663D02*
D03*
X150787Y371261D02*
D03*
Y358663D02*
D03*
X142913Y371261D02*
D03*
Y358663D02*
D03*
X135039Y371261D02*
D03*
Y358663D02*
D03*
Y349214D02*
D03*
Y336616D02*
D03*
X142913D02*
D03*
Y349214D02*
D03*
X150787D02*
D03*
Y336616D02*
D03*
X158661Y349214D02*
D03*
Y336616D02*
D03*
D38*
X186614Y341734D02*
D03*
X174016D02*
D03*
D39*
X184843Y361812D02*
D03*
X175787Y358072D02*
D03*
Y365553D02*
D03*
D40*
X184252Y371261D02*
D03*
X176378D02*
D03*
D41*
X192520Y366143D02*
D03*
Y354332D02*
D03*
X244094Y355120D02*
D03*
Y343309D02*
D03*
X244094Y365354D02*
D03*
Y377165D02*
D03*
D42*
X251378Y328545D02*
D03*
Y336025D02*
D03*
X242323Y332285D02*
D03*
D43*
X231299Y355238D02*
D03*
X201772D02*
D03*
X231299Y365238D02*
D03*
X201772D02*
D03*
D44*
X626378Y313976D02*
D03*
X617717D02*
D03*
Y320669D02*
D03*
X626378D02*
D03*
D45*
X710345Y350394D02*
D03*
X772333D02*
D03*
D46*
X756283Y284826D02*
D03*
Y277740D02*
D03*
X532678Y92520D02*
D03*
Y85433D02*
D03*
X574803Y114567D02*
D03*
Y107481D02*
D03*
D47*
X839961Y368110D02*
D03*
X823032D02*
D03*
D48*
X824409Y296850D02*
D03*
Y292520D02*
D03*
Y288189D02*
D03*
Y283858D02*
D03*
Y279527D02*
D03*
Y275197D02*
D03*
Y270866D02*
D03*
Y266535D02*
D03*
D49*
X835827Y311614D02*
D03*
Y260827D02*
D03*
D50*
X778839Y297638D02*
D03*
Y288583D02*
D03*
Y262598D02*
D03*
D51*
X797441Y260335D02*
D03*
D52*
X711221Y258819D02*
D03*
Y253819D02*
D03*
Y248819D02*
D03*
Y243819D02*
D03*
Y238819D02*
D03*
X695866Y258819D02*
D03*
Y253819D02*
D03*
Y248819D02*
D03*
Y243819D02*
D03*
Y238819D02*
D03*
D53*
X484646Y304134D02*
D03*
Y306102D02*
D03*
Y310039D02*
D03*
Y308071D02*
D03*
Y302165D02*
D03*
Y312008D02*
D03*
X499606D02*
D03*
Y310039D02*
D03*
Y308071D02*
D03*
Y306102D02*
D03*
Y304134D02*
D03*
Y302165D02*
D03*
D54*
X611417Y310827D02*
D03*
Y317520D02*
D03*
D55*
X504724Y164272D02*
D03*
Y157776D02*
D03*
X531890D02*
D03*
Y164272D02*
D03*
X540945D02*
D03*
Y157776D02*
D03*
X522835Y164272D02*
D03*
Y157776D02*
D03*
X513779D02*
D03*
Y164272D02*
D03*
D56*
X596831Y87795D02*
D03*
X601831D02*
D03*
X606831D02*
D03*
X611831D02*
D03*
X596831Y109055D02*
D03*
X601831D02*
D03*
X606831D02*
D03*
X611831D02*
D03*
X632264Y87795D02*
D03*
X637264D02*
D03*
X642264D02*
D03*
X647264D02*
D03*
X632264Y109055D02*
D03*
X637264D02*
D03*
X642264D02*
D03*
X647264D02*
D03*
D57*
X607293Y317154D02*
D03*
X599793D02*
D03*
D58*
X603543Y326153D02*
D03*
D59*
X423917Y49508D02*
D03*
Y25098D02*
D03*
X443209Y49508D02*
D03*
Y25098D02*
D03*
D60*
X447146Y68405D02*
D03*
X436909D02*
D03*
D61*
X705512Y318130D02*
D03*
Y313130D02*
D03*
Y308130D02*
D03*
Y303130D02*
D03*
X677165D02*
D03*
Y308130D02*
D03*
Y313130D02*
D03*
Y318130D02*
D03*
D62*
X573229Y78052D02*
D03*
Y99902D02*
D03*
D63*
X212992Y169488D02*
D03*
X210433D02*
D03*
X207874D02*
D03*
X205315D02*
D03*
X202756D02*
D03*
Y150984D02*
D03*
X205315D02*
D03*
X207874D02*
D03*
X210433D02*
D03*
X212992D02*
D03*
X329134Y17126D02*
D03*
X326575D02*
D03*
X324016D02*
D03*
X321457D02*
D03*
X318898D02*
D03*
Y35630D02*
D03*
X321457D02*
D03*
X324016D02*
D03*
X326575D02*
D03*
X329134D02*
D03*
Y236417D02*
D03*
X326575D02*
D03*
X324016D02*
D03*
X321457D02*
D03*
X318898D02*
D03*
Y217913D02*
D03*
X321457D02*
D03*
X324016D02*
D03*
X326575D02*
D03*
X329134D02*
D03*
Y202953D02*
D03*
X326575D02*
D03*
X324016D02*
D03*
X321457D02*
D03*
X318898D02*
D03*
Y184449D02*
D03*
X321457D02*
D03*
X324016D02*
D03*
X326575D02*
D03*
X329134D02*
D03*
Y169488D02*
D03*
X326575D02*
D03*
X324016D02*
D03*
X321457D02*
D03*
X318898D02*
D03*
Y150984D02*
D03*
X321457D02*
D03*
X324016D02*
D03*
X326575D02*
D03*
X329134D02*
D03*
Y269882D02*
D03*
X326575D02*
D03*
X324016D02*
D03*
X321457D02*
D03*
X318898D02*
D03*
Y251378D02*
D03*
X321457D02*
D03*
X324016D02*
D03*
X326575D02*
D03*
X329134D02*
D03*
X212992Y236417D02*
D03*
X210433D02*
D03*
X207874D02*
D03*
X205315D02*
D03*
X202756D02*
D03*
Y217913D02*
D03*
X205315D02*
D03*
X207874D02*
D03*
X210433D02*
D03*
X212992D02*
D03*
Y202953D02*
D03*
X210433D02*
D03*
X207874D02*
D03*
X205315D02*
D03*
X202756D02*
D03*
Y184449D02*
D03*
X205315D02*
D03*
X207874D02*
D03*
X210433D02*
D03*
X212992D02*
D03*
Y269882D02*
D03*
X210433D02*
D03*
X207874D02*
D03*
X205315D02*
D03*
X202756D02*
D03*
Y251378D02*
D03*
X205315D02*
D03*
X207874D02*
D03*
X210433D02*
D03*
X212992D02*
D03*
X329134Y117520D02*
D03*
X326575D02*
D03*
X324016D02*
D03*
X321457D02*
D03*
X318898D02*
D03*
Y136024D02*
D03*
X321457D02*
D03*
X324016D02*
D03*
X326575D02*
D03*
X329134D02*
D03*
X212992Y117520D02*
D03*
X210433D02*
D03*
X207874D02*
D03*
X205315D02*
D03*
X202756D02*
D03*
Y136024D02*
D03*
X205315D02*
D03*
X207874D02*
D03*
X210433D02*
D03*
X212992D02*
D03*
X329134Y84055D02*
D03*
X326575D02*
D03*
X324016D02*
D03*
X321457D02*
D03*
X318898D02*
D03*
Y102559D02*
D03*
X321457D02*
D03*
X324016D02*
D03*
X326575D02*
D03*
X329134D02*
D03*
X212992Y84055D02*
D03*
X210433D02*
D03*
X207874D02*
D03*
X205315D02*
D03*
X202756D02*
D03*
Y102559D02*
D03*
X205315D02*
D03*
X207874D02*
D03*
X210433D02*
D03*
X212992D02*
D03*
X329134Y69095D02*
D03*
X326575D02*
D03*
X324016D02*
D03*
X321457D02*
D03*
X318898D02*
D03*
Y50591D02*
D03*
X321457D02*
D03*
X324016D02*
D03*
X326575D02*
D03*
X329134D02*
D03*
X212992D02*
D03*
X210433D02*
D03*
X207874D02*
D03*
X205315D02*
D03*
X202756D02*
D03*
Y69095D02*
D03*
X205315D02*
D03*
X207874D02*
D03*
X210433D02*
D03*
X212992D02*
D03*
Y17126D02*
D03*
X210433D02*
D03*
X207874D02*
D03*
X205315D02*
D03*
X202756D02*
D03*
Y35630D02*
D03*
X205315D02*
D03*
X207874D02*
D03*
X210433D02*
D03*
X212992D02*
D03*
D64*
X198622Y165354D02*
D03*
Y162795D02*
D03*
Y160236D02*
D03*
Y157677D02*
D03*
Y155118D02*
D03*
X217126D02*
D03*
Y157677D02*
D03*
Y160236D02*
D03*
Y162795D02*
D03*
Y165354D02*
D03*
X333268Y31496D02*
D03*
Y28937D02*
D03*
Y26378D02*
D03*
Y23819D02*
D03*
Y21260D02*
D03*
X314764D02*
D03*
Y23819D02*
D03*
Y26378D02*
D03*
Y28937D02*
D03*
Y31496D02*
D03*
Y232283D02*
D03*
Y229724D02*
D03*
Y227165D02*
D03*
Y224606D02*
D03*
Y222047D02*
D03*
X333268D02*
D03*
Y224606D02*
D03*
Y227165D02*
D03*
Y229724D02*
D03*
Y232283D02*
D03*
X314764Y198819D02*
D03*
Y196260D02*
D03*
Y193701D02*
D03*
Y191142D02*
D03*
Y188583D02*
D03*
X333268D02*
D03*
Y191142D02*
D03*
Y193701D02*
D03*
Y196260D02*
D03*
Y198819D02*
D03*
X314764Y165354D02*
D03*
Y162795D02*
D03*
Y160236D02*
D03*
Y157677D02*
D03*
Y155118D02*
D03*
X333268D02*
D03*
Y157677D02*
D03*
Y160236D02*
D03*
Y162795D02*
D03*
Y165354D02*
D03*
X314764Y265748D02*
D03*
Y263189D02*
D03*
Y260630D02*
D03*
Y258071D02*
D03*
Y255512D02*
D03*
X333268D02*
D03*
Y258071D02*
D03*
Y260630D02*
D03*
Y263189D02*
D03*
Y265748D02*
D03*
X198622Y232283D02*
D03*
Y229724D02*
D03*
Y227165D02*
D03*
Y224606D02*
D03*
Y222047D02*
D03*
X217126D02*
D03*
Y224606D02*
D03*
Y227165D02*
D03*
Y229724D02*
D03*
Y232283D02*
D03*
X198622Y198819D02*
D03*
Y196260D02*
D03*
Y193701D02*
D03*
Y191142D02*
D03*
Y188583D02*
D03*
X217126D02*
D03*
Y191142D02*
D03*
Y193701D02*
D03*
Y196260D02*
D03*
Y198819D02*
D03*
X198622Y265748D02*
D03*
Y263189D02*
D03*
Y260630D02*
D03*
Y258071D02*
D03*
Y255512D02*
D03*
X217126D02*
D03*
Y258071D02*
D03*
Y260630D02*
D03*
Y263189D02*
D03*
Y265748D02*
D03*
X333268Y131890D02*
D03*
Y129331D02*
D03*
Y126772D02*
D03*
Y124213D02*
D03*
Y121654D02*
D03*
X314764D02*
D03*
Y124213D02*
D03*
Y126772D02*
D03*
Y129331D02*
D03*
Y131890D02*
D03*
X217126D02*
D03*
Y129331D02*
D03*
Y126772D02*
D03*
Y124213D02*
D03*
Y121654D02*
D03*
X198622D02*
D03*
Y124213D02*
D03*
Y126772D02*
D03*
Y129331D02*
D03*
Y131890D02*
D03*
X333268Y98425D02*
D03*
Y95866D02*
D03*
Y93307D02*
D03*
Y90748D02*
D03*
Y88189D02*
D03*
X314764D02*
D03*
Y90748D02*
D03*
Y93307D02*
D03*
Y95866D02*
D03*
Y98425D02*
D03*
X217126D02*
D03*
Y95866D02*
D03*
Y93307D02*
D03*
Y90748D02*
D03*
Y88189D02*
D03*
X198622D02*
D03*
Y90748D02*
D03*
Y93307D02*
D03*
Y95866D02*
D03*
Y98425D02*
D03*
X314764Y64961D02*
D03*
Y62402D02*
D03*
Y59842D02*
D03*
Y57284D02*
D03*
Y54724D02*
D03*
X333268D02*
D03*
Y57284D02*
D03*
Y59842D02*
D03*
Y62402D02*
D03*
Y64961D02*
D03*
X217126D02*
D03*
Y62402D02*
D03*
Y59842D02*
D03*
Y57284D02*
D03*
Y54724D02*
D03*
X198622D02*
D03*
Y57284D02*
D03*
Y59842D02*
D03*
Y62402D02*
D03*
Y64961D02*
D03*
X217126Y31496D02*
D03*
Y28937D02*
D03*
Y26378D02*
D03*
Y23819D02*
D03*
Y21260D02*
D03*
X198622D02*
D03*
Y23819D02*
D03*
Y26378D02*
D03*
Y28937D02*
D03*
Y31496D02*
D03*
D65*
X207874Y160236D02*
D03*
X324016Y26378D02*
D03*
Y227165D02*
D03*
Y193701D02*
D03*
Y160236D02*
D03*
Y260630D02*
D03*
X207874Y227165D02*
D03*
Y193701D02*
D03*
Y260630D02*
D03*
X324016Y126772D02*
D03*
X207874D02*
D03*
X324016Y93307D02*
D03*
X207874D02*
D03*
X324016Y59842D02*
D03*
X207874D02*
D03*
Y26378D02*
D03*
D66*
X575984Y206890D02*
D03*
Y212795D02*
D03*
X757677Y43898D02*
D03*
D67*
X402165Y174114D02*
D03*
Y176673D02*
D03*
Y179232D02*
D03*
Y181791D02*
D03*
Y184350D02*
D03*
Y186909D02*
D03*
Y189469D02*
D03*
Y192027D02*
D03*
X378937D02*
D03*
Y189469D02*
D03*
Y186909D02*
D03*
Y184350D02*
D03*
Y181791D02*
D03*
Y179232D02*
D03*
Y176673D02*
D03*
Y174114D02*
D03*
X401772Y134744D02*
D03*
Y137303D02*
D03*
Y139862D02*
D03*
Y142421D02*
D03*
Y144980D02*
D03*
Y147539D02*
D03*
Y150098D02*
D03*
Y152657D02*
D03*
X378543D02*
D03*
Y150098D02*
D03*
Y147539D02*
D03*
Y144980D02*
D03*
Y142421D02*
D03*
Y139862D02*
D03*
Y137303D02*
D03*
Y134744D02*
D03*
X704331Y67815D02*
D03*
Y70374D02*
D03*
Y72933D02*
D03*
Y75492D02*
D03*
X687008D02*
D03*
Y72933D02*
D03*
Y70374D02*
D03*
Y67815D02*
D03*
D68*
X346063Y27559D02*
D03*
Y17323D02*
D03*
X229921Y261811D02*
D03*
Y251575D02*
D03*
X346063Y184646D02*
D03*
Y194882D02*
D03*
Y151181D02*
D03*
Y161417D02*
D03*
Y218110D02*
D03*
Y228346D02*
D03*
X229921Y161417D02*
D03*
Y151181D02*
D03*
Y184646D02*
D03*
Y194882D02*
D03*
Y218110D02*
D03*
Y228346D02*
D03*
X346063Y251575D02*
D03*
Y261811D02*
D03*
X229921Y27559D02*
D03*
Y17323D02*
D03*
Y94488D02*
D03*
Y84252D02*
D03*
Y50787D02*
D03*
Y61024D02*
D03*
Y127953D02*
D03*
Y117717D02*
D03*
X346063Y94488D02*
D03*
Y84252D02*
D03*
Y127953D02*
D03*
Y117717D02*
D03*
Y61024D02*
D03*
Y50787D02*
D03*
D69*
X178347Y40945D02*
D03*
Y34646D02*
D03*
Y168504D02*
D03*
Y174803D02*
D03*
X294488D02*
D03*
Y168504D02*
D03*
X178347Y208268D02*
D03*
Y201969D02*
D03*
X294488Y208268D02*
D03*
Y201969D02*
D03*
X178347Y241732D02*
D03*
Y235433D02*
D03*
X294488Y241732D02*
D03*
Y235433D02*
D03*
X178347Y275197D02*
D03*
Y268898D02*
D03*
X294488Y275197D02*
D03*
Y268898D02*
D03*
X178347Y107874D02*
D03*
Y101575D02*
D03*
X294488Y40945D02*
D03*
Y34646D02*
D03*
X178347Y74410D02*
D03*
Y68110D02*
D03*
Y141339D02*
D03*
Y135039D02*
D03*
X294488Y107874D02*
D03*
Y101575D02*
D03*
Y141339D02*
D03*
Y135039D02*
D03*
Y68110D02*
D03*
Y74410D02*
D03*
D70*
X229921Y34843D02*
D03*
Y40748D02*
D03*
X346063Y168701D02*
D03*
Y174606D02*
D03*
X229921Y202165D02*
D03*
Y208071D02*
D03*
X346063Y202165D02*
D03*
Y208071D02*
D03*
X229921Y235630D02*
D03*
Y241535D02*
D03*
X346063Y235630D02*
D03*
Y241535D02*
D03*
X229921Y269094D02*
D03*
Y275000D02*
D03*
X346063Y269094D02*
D03*
Y275000D02*
D03*
X674803Y199409D02*
D03*
Y193504D02*
D03*
X229921Y168701D02*
D03*
Y174606D02*
D03*
X346063Y135236D02*
D03*
Y141142D02*
D03*
X229921Y135236D02*
D03*
Y141142D02*
D03*
X346063Y101772D02*
D03*
Y107677D02*
D03*
X229921Y101772D02*
D03*
Y107677D02*
D03*
X346063Y74213D02*
D03*
Y68307D02*
D03*
X229921D02*
D03*
Y74213D02*
D03*
X346063Y34843D02*
D03*
Y40748D02*
D03*
D71*
X137303Y66142D02*
D03*
X169783D02*
D03*
X137303Y32677D02*
D03*
X169783D02*
D03*
X137303Y200000D02*
D03*
X169783D02*
D03*
X253445Y166535D02*
D03*
X285925D02*
D03*
X253445Y200000D02*
D03*
X285925D02*
D03*
X253445Y233464D02*
D03*
X285925D02*
D03*
X137303D02*
D03*
X169783D02*
D03*
X137303Y266929D02*
D03*
X169783D02*
D03*
Y166535D02*
D03*
X137303D02*
D03*
X253445Y266929D02*
D03*
X285925D02*
D03*
Y133071D02*
D03*
X253445D02*
D03*
X169783D02*
D03*
X137303D02*
D03*
X285925Y99606D02*
D03*
X253445D02*
D03*
X169783D02*
D03*
X137303D02*
D03*
X285925Y66142D02*
D03*
X253445D02*
D03*
Y32677D02*
D03*
X285925D02*
D03*
D72*
X490650Y280750D02*
D03*
X481988D02*
D03*
Y274451D02*
D03*
X490650D02*
D03*
D73*
X725098Y67716D02*
D03*
X731595D02*
D03*
D74*
X576181Y218504D02*
D03*
X582087D02*
D03*
D75*
X673721Y219488D02*
D03*
Y282480D02*
D03*
Y280512D02*
D03*
Y278543D02*
D03*
Y276575D02*
D03*
Y274606D02*
D03*
Y272638D02*
D03*
Y270669D02*
D03*
Y268701D02*
D03*
Y266732D02*
D03*
Y264764D02*
D03*
Y262795D02*
D03*
Y260827D02*
D03*
Y258858D02*
D03*
Y256890D02*
D03*
Y254921D02*
D03*
Y249016D02*
D03*
Y245079D02*
D03*
Y243110D02*
D03*
Y241142D02*
D03*
Y239173D02*
D03*
Y237205D02*
D03*
Y235236D02*
D03*
Y233268D02*
D03*
Y231299D02*
D03*
Y229331D02*
D03*
Y227362D02*
D03*
Y225394D02*
D03*
Y223425D02*
D03*
Y221457D02*
D03*
Y217520D02*
D03*
Y215551D02*
D03*
Y213583D02*
D03*
X590059D02*
D03*
Y215551D02*
D03*
Y217520D02*
D03*
Y219488D02*
D03*
Y221457D02*
D03*
Y223425D02*
D03*
Y225394D02*
D03*
Y227362D02*
D03*
Y229331D02*
D03*
Y231299D02*
D03*
Y233268D02*
D03*
Y235236D02*
D03*
Y237205D02*
D03*
Y239173D02*
D03*
Y241142D02*
D03*
Y243110D02*
D03*
Y245079D02*
D03*
Y247047D02*
D03*
Y249016D02*
D03*
Y250984D02*
D03*
Y252953D02*
D03*
Y254921D02*
D03*
Y256890D02*
D03*
Y258858D02*
D03*
Y260827D02*
D03*
Y262795D02*
D03*
Y264764D02*
D03*
Y270669D02*
D03*
Y272638D02*
D03*
Y274606D02*
D03*
Y276575D02*
D03*
Y278543D02*
D03*
Y280512D02*
D03*
Y282480D02*
D03*
X673721Y252953D02*
D03*
X590059Y268701D02*
D03*
Y266732D02*
D03*
X673721Y247047D02*
D03*
Y250984D02*
D03*
D76*
X753543Y163760D02*
D03*
Y168760D02*
D03*
Y152106D02*
D03*
Y157106D02*
D03*
Y142106D02*
D03*
Y147106D02*
D03*
Y126516D02*
D03*
Y131516D02*
D03*
Y116516D02*
D03*
Y121516D02*
D03*
X732283Y178760D02*
D03*
Y173760D02*
D03*
Y168760D02*
D03*
Y163760D02*
D03*
X753543Y178760D02*
D03*
Y173760D02*
D03*
X732283Y131516D02*
D03*
Y126516D02*
D03*
Y121516D02*
D03*
Y116516D02*
D03*
Y142106D02*
D03*
Y147106D02*
D03*
Y152106D02*
D03*
Y157106D02*
D03*
Y202382D02*
D03*
Y197382D02*
D03*
Y192382D02*
D03*
Y187382D02*
D03*
X753543Y202382D02*
D03*
Y197382D02*
D03*
Y192382D02*
D03*
Y187382D02*
D03*
Y210216D02*
D03*
Y215216D02*
D03*
Y220216D02*
D03*
Y225217D02*
D03*
X732283Y210216D02*
D03*
Y215216D02*
D03*
Y220216D02*
D03*
Y225217D02*
D03*
D77*
X690551Y86024D02*
D03*
Y93504D02*
D03*
X700787D02*
D03*
Y89764D02*
D03*
Y86024D02*
D03*
D78*
X492126Y307087D02*
D03*
D79*
X493110Y314567D02*
D03*
X495079D02*
D03*
X497047D02*
D03*
Y299606D02*
D03*
X495079D02*
D03*
X493110D02*
D03*
X491142D02*
D03*
X489173D02*
D03*
X487205D02*
D03*
X491142Y314567D02*
D03*
X489173D02*
D03*
X487205D02*
D03*
D80*
X627756Y23524D02*
D03*
Y26083D02*
D03*
Y28642D02*
D03*
Y31201D02*
D03*
Y33760D02*
D03*
Y36319D02*
D03*
Y38878D02*
D03*
X650591D02*
D03*
Y36319D02*
D03*
Y33760D02*
D03*
Y31201D02*
D03*
Y28642D02*
D03*
Y26083D02*
D03*
Y23524D02*
D03*
D81*
X757677Y37205D02*
D03*
X766732D02*
D03*
Y44685D02*
D03*
D82*
X551181Y87008D02*
D03*
Y88977D02*
D03*
Y90945D02*
D03*
D83*
X554134Y83268D02*
D03*
X552165D02*
D03*
X550197D02*
D03*
X548228D02*
D03*
Y94685D02*
D03*
X550197D02*
D03*
X552165D02*
D03*
X554134D02*
D03*
D84*
X654429Y303150D02*
D03*
X648721D02*
D03*
M02*
