G04*
G04 #@! TF.GenerationSoftware,Altium Limited,Altium Designer,24.7.2 (38)*
G04*
G04 Layer_Color=16711935*
%FSLAX25Y25*%
%MOIN*%
G70*
G04*
G04 #@! TF.SameCoordinates,7466D0F8-E9CD-42B0-AAD5-FE8217CC6D43*
G04*
G04*
G04 #@! TF.FilePolarity,Negative*
G04*
G01*
G75*
%ADD139P,0.11136X4X360.0*%
%ADD150C,0.05630*%
%ADD151C,0.12953*%
%ADD152C,0.06102*%
%ADD153C,0.09567*%
%ADD154C,0.02874*%
%ADD155O,0.07598X0.03661*%
%ADD156C,0.06811*%
%ADD157C,0.06417*%
%ADD158C,0.22047*%
%ADD159C,0.09961*%
%ADD160R,0.06024X0.06024*%
%ADD161C,0.06024*%
%ADD162C,0.04449*%
%ADD163C,0.07205*%
%ADD164R,0.06811X0.06811*%
%ADD165C,0.19803*%
%ADD166C,0.04252*%
%ADD167C,0.10827*%
%ADD168C,0.08976*%
%ADD169C,0.02087*%
%ADD170C,0.02480*%
%ADD211P,0.11136X4X270.0*%
D139*
X51181Y374016D02*
D03*
D150*
X53347Y314272D02*
D03*
X63346Y329272D02*
D03*
X53347Y304272D02*
D03*
X63346Y309272D02*
D03*
Y349272D02*
D03*
Y339272D02*
D03*
Y319272D02*
D03*
X53347Y344272D02*
D03*
Y334272D02*
D03*
Y324272D02*
D03*
D151*
X28346Y349272D02*
D03*
Y304272D02*
D03*
D152*
X18307Y353543D02*
D03*
X10315Y300000D02*
D03*
Y353543D02*
D03*
X18307Y300000D02*
D03*
D153*
X40354Y295886D02*
D03*
Y357658D02*
D03*
D154*
X27874Y281496D02*
D03*
X31418D02*
D03*
X19016Y278425D02*
D03*
X22559D02*
D03*
X26103D02*
D03*
X29646D02*
D03*
X33189D02*
D03*
X34961Y281496D02*
D03*
X24331D02*
D03*
X20788D02*
D03*
X38504D02*
D03*
X17244D02*
D03*
X15473Y278425D02*
D03*
X36733D02*
D03*
D155*
X17441Y285591D02*
D03*
Y274331D02*
D03*
X36339D02*
D03*
Y285591D02*
D03*
D156*
X697479Y376772D02*
D03*
X687479D02*
D03*
X677479D02*
D03*
X667480D02*
D03*
X647480D02*
D03*
X657480D02*
D03*
X627480D02*
D03*
X617480D02*
D03*
X607480D02*
D03*
X637480D02*
D03*
X757165Y303937D02*
D03*
X737165D02*
D03*
X747165D02*
D03*
D157*
X784370Y197324D02*
D03*
X794370D02*
D03*
X784370Y207324D02*
D03*
X794370D02*
D03*
X784370Y217324D02*
D03*
X794370D02*
D03*
Y227324D02*
D03*
X784370D02*
D03*
X794370Y237324D02*
D03*
X784370D02*
D03*
Y147324D02*
D03*
X794370D02*
D03*
X784370Y157324D02*
D03*
X794370D02*
D03*
X784370Y167324D02*
D03*
X794370D02*
D03*
Y177324D02*
D03*
X784370D02*
D03*
X794370Y187324D02*
D03*
X784370D02*
D03*
Y97324D02*
D03*
X794370D02*
D03*
X784370Y107324D02*
D03*
X794370D02*
D03*
X784370Y117324D02*
D03*
X794370D02*
D03*
Y127324D02*
D03*
X784370D02*
D03*
X794370Y137324D02*
D03*
X784370D02*
D03*
D158*
X845830Y335373D02*
D03*
D159*
X795436Y327105D02*
D03*
X817090Y343640D02*
D03*
Y327105D02*
D03*
X795436Y343640D02*
D03*
X829122Y335373D02*
D03*
X807075Y322381D02*
D03*
Y348365D02*
D03*
D160*
X737165Y315748D02*
D03*
D161*
X727165D02*
D03*
X7441Y223346D02*
D03*
Y233347D02*
D03*
X17441D02*
D03*
Y223346D02*
D03*
X27441Y233347D02*
D03*
Y223346D02*
D03*
X37441Y233347D02*
D03*
Y223346D02*
D03*
X7441Y245000D02*
D03*
Y255000D02*
D03*
X17441D02*
D03*
Y245000D02*
D03*
X27441Y255000D02*
D03*
Y245000D02*
D03*
X37441Y255000D02*
D03*
Y245000D02*
D03*
D162*
X803150Y49213D02*
D03*
X808661D02*
D03*
X831102Y57087D02*
D03*
X836614D02*
D03*
X798032D02*
D03*
X797638Y49213D02*
D03*
X798032Y41339D02*
D03*
X797638Y33465D02*
D03*
X798032Y25591D02*
D03*
X797638Y17717D02*
D03*
X803543Y57087D02*
D03*
Y41339D02*
D03*
X803150Y33465D02*
D03*
X803543Y25591D02*
D03*
X803150Y17717D02*
D03*
X809055Y57087D02*
D03*
Y41339D02*
D03*
X808661Y33465D02*
D03*
X809055Y25591D02*
D03*
X808661Y17717D02*
D03*
X814567Y57087D02*
D03*
X814173Y49213D02*
D03*
X814567Y41339D02*
D03*
X814173Y33465D02*
D03*
X814567Y25591D02*
D03*
X814173Y17717D02*
D03*
X820079Y57087D02*
D03*
X819685Y49213D02*
D03*
X820079Y41339D02*
D03*
X819685Y33465D02*
D03*
X820079Y25591D02*
D03*
X819685Y17717D02*
D03*
X825591Y57087D02*
D03*
X825197Y49213D02*
D03*
X825591Y41339D02*
D03*
X825197Y33465D02*
D03*
X825591Y25591D02*
D03*
X825197Y17717D02*
D03*
X830709Y49213D02*
D03*
X831102Y41339D02*
D03*
X830709Y33465D02*
D03*
X831102Y25591D02*
D03*
X830709Y17717D02*
D03*
X836220Y49213D02*
D03*
X836614Y41339D02*
D03*
X836220Y33465D02*
D03*
X836614Y25591D02*
D03*
X836220Y17717D02*
D03*
X842126Y57087D02*
D03*
X841732Y49213D02*
D03*
X842126Y41339D02*
D03*
X841732Y33465D02*
D03*
X842126Y25591D02*
D03*
X841732Y17717D02*
D03*
X847638Y57087D02*
D03*
X847244Y49213D02*
D03*
X847638Y41339D02*
D03*
X847244Y33465D02*
D03*
X847638Y25591D02*
D03*
X847244Y17717D02*
D03*
X853150Y57087D02*
D03*
X852756Y49213D02*
D03*
X853150Y41339D02*
D03*
X852756Y33465D02*
D03*
X853150Y25591D02*
D03*
X852756Y17717D02*
D03*
X858661Y57087D02*
D03*
X858268Y49213D02*
D03*
X858661Y41339D02*
D03*
X858268Y33465D02*
D03*
X858661Y25591D02*
D03*
X858268Y17717D02*
D03*
D163*
X464567Y218134D02*
D03*
Y208134D02*
D03*
Y198134D02*
D03*
Y188134D02*
D03*
Y178134D02*
D03*
Y168134D02*
D03*
Y18086D02*
D03*
Y28086D02*
D03*
Y48086D02*
D03*
Y38086D02*
D03*
D164*
X727165Y303937D02*
D03*
D165*
X19906Y21700D02*
D03*
Y371700D02*
D03*
D166*
X31496Y78720D02*
D03*
Y179508D02*
D03*
Y173209D02*
D03*
Y166909D02*
D03*
Y160610D02*
D03*
Y154311D02*
D03*
Y148012D02*
D03*
Y141713D02*
D03*
Y103917D02*
D03*
Y97618D02*
D03*
Y91319D02*
D03*
Y85020D02*
D03*
Y135413D02*
D03*
Y129114D02*
D03*
Y122815D02*
D03*
Y116516D02*
D03*
Y110216D02*
D03*
X26969Y182658D02*
D03*
Y176358D02*
D03*
Y170059D02*
D03*
Y163760D02*
D03*
Y157461D02*
D03*
Y151161D02*
D03*
Y144862D02*
D03*
Y107067D02*
D03*
Y100768D02*
D03*
Y94468D02*
D03*
Y88169D02*
D03*
Y81870D02*
D03*
Y138563D02*
D03*
Y132264D02*
D03*
Y125965D02*
D03*
Y119665D02*
D03*
Y113366D02*
D03*
X22244Y177933D02*
D03*
Y171634D02*
D03*
Y165335D02*
D03*
Y159035D02*
D03*
Y152736D02*
D03*
Y146437D02*
D03*
Y140138D02*
D03*
Y133839D02*
D03*
Y127539D02*
D03*
Y121240D02*
D03*
Y114941D02*
D03*
Y108642D02*
D03*
Y102342D02*
D03*
Y96043D02*
D03*
Y89744D02*
D03*
Y83445D02*
D03*
Y77146D02*
D03*
X17717Y181083D02*
D03*
Y174784D02*
D03*
Y168484D02*
D03*
Y162185D02*
D03*
Y155886D02*
D03*
Y149587D02*
D03*
Y143287D02*
D03*
Y136988D02*
D03*
Y130689D02*
D03*
Y124390D02*
D03*
Y118090D02*
D03*
Y111791D02*
D03*
Y105492D02*
D03*
Y99193D02*
D03*
Y92894D02*
D03*
Y86594D02*
D03*
Y80295D02*
D03*
D167*
X12284Y212402D02*
D03*
Y47441D02*
D03*
D168*
X22638Y193602D02*
D03*
X22638Y66240D02*
D03*
D169*
X42224Y269783D02*
D03*
X431890Y244980D02*
D03*
X439075Y240846D02*
D03*
X437402Y243012D02*
D03*
X70768Y267523D02*
D03*
Y265154D02*
D03*
X651279Y182868D02*
D03*
Y185236D02*
D03*
X72106Y229528D02*
D03*
Y240158D02*
D03*
Y235039D02*
D03*
Y224016D02*
D03*
Y218504D02*
D03*
Y245669D02*
D03*
Y251181D02*
D03*
Y256693D02*
D03*
X860084Y88583D02*
D03*
X857615D02*
D03*
X835096Y70866D02*
D03*
X832627D02*
D03*
X614961Y166831D02*
D03*
X608268Y149016D02*
D03*
X600984Y219488D02*
D03*
X600295Y225394D02*
D03*
X594587Y242618D02*
D03*
X573524Y243209D02*
D03*
X451181Y237402D02*
D03*
X262008Y330217D02*
D03*
X428999Y311414D02*
D03*
Y313783D02*
D03*
X428999Y300341D02*
D03*
Y302809D02*
D03*
X669095Y273819D02*
D03*
X757480Y97244D02*
D03*
Y111909D02*
D03*
X831201Y143648D02*
D03*
Y146116D02*
D03*
Y160683D02*
D03*
Y158215D02*
D03*
Y176037D02*
D03*
Y173569D02*
D03*
X343307Y282972D02*
D03*
X340748Y281004D02*
D03*
X599213Y249016D02*
D03*
X597047Y246063D02*
D03*
X599311Y240846D02*
D03*
X604528Y159941D02*
D03*
X423425Y155905D02*
D03*
X776181Y308957D02*
D03*
X773622D02*
D03*
X688976Y214272D02*
D03*
X604134Y225886D02*
D03*
X658169Y224410D02*
D03*
X693209Y214370D02*
D03*
X652264Y211713D02*
D03*
X722835Y225590D02*
D03*
X683268Y208760D02*
D03*
X596161Y223425D02*
D03*
Y227362D02*
D03*
X653839Y258858D02*
D03*
X657776D02*
D03*
X655807Y260827D02*
D03*
X659744D02*
D03*
X661713Y258858D02*
D03*
X763583Y299606D02*
D03*
Y266535D02*
D03*
Y272047D02*
D03*
Y305118D02*
D03*
Y294094D02*
D03*
Y288583D02*
D03*
Y283071D02*
D03*
Y277559D02*
D03*
X684271Y228543D02*
D03*
X685105Y224508D02*
D03*
X662008Y240158D02*
D03*
X664665Y232579D02*
D03*
X689764Y248819D02*
D03*
X778839Y302165D02*
D03*
X716339Y281693D02*
D03*
X778839Y258465D02*
D03*
X797441Y256724D02*
D03*
X661614Y243996D02*
D03*
X714567Y285630D02*
D03*
X717224D02*
D03*
X610925Y170177D02*
D03*
X570398Y145866D02*
D03*
X614075Y174902D02*
D03*
X632677Y176772D02*
D03*
X626968Y210236D02*
D03*
X626575Y212697D02*
D03*
X621850Y241142D02*
D03*
X604823Y218012D02*
D03*
X607776Y161811D02*
D03*
X699902Y181004D02*
D03*
X654528Y191929D02*
D03*
X640453Y179823D02*
D03*
X628937Y189075D02*
D03*
X548622Y216535D02*
D03*
X559845Y226867D02*
D03*
X617421Y261811D02*
D03*
X614764Y264764D02*
D03*
X621850Y248721D02*
D03*
X643701Y258661D02*
D03*
X646949Y255807D02*
D03*
X635827Y258071D02*
D03*
X683957Y304921D02*
D03*
X643996Y300492D02*
D03*
X11220Y290551D02*
D03*
X471161Y283169D02*
D03*
X462008Y316929D02*
D03*
X817163Y288189D02*
D03*
X443898Y319390D02*
D03*
X648425Y124705D02*
D03*
X704331Y89764D02*
D03*
X433563Y144783D02*
D03*
X428445Y144882D02*
D03*
X722835Y207480D02*
D03*
X63386Y288681D02*
D03*
X70079Y270571D02*
D03*
X30788Y289075D02*
D03*
X46949Y267520D02*
D03*
Y265151D02*
D03*
X28419Y289075D02*
D03*
X57579Y285433D02*
D03*
X57185Y274410D02*
D03*
X63386Y258760D02*
D03*
X44161Y279528D02*
D03*
X601378Y214665D02*
D03*
X450802Y314355D02*
D03*
X450773Y299621D02*
D03*
X423425Y175984D02*
D03*
X461909Y291732D02*
D03*
X461811Y286221D02*
D03*
X462303Y306988D02*
D03*
X462008Y297244D02*
D03*
X457382Y319390D02*
D03*
X82972Y323110D02*
D03*
Y315453D02*
D03*
X76673Y315472D02*
D03*
Y323130D02*
D03*
X255807Y336024D02*
D03*
X255807Y328645D02*
D03*
X543996Y166443D02*
D03*
X652264Y71752D02*
D03*
X698754Y67815D02*
D03*
Y70472D02*
D03*
X638091Y31201D02*
D03*
X636024Y14567D02*
D03*
X770374Y44685D02*
D03*
X754035Y43898D02*
D03*
X611417Y323917D02*
D03*
X642717Y28642D02*
D03*
X635630D02*
D03*
Y36319D02*
D03*
X645374Y18209D02*
D03*
X622441Y23524D02*
D03*
X655905Y38878D02*
D03*
X657579Y23524D02*
D03*
X668012Y260827D02*
D03*
X817163Y279528D02*
D03*
X763681Y240059D02*
D03*
X695866Y261260D02*
D03*
X667618Y270669D02*
D03*
X741339Y362697D02*
D03*
X629626Y313976D02*
D03*
X614468Y308268D02*
D03*
X614468Y320669D02*
D03*
X679134Y78347D02*
D03*
X709646Y76673D02*
D03*
X679134Y96457D02*
D03*
X679134Y83071D02*
D03*
X721063Y72835D02*
D03*
X734941Y67716D02*
D03*
X679134Y64961D02*
D03*
X610630Y163921D02*
D03*
X543209Y174016D02*
D03*
X835827Y316535D02*
D03*
X835827Y255906D02*
D03*
X817163Y275197D02*
D03*
X600394Y307972D02*
D03*
X599793Y320598D02*
D03*
X600098Y326153D02*
D03*
X588583Y320374D02*
D03*
X572638Y218504D02*
D03*
X765551Y244781D02*
D03*
X248820Y343309D02*
D03*
X239369Y343309D02*
D03*
X244094Y339864D02*
D03*
X244094Y380610D02*
D03*
X248820Y377165D02*
D03*
X239369Y377165D02*
D03*
X179724Y365592D02*
D03*
X170374Y352364D02*
D03*
X727264Y192461D02*
D03*
X713583Y173622D02*
D03*
X567224Y210335D02*
D03*
X581103Y99902D02*
D03*
X556299Y83268D02*
D03*
X492618Y268898D02*
D03*
X42165Y366142D02*
D03*
X588583Y302461D02*
D03*
X576378Y320374D02*
D03*
X605315Y284941D02*
D03*
X674705Y190157D02*
D03*
X817163Y296850D02*
D03*
X493110Y321260D02*
D03*
X816966Y266535D02*
D03*
Y270866D02*
D03*
X817163Y292520D02*
D03*
X597441Y212106D02*
D03*
X713583Y151969D02*
D03*
Y126378D02*
D03*
Y121653D02*
D03*
X395276Y137303D02*
D03*
X585335Y206693D02*
D03*
X481890Y284449D02*
D03*
X713583Y147244D02*
D03*
X713583Y196850D02*
D03*
Y215354D02*
D03*
Y220079D02*
D03*
X407382Y134744D02*
D03*
X390945Y175787D02*
D03*
X395276Y141240D02*
D03*
X395669Y176575D02*
D03*
Y180610D02*
D03*
X713583Y210630D02*
D03*
X722835Y113583D02*
D03*
X713583Y116535D02*
D03*
X713583Y142126D02*
D03*
X722835Y139173D02*
D03*
X713583Y163779D02*
D03*
X722835Y160827D02*
D03*
X727264Y157185D02*
D03*
Y131595D02*
D03*
Y187461D02*
D03*
Y178839D02*
D03*
Y225295D02*
D03*
X722835Y205315D02*
D03*
X713583Y202362D02*
D03*
X582382Y177953D02*
D03*
X405905Y152657D02*
D03*
X406299Y192027D02*
D03*
X397835Y168898D02*
D03*
X397441Y129528D02*
D03*
X387008Y125394D02*
D03*
X387402Y164764D02*
D03*
X75394Y197244D02*
D03*
X58071Y203937D02*
D03*
X57677Y66142D02*
D03*
X60630Y188583D02*
D03*
Y197244D02*
D03*
X756988Y25591D02*
D03*
X343307Y279035D02*
D03*
D170*
X251476Y88976D02*
D03*
X254134Y80709D02*
D03*
X251378Y84350D02*
D03*
X254134Y91535D02*
D03*
X251476Y122441D02*
D03*
X254134Y114173D02*
D03*
X251378Y117815D02*
D03*
X254134Y125000D02*
D03*
X251476Y155905D02*
D03*
X254134Y147638D02*
D03*
X251378Y151279D02*
D03*
X254134Y158465D02*
D03*
X251476Y189370D02*
D03*
X254134Y181102D02*
D03*
X251378Y184744D02*
D03*
X254134Y191929D02*
D03*
X251476Y222835D02*
D03*
X254134Y214567D02*
D03*
X251378Y218209D02*
D03*
X254134Y225394D02*
D03*
X251476Y256299D02*
D03*
X254134Y248031D02*
D03*
X251378Y251673D02*
D03*
X254134Y258858D02*
D03*
X251476Y55512D02*
D03*
X254134Y47244D02*
D03*
X251378Y50886D02*
D03*
X254134Y58071D02*
D03*
X539370Y196260D02*
D03*
X527559D02*
D03*
X515748D02*
D03*
X550000Y141929D02*
D03*
X513779D02*
D03*
X540945D02*
D03*
X531890D02*
D03*
X522835D02*
D03*
X504724D02*
D03*
X143012Y353988D02*
D03*
X135138D02*
D03*
X158760D02*
D03*
X150787Y353939D02*
D03*
X433169Y62106D02*
D03*
X320079Y264567D02*
D03*
Y256693D02*
D03*
X327953D02*
D03*
Y264567D02*
D03*
X320079Y231102D02*
D03*
Y223228D02*
D03*
X327953D02*
D03*
Y231102D02*
D03*
X320079Y197638D02*
D03*
Y189764D02*
D03*
X327953D02*
D03*
Y197638D02*
D03*
X320079Y164173D02*
D03*
Y156299D02*
D03*
X327953D02*
D03*
Y164173D02*
D03*
X320079Y130709D02*
D03*
Y122835D02*
D03*
X327953D02*
D03*
Y130709D02*
D03*
X320079Y97244D02*
D03*
Y89370D02*
D03*
X327953D02*
D03*
Y97244D02*
D03*
X320079Y63779D02*
D03*
Y55905D02*
D03*
X327953D02*
D03*
Y63779D02*
D03*
X320079Y30315D02*
D03*
Y22441D02*
D03*
X327953D02*
D03*
Y30315D02*
D03*
X203937D02*
D03*
Y22441D02*
D03*
X211811D02*
D03*
Y30315D02*
D03*
X203937Y63779D02*
D03*
Y55905D02*
D03*
X211811D02*
D03*
Y63779D02*
D03*
X203937Y97244D02*
D03*
Y89370D02*
D03*
X211811D02*
D03*
Y97244D02*
D03*
X203937Y130709D02*
D03*
Y122835D02*
D03*
X211811D02*
D03*
Y130709D02*
D03*
X203937Y264567D02*
D03*
Y256693D02*
D03*
X211811D02*
D03*
Y264567D02*
D03*
X203937Y231102D02*
D03*
Y223228D02*
D03*
X211811D02*
D03*
Y231102D02*
D03*
X203937Y197638D02*
D03*
Y189764D02*
D03*
X211811D02*
D03*
Y197638D02*
D03*
Y164173D02*
D03*
Y156299D02*
D03*
X203937D02*
D03*
Y164173D02*
D03*
X659842Y304914D02*
D03*
X279921Y40945D02*
D03*
X254134Y24606D02*
D03*
X251378Y17421D02*
D03*
X254134Y13780D02*
D03*
X251476Y22047D02*
D03*
X163779Y74410D02*
D03*
X279921D02*
D03*
X163779Y107874D02*
D03*
X279921D02*
D03*
X163779Y141339D02*
D03*
X279921D02*
D03*
X163779Y174803D02*
D03*
X279921D02*
D03*
X163779Y208268D02*
D03*
X279921D02*
D03*
X163779Y241732D02*
D03*
X279921D02*
D03*
X163779Y275197D02*
D03*
X279921D02*
D03*
X163779Y40945D02*
D03*
D211*
X767717Y19685D02*
D03*
M02*
