G04*
G04 #@! TF.GenerationSoftware,Altium Limited,Altium Designer,24.7.2 (38)*
G04*
G04 Layer_Color=8388736*
%FSLAX25Y25*%
%MOIN*%
G70*
G04*
G04 #@! TF.SameCoordinates,7466D0F8-E9CD-42B0-AAD5-FE8217CC6D43*
G04*
G04*
G04 #@! TF.FilePolarity,Negative*
G04*
G01*
G75*
%ADD24R,0.01378X0.05315*%
%ADD75R,0.05315X0.01378*%
%ADD85R,0.03661X0.04055*%
%ADD86R,0.04055X0.03661*%
%ADD87R,0.04055X0.03858*%
%ADD88R,0.03858X0.04055*%
%ADD89R,0.07205X0.05039*%
%ADD90R,0.04055X0.06024*%
%ADD91R,0.04252X0.05630*%
%ADD92R,0.03858X0.04055*%
%ADD93R,0.03740X0.04370*%
%ADD94R,0.01693X0.03858*%
%ADD95R,0.03661X0.01693*%
%ADD96C,0.04055*%
%ADD97R,0.04055X0.03858*%
%ADD98R,0.07402X0.02480*%
%ADD99R,0.04370X0.03740*%
%ADD100R,0.07992X0.13898*%
%ADD101R,0.04252X0.02480*%
%ADD102R,0.03858X0.05630*%
%ADD103R,0.07205X0.04646*%
%ADD104R,0.04252X0.02677*%
%ADD105R,0.07992X0.04842*%
%ADD106R,0.04055X0.04055*%
%ADD107R,0.12618X0.12618*%
%ADD108R,0.15866X0.15866*%
%ADD109R,0.05630X0.04252*%
%ADD110R,0.09173X0.08583*%
%ADD111R,0.06024X0.03268*%
%ADD112R,0.06811X0.05630*%
%ADD113R,0.04646X0.06024*%
%ADD114R,0.06024X0.04646*%
%ADD115R,0.09567X0.03032*%
%ADD116R,0.02835X0.01221*%
%ADD117R,0.03268X0.02480*%
%ADD118R,0.05118X0.05118*%
%ADD119R,0.05118X0.05118*%
%ADD120R,0.03268X0.03268*%
%ADD121R,0.02480X0.06221*%
%ADD122R,0.03718X0.03718*%
%ADD123R,0.03718X0.05118*%
%ADD124R,0.09764X0.09370*%
%ADD125R,0.03661X0.02087*%
%ADD126R,0.06417X0.02480*%
%ADD127R,0.13504X0.07402*%
%ADD128O,0.01496X0.04252*%
%ADD129O,0.04252X0.01496*%
%ADD130R,0.13307X0.13307*%
%ADD131R,0.04055X0.04055*%
%ADD132R,0.06024X0.01890*%
%ADD133R,0.05039X0.07205*%
%ADD134R,0.04055X0.03465*%
%ADD135R,0.03858X0.03858*%
%ADD136R,0.08583X0.04449*%
%ADD137R,0.05630X0.04646*%
%ADD138R,0.03268X0.03268*%
%ADD139P,0.11136X4X360.0*%
%ADD140R,0.03858X0.03858*%
%ADD141R,0.06221X0.02480*%
%ADD142R,0.04449X0.02480*%
%ADD143R,0.09961X0.09961*%
%ADD144R,0.01221X0.02835*%
%ADD145R,0.05827X0.01890*%
%ADD146R,0.04055X0.02480*%
%ADD147O,0.10945X0.01299*%
%ADD148O,0.01299X0.03465*%
%ADD149R,0.03071X0.05630*%
%ADD150C,0.05630*%
%ADD151C,0.12953*%
%ADD152C,0.06102*%
%ADD153C,0.09567*%
%ADD154C,0.02874*%
%ADD155O,0.07598X0.03661*%
%ADD156C,0.06811*%
%ADD157C,0.06417*%
%ADD158C,0.22047*%
%ADD159C,0.09961*%
%ADD160R,0.06024X0.06024*%
%ADD161C,0.06024*%
%ADD162C,0.04449*%
%ADD163C,0.07205*%
%ADD164R,0.06811X0.06811*%
%ADD165C,0.19803*%
%ADD166C,0.04252*%
%ADD167C,0.10827*%
%ADD168C,0.08976*%
%ADD169C,0.02087*%
%ADD170C,0.02480*%
D24*
X656496Y206201D02*
D03*
X658465D02*
D03*
X666339D02*
D03*
X664370D02*
D03*
X662402D02*
D03*
X660433D02*
D03*
X654528D02*
D03*
X652559D02*
D03*
X650591D02*
D03*
X648622D02*
D03*
X646654D02*
D03*
X644685D02*
D03*
X642717D02*
D03*
X640748D02*
D03*
X638779D02*
D03*
X636811D02*
D03*
X634842D02*
D03*
X632874D02*
D03*
X630905D02*
D03*
X628937D02*
D03*
X626968D02*
D03*
X625000D02*
D03*
X623032D02*
D03*
X621063D02*
D03*
X619095D02*
D03*
X617126D02*
D03*
X615158D02*
D03*
X613189D02*
D03*
X611221D02*
D03*
X609252D02*
D03*
X607283D02*
D03*
X605315D02*
D03*
X603346D02*
D03*
X601378D02*
D03*
X597441D02*
D03*
X599409Y289862D02*
D03*
X601378D02*
D03*
X603346D02*
D03*
X605315D02*
D03*
X607283D02*
D03*
X609252D02*
D03*
X611221D02*
D03*
X613189D02*
D03*
X617126D02*
D03*
X619095D02*
D03*
X621063D02*
D03*
X623032D02*
D03*
X625000D02*
D03*
X626968D02*
D03*
X628937D02*
D03*
X630905D02*
D03*
X632874D02*
D03*
X634842D02*
D03*
X636811D02*
D03*
X638779D02*
D03*
X640748D02*
D03*
X642717D02*
D03*
X644685D02*
D03*
X646654D02*
D03*
X648622D02*
D03*
X650591D02*
D03*
X652559D02*
D03*
X654528D02*
D03*
X656496D02*
D03*
X658465D02*
D03*
X660433D02*
D03*
X662402D02*
D03*
X664370D02*
D03*
X666339D02*
D03*
X615158D02*
D03*
X597441D02*
D03*
X599409Y206201D02*
D03*
D75*
X673721Y219488D02*
D03*
Y282480D02*
D03*
Y280512D02*
D03*
Y278543D02*
D03*
Y276575D02*
D03*
Y274606D02*
D03*
Y272638D02*
D03*
Y270669D02*
D03*
Y268701D02*
D03*
Y266732D02*
D03*
Y264764D02*
D03*
Y262795D02*
D03*
Y260827D02*
D03*
Y258858D02*
D03*
Y256890D02*
D03*
Y254921D02*
D03*
Y249016D02*
D03*
Y245079D02*
D03*
Y243110D02*
D03*
Y241142D02*
D03*
Y239173D02*
D03*
Y237205D02*
D03*
Y235236D02*
D03*
Y233268D02*
D03*
Y231299D02*
D03*
Y229331D02*
D03*
Y227362D02*
D03*
Y225394D02*
D03*
Y223425D02*
D03*
Y221457D02*
D03*
Y217520D02*
D03*
Y215551D02*
D03*
Y213583D02*
D03*
X590059D02*
D03*
Y215551D02*
D03*
Y217520D02*
D03*
Y219488D02*
D03*
Y221457D02*
D03*
Y223425D02*
D03*
Y225394D02*
D03*
Y227362D02*
D03*
Y229331D02*
D03*
Y231299D02*
D03*
Y233268D02*
D03*
Y235236D02*
D03*
Y237205D02*
D03*
Y239173D02*
D03*
Y241142D02*
D03*
Y243110D02*
D03*
Y245079D02*
D03*
Y247047D02*
D03*
Y249016D02*
D03*
Y250984D02*
D03*
Y252953D02*
D03*
Y254921D02*
D03*
Y256890D02*
D03*
Y258858D02*
D03*
Y260827D02*
D03*
Y262795D02*
D03*
Y264764D02*
D03*
Y270669D02*
D03*
Y272638D02*
D03*
Y274606D02*
D03*
Y276575D02*
D03*
Y278543D02*
D03*
Y280512D02*
D03*
Y282480D02*
D03*
X673721Y252953D02*
D03*
X590059Y268701D02*
D03*
Y266732D02*
D03*
X673721Y247047D02*
D03*
Y250984D02*
D03*
D85*
X773622Y272047D02*
D03*
X767323D02*
D03*
X773622Y294094D02*
D03*
X767323D02*
D03*
X816929Y201575D02*
D03*
X816929Y207087D02*
D03*
Y231890D02*
D03*
Y237402D02*
D03*
X39370Y269685D02*
D03*
X33071D02*
D03*
X20472Y290551D02*
D03*
X14173D02*
D03*
X471260Y316929D02*
D03*
X464961D02*
D03*
X623622Y79921D02*
D03*
X629921D02*
D03*
X47638Y274410D02*
D03*
X53937D02*
D03*
X87795Y279528D02*
D03*
X81496D02*
D03*
X464961Y297244D02*
D03*
X471260D02*
D03*
Y291732D02*
D03*
X464961D02*
D03*
X55905Y377165D02*
D03*
X62205D02*
D03*
X250000Y323623D02*
D03*
X243701D02*
D03*
X810630Y201575D02*
D03*
X810630Y207087D02*
D03*
X433268Y315354D02*
D03*
X439567D02*
D03*
X433268Y309842D02*
D03*
X439567D02*
D03*
X433268Y304331D02*
D03*
X439567D02*
D03*
X433268Y298819D02*
D03*
X439567D02*
D03*
X464961Y310236D02*
D03*
X471260D02*
D03*
X464961Y303937D02*
D03*
X471260D02*
D03*
X76378Y274016D02*
D03*
X70079D02*
D03*
Y279528D02*
D03*
X76378D02*
D03*
X710630Y225590D02*
D03*
X704331D02*
D03*
X600394Y311417D02*
D03*
X606693D02*
D03*
X716535Y173622D02*
D03*
X722835D02*
D03*
X704331D02*
D03*
X710630D02*
D03*
X438878Y62106D02*
D03*
X445177D02*
D03*
X421161D02*
D03*
X427461D02*
D03*
X542520Y220472D02*
D03*
X536221D02*
D03*
X816929Y172047D02*
D03*
Y177559D02*
D03*
X810630Y172047D02*
D03*
Y177559D02*
D03*
Y142126D02*
D03*
Y147638D02*
D03*
Y231890D02*
D03*
Y237402D02*
D03*
X518898Y288583D02*
D03*
X512598D02*
D03*
X704375Y121653D02*
D03*
X710674D02*
D03*
X704331Y151969D02*
D03*
X710630D02*
D03*
X704331Y147244D02*
D03*
X710630D02*
D03*
X766929Y25591D02*
D03*
X760630D02*
D03*
X423425Y189170D02*
D03*
X417126D02*
D03*
Y150000D02*
D03*
X423425D02*
D03*
Y179134D02*
D03*
X417126D02*
D03*
X423425Y184252D02*
D03*
X417126D02*
D03*
Y144882D02*
D03*
X423425D02*
D03*
X417126Y139764D02*
D03*
X423425D02*
D03*
X177953Y26772D02*
D03*
X184252D02*
D03*
X294094Y127165D02*
D03*
X300394D02*
D03*
X177953Y160630D02*
D03*
X184252D02*
D03*
X300394D02*
D03*
X294094D02*
D03*
X184252Y194095D02*
D03*
X177953D02*
D03*
X300394D02*
D03*
X294094D02*
D03*
X184252Y227559D02*
D03*
X177953D02*
D03*
X300394D02*
D03*
X294094D02*
D03*
X184252Y261024D02*
D03*
X177953D02*
D03*
X300394D02*
D03*
X294094D02*
D03*
X690158Y270472D02*
D03*
X683858D02*
D03*
X63779Y197244D02*
D03*
X70079D02*
D03*
X512598Y327165D02*
D03*
X518898D02*
D03*
X63779Y188583D02*
D03*
X70079D02*
D03*
X722835Y151969D02*
D03*
X716535D02*
D03*
X722835Y121653D02*
D03*
X716535D02*
D03*
X594882Y305906D02*
D03*
X588583D02*
D03*
X722835Y215354D02*
D03*
X716535D02*
D03*
X722835Y147244D02*
D03*
X716535D02*
D03*
X722835Y126378D02*
D03*
X716535D02*
D03*
X722835Y196850D02*
D03*
X716535D02*
D03*
X722835Y220079D02*
D03*
X716535D02*
D03*
X41732Y378346D02*
D03*
X35433D02*
D03*
X37402Y28740D02*
D03*
X43701D02*
D03*
X56299Y224016D02*
D03*
X50000D02*
D03*
X56299Y218504D02*
D03*
X50000D02*
D03*
Y229528D02*
D03*
X56299D02*
D03*
Y235039D02*
D03*
X50000D02*
D03*
X56299Y240158D02*
D03*
X50000D02*
D03*
X56299Y245669D02*
D03*
X50000D02*
D03*
X56299Y251181D02*
D03*
X50000D02*
D03*
X56299Y256693D02*
D03*
X50000D02*
D03*
X711417Y67716D02*
D03*
X717717D02*
D03*
Y72835D02*
D03*
X711417D02*
D03*
X512598Y311024D02*
D03*
X518898D02*
D03*
X512598Y322047D02*
D03*
X518898D02*
D03*
X512598Y316535D02*
D03*
X518898D02*
D03*
X512598Y283071D02*
D03*
X518898D02*
D03*
X512598Y294094D02*
D03*
X518898D02*
D03*
X512598Y299606D02*
D03*
X518898D02*
D03*
X573622Y262598D02*
D03*
X579921D02*
D03*
X816929Y192520D02*
D03*
X810630D02*
D03*
X816929Y187008D02*
D03*
X810630D02*
D03*
X767323Y305118D02*
D03*
X773622D02*
D03*
X767323Y266535D02*
D03*
X773622D02*
D03*
X767323Y299606D02*
D03*
X773622D02*
D03*
X767323Y277559D02*
D03*
X773622D02*
D03*
X767323Y288583D02*
D03*
X773622D02*
D03*
X184252Y127165D02*
D03*
X177953D02*
D03*
X300394Y93701D02*
D03*
X294094D02*
D03*
X184252D02*
D03*
X177953D02*
D03*
X294094Y60236D02*
D03*
X300394D02*
D03*
X184252D02*
D03*
X177953D02*
D03*
X300394Y26772D02*
D03*
X294094D02*
D03*
X683858Y264961D02*
D03*
X690158D02*
D03*
X48031Y66142D02*
D03*
X54331D02*
D03*
X816929Y142126D02*
D03*
X710630Y126378D02*
D03*
X704331D02*
D03*
Y215354D02*
D03*
X710630D02*
D03*
X704331Y220079D02*
D03*
X710630D02*
D03*
Y196850D02*
D03*
X704331D02*
D03*
X810630Y216929D02*
D03*
X816929D02*
D03*
X810630Y222441D02*
D03*
X816929D02*
D03*
X810630Y129921D02*
D03*
X816929D02*
D03*
X810630Y135039D02*
D03*
X816929D02*
D03*
Y147638D02*
D03*
X810630Y157087D02*
D03*
X816929D02*
D03*
X810630Y162205D02*
D03*
X816929D02*
D03*
D86*
X637008Y114961D02*
D03*
Y121260D02*
D03*
X502756Y332283D02*
D03*
Y325984D02*
D03*
X497244D02*
D03*
Y332283D02*
D03*
X491732D02*
D03*
Y325984D02*
D03*
X165354Y340946D02*
D03*
Y347246D02*
D03*
Y358663D02*
D03*
Y352364D02*
D03*
X170866Y364962D02*
D03*
Y358663D02*
D03*
X768898Y225984D02*
D03*
Y219685D02*
D03*
Y132283D02*
D03*
Y125984D02*
D03*
Y157874D02*
D03*
Y151575D02*
D03*
X513779Y152362D02*
D03*
Y146063D02*
D03*
X531890D02*
D03*
Y152362D02*
D03*
X522835D02*
D03*
Y146063D02*
D03*
X504724D02*
D03*
Y152362D02*
D03*
X540945D02*
D03*
Y146063D02*
D03*
X527559Y192126D02*
D03*
Y185827D02*
D03*
X539370D02*
D03*
Y192126D02*
D03*
X515748Y180315D02*
D03*
Y174016D02*
D03*
Y192126D02*
D03*
Y185827D02*
D03*
X527559Y180315D02*
D03*
Y174016D02*
D03*
X539370D02*
D03*
Y180315D02*
D03*
X690945Y284646D02*
D03*
Y278346D02*
D03*
X669685Y318110D02*
D03*
Y311811D02*
D03*
X178347Y22047D02*
D03*
Y15748D02*
D03*
Y49213D02*
D03*
Y55512D02*
D03*
X294488D02*
D03*
Y49213D02*
D03*
X178347Y88976D02*
D03*
Y82677D02*
D03*
X189370Y68110D02*
D03*
Y74410D02*
D03*
X294488Y88976D02*
D03*
Y82677D02*
D03*
X178347Y122441D02*
D03*
Y116142D02*
D03*
X294488Y122441D02*
D03*
Y116142D02*
D03*
X178347Y155905D02*
D03*
Y149606D02*
D03*
X294488D02*
D03*
Y155905D02*
D03*
X178347Y183071D02*
D03*
Y189370D02*
D03*
X294488Y183071D02*
D03*
Y189370D02*
D03*
X178347Y216535D02*
D03*
Y222835D02*
D03*
X294488Y216535D02*
D03*
Y222835D02*
D03*
X178347Y250000D02*
D03*
Y256299D02*
D03*
X294488Y250000D02*
D03*
Y256299D02*
D03*
X189370Y34646D02*
D03*
Y40945D02*
D03*
X761024Y122047D02*
D03*
Y115748D02*
D03*
Y179291D02*
D03*
Y172992D02*
D03*
X761024Y147638D02*
D03*
Y141339D02*
D03*
X761024Y215748D02*
D03*
Y209449D02*
D03*
X475591Y270866D02*
D03*
Y277165D02*
D03*
X597244Y177953D02*
D03*
Y184252D02*
D03*
X602362Y177953D02*
D03*
Y184252D02*
D03*
X592126Y177953D02*
D03*
Y184252D02*
D03*
X587008Y177953D02*
D03*
Y184252D02*
D03*
X470276Y277264D02*
D03*
Y270965D02*
D03*
X464961Y270866D02*
D03*
Y277165D02*
D03*
X305512Y208268D02*
D03*
Y201969D02*
D03*
Y241732D02*
D03*
Y235433D02*
D03*
X183858Y168504D02*
D03*
Y174803D02*
D03*
X189370Y168504D02*
D03*
Y174803D02*
D03*
X183858Y208268D02*
D03*
Y201969D02*
D03*
X189370Y208268D02*
D03*
Y201969D02*
D03*
X300000Y174803D02*
D03*
Y168504D02*
D03*
Y208268D02*
D03*
Y201969D02*
D03*
X189370Y241732D02*
D03*
Y235433D02*
D03*
X300000Y241732D02*
D03*
Y235433D02*
D03*
X189370Y275197D02*
D03*
Y268898D02*
D03*
X300000Y275197D02*
D03*
Y268898D02*
D03*
X183858Y241732D02*
D03*
Y235433D02*
D03*
Y275197D02*
D03*
Y268898D02*
D03*
X305512Y275197D02*
D03*
Y268898D02*
D03*
Y174803D02*
D03*
Y168504D02*
D03*
X555906Y70867D02*
D03*
Y77166D02*
D03*
X294488Y22047D02*
D03*
Y15748D02*
D03*
X183858Y34646D02*
D03*
Y40945D02*
D03*
X546457Y113386D02*
D03*
Y107087D02*
D03*
X552362Y113386D02*
D03*
Y107087D02*
D03*
X189370Y101575D02*
D03*
Y107874D02*
D03*
X183858Y101575D02*
D03*
Y107874D02*
D03*
X305512Y40945D02*
D03*
Y34646D02*
D03*
X300000Y40945D02*
D03*
Y34646D02*
D03*
X183858Y74410D02*
D03*
Y68110D02*
D03*
X189370Y135039D02*
D03*
Y141339D02*
D03*
X183858Y135039D02*
D03*
Y141339D02*
D03*
X305512Y101575D02*
D03*
Y107874D02*
D03*
X300000Y101575D02*
D03*
Y107874D02*
D03*
X305512Y135039D02*
D03*
Y141339D02*
D03*
X300000Y135039D02*
D03*
Y141339D02*
D03*
Y68110D02*
D03*
Y74410D02*
D03*
X305512Y68110D02*
D03*
Y74410D02*
D03*
D87*
X642913Y114961D02*
D03*
Y121260D02*
D03*
X648425D02*
D03*
Y114961D02*
D03*
X486221Y325984D02*
D03*
Y332283D02*
D03*
X455512Y325984D02*
D03*
Y332283D02*
D03*
X63386Y285433D02*
D03*
Y279134D02*
D03*
X510201Y174016D02*
D03*
Y180315D02*
D03*
X521654Y174016D02*
D03*
Y180315D02*
D03*
X533464D02*
D03*
Y174016D02*
D03*
X591339Y101575D02*
D03*
Y95276D02*
D03*
X618110D02*
D03*
Y101575D02*
D03*
X714173Y318898D02*
D03*
Y312598D02*
D03*
X679921Y278346D02*
D03*
Y284646D02*
D03*
X583465Y282677D02*
D03*
Y276378D02*
D03*
X223622Y28248D02*
D03*
Y21949D02*
D03*
X339764Y55413D02*
D03*
Y61713D02*
D03*
X223622Y95177D02*
D03*
Y88878D02*
D03*
X339764Y95177D02*
D03*
Y88878D02*
D03*
X223622Y128642D02*
D03*
Y122343D02*
D03*
X339764Y128642D02*
D03*
Y122343D02*
D03*
X223622Y162106D02*
D03*
Y155807D02*
D03*
X339764D02*
D03*
Y162106D02*
D03*
X223622Y189272D02*
D03*
Y195571D02*
D03*
X339764Y189272D02*
D03*
Y195571D02*
D03*
X223622Y222736D02*
D03*
Y229035D02*
D03*
Y34646D02*
D03*
Y40945D02*
D03*
X339764Y241732D02*
D03*
Y235433D02*
D03*
Y222736D02*
D03*
Y229035D02*
D03*
X300000Y22047D02*
D03*
Y15748D02*
D03*
X223622Y275197D02*
D03*
Y268898D02*
D03*
Y256201D02*
D03*
Y262500D02*
D03*
X339764Y275197D02*
D03*
Y268898D02*
D03*
Y256201D02*
D03*
Y262500D02*
D03*
X223622Y168504D02*
D03*
Y174803D02*
D03*
X496850Y280709D02*
D03*
Y274409D02*
D03*
X659842Y309842D02*
D03*
Y316142D02*
D03*
X679134Y86614D02*
D03*
Y92913D02*
D03*
X502362Y280709D02*
D03*
Y274409D02*
D03*
X583465Y257087D02*
D03*
Y250787D02*
D03*
X679921Y239370D02*
D03*
Y233071D02*
D03*
Y252756D02*
D03*
Y259055D02*
D03*
X582677Y237402D02*
D03*
Y231102D02*
D03*
X581890Y206693D02*
D03*
Y212992D02*
D03*
X679134Y74803D02*
D03*
Y68504D02*
D03*
X617717Y308268D02*
D03*
Y301969D02*
D03*
X626378Y308268D02*
D03*
Y301969D02*
D03*
X507874Y274409D02*
D03*
Y280709D02*
D03*
X339764Y201969D02*
D03*
Y208268D02*
D03*
X183858Y149606D02*
D03*
Y155905D02*
D03*
X300000D02*
D03*
Y149606D02*
D03*
X183858Y189370D02*
D03*
Y183071D02*
D03*
Y222835D02*
D03*
Y216535D02*
D03*
X300000Y189370D02*
D03*
Y183071D02*
D03*
X223622Y201969D02*
D03*
Y208268D02*
D03*
X300000Y222835D02*
D03*
Y216535D02*
D03*
X223622Y235433D02*
D03*
Y241732D02*
D03*
X300000Y256299D02*
D03*
Y250000D02*
D03*
X183858Y256299D02*
D03*
Y250000D02*
D03*
X339764Y168504D02*
D03*
Y174803D02*
D03*
Y141339D02*
D03*
Y135039D02*
D03*
X223622Y141339D02*
D03*
Y135039D02*
D03*
X339764Y107874D02*
D03*
Y101575D02*
D03*
X223622Y107874D02*
D03*
Y101575D02*
D03*
X339764Y68110D02*
D03*
Y74410D02*
D03*
X223622D02*
D03*
Y68110D02*
D03*
X339764Y40945D02*
D03*
Y34646D02*
D03*
X183858Y15748D02*
D03*
Y22047D02*
D03*
X223622Y55413D02*
D03*
Y61713D02*
D03*
X339764Y21949D02*
D03*
Y28248D02*
D03*
X300000Y116142D02*
D03*
Y122441D02*
D03*
X183858Y116142D02*
D03*
Y122441D02*
D03*
X300000Y82677D02*
D03*
Y88976D02*
D03*
X183858Y82677D02*
D03*
Y88976D02*
D03*
X300000Y55512D02*
D03*
Y49213D02*
D03*
X183858D02*
D03*
Y55512D02*
D03*
X654331Y309842D02*
D03*
Y316142D02*
D03*
X567717Y113386D02*
D03*
Y107087D02*
D03*
X561811Y113386D02*
D03*
Y107087D02*
D03*
X546063Y70867D02*
D03*
Y77166D02*
D03*
X540945Y92126D02*
D03*
Y85827D02*
D03*
X648819Y309842D02*
D03*
Y316142D02*
D03*
D88*
X637402Y79921D02*
D03*
X643701D02*
D03*
X81496Y268504D02*
D03*
X87795D02*
D03*
X464862Y286221D02*
D03*
X471161D02*
D03*
X76673Y319291D02*
D03*
X82972D02*
D03*
X453543Y319390D02*
D03*
X447244D02*
D03*
X611417Y300394D02*
D03*
X605118D02*
D03*
X773622Y283071D02*
D03*
X767323D02*
D03*
X393701Y168898D02*
D03*
X387402D02*
D03*
X393307Y129528D02*
D03*
X387008D02*
D03*
X662205Y199606D02*
D03*
X668504D02*
D03*
X483071Y268898D02*
D03*
X489370D02*
D03*
X614961Y193307D02*
D03*
X621260D02*
D03*
X636614Y199213D02*
D03*
X642913D02*
D03*
X638976Y298425D02*
D03*
X632677D02*
D03*
X716535Y202362D02*
D03*
X722835D02*
D03*
Y142126D02*
D03*
X716535D02*
D03*
X722835Y210630D02*
D03*
X716535D02*
D03*
X722835Y163779D02*
D03*
X716535D02*
D03*
X722835Y116535D02*
D03*
X716535D02*
D03*
X594882Y311417D02*
D03*
X588583D02*
D03*
X582677D02*
D03*
X576378D02*
D03*
X594882Y316929D02*
D03*
X588583D02*
D03*
X582677Y305906D02*
D03*
X576378D02*
D03*
X518898Y305118D02*
D03*
X512598D02*
D03*
X636024Y18209D02*
D03*
X642323D02*
D03*
D89*
X646457Y71751D02*
D03*
X636221D02*
D03*
X473228Y329134D02*
D03*
X462992D02*
D03*
X609449Y117717D02*
D03*
X599213D02*
D03*
Y77559D02*
D03*
X609449D02*
D03*
D90*
X77559Y292126D02*
D03*
X68898D02*
D03*
D91*
X47244Y285433D02*
D03*
X54331D02*
D03*
X55512Y363779D02*
D03*
X62598D02*
D03*
Y370866D02*
D03*
X55512D02*
D03*
X42126Y371654D02*
D03*
X35039Y371654D02*
D03*
X37008Y21654D02*
D03*
X44094D02*
D03*
X47638Y203937D02*
D03*
X54724D02*
D03*
D92*
X53937Y279528D02*
D03*
X47638D02*
D03*
X87795Y262205D02*
D03*
X81496D02*
D03*
X582677Y316929D02*
D03*
X576378D02*
D03*
D93*
X98425Y292126D02*
D03*
X85827D02*
D03*
X813780Y368110D02*
D03*
X801181D02*
D03*
X749213Y89370D02*
D03*
X736614D02*
D03*
X472441Y97244D02*
D03*
X485039D02*
D03*
X767717Y17717D02*
D03*
X755118D02*
D03*
X736614Y78347D02*
D03*
X749213D02*
D03*
D94*
X65945Y262008D02*
D03*
Y270669D02*
D03*
X60827D02*
D03*
X63386Y270669D02*
D03*
Y262008D02*
D03*
X60827Y262008D02*
D03*
X448228Y311319D02*
D03*
X450787D02*
D03*
X453346D02*
D03*
Y302658D02*
D03*
X450787D02*
D03*
X448228D02*
D03*
X725394Y244488D02*
D03*
X722835D02*
D03*
X720276D02*
D03*
Y253150D02*
D03*
X722835D02*
D03*
X725394D02*
D03*
X53740Y188583D02*
D03*
X51181D02*
D03*
X48622D02*
D03*
Y197244D02*
D03*
X51181D02*
D03*
X53740D02*
D03*
X760039Y100394D02*
D03*
X757480D02*
D03*
X754921D02*
D03*
Y109055D02*
D03*
X757480D02*
D03*
X760039D02*
D03*
D95*
X56496Y267913D02*
D03*
Y264764D02*
D03*
X49803Y267913D02*
D03*
Y264764D02*
D03*
D96*
X512598Y332677D02*
D03*
X507480D02*
D03*
X57087Y197244D02*
D03*
Y188583D02*
D03*
D97*
X480709Y325984D02*
D03*
Y332283D02*
D03*
X236221Y40945D02*
D03*
Y34646D02*
D03*
X352362Y275197D02*
D03*
Y268898D02*
D03*
X236221Y168504D02*
D03*
Y174803D02*
D03*
X352362Y201969D02*
D03*
Y208268D02*
D03*
Y168504D02*
D03*
Y174803D02*
D03*
Y235433D02*
D03*
Y241732D02*
D03*
X236221Y201969D02*
D03*
Y208268D02*
D03*
Y235433D02*
D03*
Y241732D02*
D03*
Y268898D02*
D03*
Y275197D02*
D03*
Y107874D02*
D03*
Y101575D02*
D03*
X352362Y40945D02*
D03*
Y34646D02*
D03*
X236221Y74410D02*
D03*
Y68110D02*
D03*
Y141339D02*
D03*
Y135039D02*
D03*
X352362Y107874D02*
D03*
Y101575D02*
D03*
Y141339D02*
D03*
Y135039D02*
D03*
Y68110D02*
D03*
Y74410D02*
D03*
D98*
X210039Y323486D02*
D03*
Y328486D02*
D03*
X234842D02*
D03*
Y323486D02*
D03*
X502559Y220610D02*
D03*
Y215610D02*
D03*
X527362D02*
D03*
Y220610D02*
D03*
D99*
X158661Y371261D02*
D03*
Y358663D02*
D03*
X150787Y371261D02*
D03*
Y358663D02*
D03*
X142913Y371261D02*
D03*
Y358663D02*
D03*
X135039Y371261D02*
D03*
Y358663D02*
D03*
Y349214D02*
D03*
Y336616D02*
D03*
X142913D02*
D03*
Y349214D02*
D03*
X150787D02*
D03*
Y336616D02*
D03*
X158661Y349214D02*
D03*
Y336616D02*
D03*
D100*
X186614Y341734D02*
D03*
X174016D02*
D03*
D101*
X184843Y361812D02*
D03*
X175787Y358072D02*
D03*
Y365553D02*
D03*
D102*
X184252Y371261D02*
D03*
X176378D02*
D03*
D103*
X192520Y366143D02*
D03*
Y354332D02*
D03*
X244094Y355120D02*
D03*
Y343309D02*
D03*
X244094Y365354D02*
D03*
Y377165D02*
D03*
D104*
X251378Y328545D02*
D03*
Y336025D02*
D03*
X242323Y332285D02*
D03*
D105*
X231299Y355238D02*
D03*
X201772D02*
D03*
X231299Y365238D02*
D03*
X201772D02*
D03*
D106*
X626378Y313976D02*
D03*
X617717D02*
D03*
Y320669D02*
D03*
X626378D02*
D03*
D107*
X710345Y350394D02*
D03*
X772333D02*
D03*
D108*
X741339D02*
D03*
D109*
X756283Y284826D02*
D03*
Y277740D02*
D03*
X532678Y92520D02*
D03*
Y85433D02*
D03*
X574803Y114567D02*
D03*
Y107481D02*
D03*
D110*
X839961Y368110D02*
D03*
X823032D02*
D03*
D111*
X824409Y296850D02*
D03*
Y292520D02*
D03*
Y288189D02*
D03*
Y283858D02*
D03*
Y279527D02*
D03*
Y275197D02*
D03*
Y270866D02*
D03*
Y266535D02*
D03*
D112*
X835827Y311614D02*
D03*
Y260827D02*
D03*
D113*
X778839Y297638D02*
D03*
Y288583D02*
D03*
Y262598D02*
D03*
D114*
X797441Y260335D02*
D03*
D115*
X711221Y258819D02*
D03*
Y253819D02*
D03*
Y248819D02*
D03*
Y243819D02*
D03*
Y238819D02*
D03*
X695866Y258819D02*
D03*
Y253819D02*
D03*
Y248819D02*
D03*
Y243819D02*
D03*
Y238819D02*
D03*
D116*
X484646Y304134D02*
D03*
Y306102D02*
D03*
Y310039D02*
D03*
Y308071D02*
D03*
Y302165D02*
D03*
Y312008D02*
D03*
X499606D02*
D03*
Y310039D02*
D03*
Y308071D02*
D03*
Y306102D02*
D03*
Y304134D02*
D03*
Y302165D02*
D03*
D117*
X611417Y310827D02*
D03*
Y317520D02*
D03*
D118*
X513779Y137795D02*
D03*
X531890D02*
D03*
X504724D02*
D03*
X550000D02*
D03*
D119*
X540945D02*
D03*
X522835D02*
D03*
X708661Y97244D02*
D03*
Y82677D02*
D03*
D120*
X504724Y164272D02*
D03*
Y157776D02*
D03*
X531890D02*
D03*
Y164272D02*
D03*
X540945D02*
D03*
Y157776D02*
D03*
X522835Y164272D02*
D03*
Y157776D02*
D03*
X513779D02*
D03*
Y164272D02*
D03*
D121*
X596831Y87795D02*
D03*
X601831D02*
D03*
X606831D02*
D03*
X611831D02*
D03*
X596831Y109055D02*
D03*
X601831D02*
D03*
X606831D02*
D03*
X611831D02*
D03*
X632264Y87795D02*
D03*
X637264D02*
D03*
X642264D02*
D03*
X647264D02*
D03*
X632264Y109055D02*
D03*
X637264D02*
D03*
X642264D02*
D03*
X647264D02*
D03*
D122*
X607293Y317154D02*
D03*
X599793D02*
D03*
D123*
X603543Y326153D02*
D03*
D124*
X423917Y49508D02*
D03*
Y25098D02*
D03*
X443209Y49508D02*
D03*
Y25098D02*
D03*
D125*
X447146Y68405D02*
D03*
X436909D02*
D03*
D126*
X705512Y318130D02*
D03*
Y313130D02*
D03*
Y308130D02*
D03*
Y303130D02*
D03*
X677165D02*
D03*
Y308130D02*
D03*
Y313130D02*
D03*
Y318130D02*
D03*
D127*
X573229Y78052D02*
D03*
Y99902D02*
D03*
D128*
X212992Y169488D02*
D03*
X210433D02*
D03*
X207874D02*
D03*
X205315D02*
D03*
X202756D02*
D03*
Y150984D02*
D03*
X205315D02*
D03*
X207874D02*
D03*
X210433D02*
D03*
X212992D02*
D03*
X329134Y17126D02*
D03*
X326575D02*
D03*
X324016D02*
D03*
X321457D02*
D03*
X318898D02*
D03*
Y35630D02*
D03*
X321457D02*
D03*
X324016D02*
D03*
X326575D02*
D03*
X329134D02*
D03*
Y236417D02*
D03*
X326575D02*
D03*
X324016D02*
D03*
X321457D02*
D03*
X318898D02*
D03*
Y217913D02*
D03*
X321457D02*
D03*
X324016D02*
D03*
X326575D02*
D03*
X329134D02*
D03*
Y202953D02*
D03*
X326575D02*
D03*
X324016D02*
D03*
X321457D02*
D03*
X318898D02*
D03*
Y184449D02*
D03*
X321457D02*
D03*
X324016D02*
D03*
X326575D02*
D03*
X329134D02*
D03*
Y169488D02*
D03*
X326575D02*
D03*
X324016D02*
D03*
X321457D02*
D03*
X318898D02*
D03*
Y150984D02*
D03*
X321457D02*
D03*
X324016D02*
D03*
X326575D02*
D03*
X329134D02*
D03*
Y269882D02*
D03*
X326575D02*
D03*
X324016D02*
D03*
X321457D02*
D03*
X318898D02*
D03*
Y251378D02*
D03*
X321457D02*
D03*
X324016D02*
D03*
X326575D02*
D03*
X329134D02*
D03*
X212992Y236417D02*
D03*
X210433D02*
D03*
X207874D02*
D03*
X205315D02*
D03*
X202756D02*
D03*
Y217913D02*
D03*
X205315D02*
D03*
X207874D02*
D03*
X210433D02*
D03*
X212992D02*
D03*
Y202953D02*
D03*
X210433D02*
D03*
X207874D02*
D03*
X205315D02*
D03*
X202756D02*
D03*
Y184449D02*
D03*
X205315D02*
D03*
X207874D02*
D03*
X210433D02*
D03*
X212992D02*
D03*
Y269882D02*
D03*
X210433D02*
D03*
X207874D02*
D03*
X205315D02*
D03*
X202756D02*
D03*
Y251378D02*
D03*
X205315D02*
D03*
X207874D02*
D03*
X210433D02*
D03*
X212992D02*
D03*
X329134Y117520D02*
D03*
X326575D02*
D03*
X324016D02*
D03*
X321457D02*
D03*
X318898D02*
D03*
Y136024D02*
D03*
X321457D02*
D03*
X324016D02*
D03*
X326575D02*
D03*
X329134D02*
D03*
X212992Y117520D02*
D03*
X210433D02*
D03*
X207874D02*
D03*
X205315D02*
D03*
X202756D02*
D03*
Y136024D02*
D03*
X205315D02*
D03*
X207874D02*
D03*
X210433D02*
D03*
X212992D02*
D03*
X329134Y84055D02*
D03*
X326575D02*
D03*
X324016D02*
D03*
X321457D02*
D03*
X318898D02*
D03*
Y102559D02*
D03*
X321457D02*
D03*
X324016D02*
D03*
X326575D02*
D03*
X329134D02*
D03*
X212992Y84055D02*
D03*
X210433D02*
D03*
X207874D02*
D03*
X205315D02*
D03*
X202756D02*
D03*
Y102559D02*
D03*
X205315D02*
D03*
X207874D02*
D03*
X210433D02*
D03*
X212992D02*
D03*
X329134Y69095D02*
D03*
X326575D02*
D03*
X324016D02*
D03*
X321457D02*
D03*
X318898D02*
D03*
Y50591D02*
D03*
X321457D02*
D03*
X324016D02*
D03*
X326575D02*
D03*
X329134D02*
D03*
X212992D02*
D03*
X210433D02*
D03*
X207874D02*
D03*
X205315D02*
D03*
X202756D02*
D03*
Y69095D02*
D03*
X205315D02*
D03*
X207874D02*
D03*
X210433D02*
D03*
X212992D02*
D03*
Y17126D02*
D03*
X210433D02*
D03*
X207874D02*
D03*
X205315D02*
D03*
X202756D02*
D03*
Y35630D02*
D03*
X205315D02*
D03*
X207874D02*
D03*
X210433D02*
D03*
X212992D02*
D03*
D129*
X198622Y165354D02*
D03*
Y162795D02*
D03*
Y160236D02*
D03*
Y157677D02*
D03*
Y155118D02*
D03*
X217126D02*
D03*
Y157677D02*
D03*
Y160236D02*
D03*
Y162795D02*
D03*
Y165354D02*
D03*
X333268Y31496D02*
D03*
Y28937D02*
D03*
Y26378D02*
D03*
Y23819D02*
D03*
Y21260D02*
D03*
X314764D02*
D03*
Y23819D02*
D03*
Y26378D02*
D03*
Y28937D02*
D03*
Y31496D02*
D03*
Y232283D02*
D03*
Y229724D02*
D03*
Y227165D02*
D03*
Y224606D02*
D03*
Y222047D02*
D03*
X333268D02*
D03*
Y224606D02*
D03*
Y227165D02*
D03*
Y229724D02*
D03*
Y232283D02*
D03*
X314764Y198819D02*
D03*
Y196260D02*
D03*
Y193701D02*
D03*
Y191142D02*
D03*
Y188583D02*
D03*
X333268D02*
D03*
Y191142D02*
D03*
Y193701D02*
D03*
Y196260D02*
D03*
Y198819D02*
D03*
X314764Y165354D02*
D03*
Y162795D02*
D03*
Y160236D02*
D03*
Y157677D02*
D03*
Y155118D02*
D03*
X333268D02*
D03*
Y157677D02*
D03*
Y160236D02*
D03*
Y162795D02*
D03*
Y165354D02*
D03*
X314764Y265748D02*
D03*
Y263189D02*
D03*
Y260630D02*
D03*
Y258071D02*
D03*
Y255512D02*
D03*
X333268D02*
D03*
Y258071D02*
D03*
Y260630D02*
D03*
Y263189D02*
D03*
Y265748D02*
D03*
X198622Y232283D02*
D03*
Y229724D02*
D03*
Y227165D02*
D03*
Y224606D02*
D03*
Y222047D02*
D03*
X217126D02*
D03*
Y224606D02*
D03*
Y227165D02*
D03*
Y229724D02*
D03*
Y232283D02*
D03*
X198622Y198819D02*
D03*
Y196260D02*
D03*
Y193701D02*
D03*
Y191142D02*
D03*
Y188583D02*
D03*
X217126D02*
D03*
Y191142D02*
D03*
Y193701D02*
D03*
Y196260D02*
D03*
Y198819D02*
D03*
X198622Y265748D02*
D03*
Y263189D02*
D03*
Y260630D02*
D03*
Y258071D02*
D03*
Y255512D02*
D03*
X217126D02*
D03*
Y258071D02*
D03*
Y260630D02*
D03*
Y263189D02*
D03*
Y265748D02*
D03*
X333268Y131890D02*
D03*
Y129331D02*
D03*
Y126772D02*
D03*
Y124213D02*
D03*
Y121654D02*
D03*
X314764D02*
D03*
Y124213D02*
D03*
Y126772D02*
D03*
Y129331D02*
D03*
Y131890D02*
D03*
X217126D02*
D03*
Y129331D02*
D03*
Y126772D02*
D03*
Y124213D02*
D03*
Y121654D02*
D03*
X198622D02*
D03*
Y124213D02*
D03*
Y126772D02*
D03*
Y129331D02*
D03*
Y131890D02*
D03*
X333268Y98425D02*
D03*
Y95866D02*
D03*
Y93307D02*
D03*
Y90748D02*
D03*
Y88189D02*
D03*
X314764D02*
D03*
Y90748D02*
D03*
Y93307D02*
D03*
Y95866D02*
D03*
Y98425D02*
D03*
X217126D02*
D03*
Y95866D02*
D03*
Y93307D02*
D03*
Y90748D02*
D03*
Y88189D02*
D03*
X198622D02*
D03*
Y90748D02*
D03*
Y93307D02*
D03*
Y95866D02*
D03*
Y98425D02*
D03*
X314764Y64961D02*
D03*
Y62402D02*
D03*
Y59842D02*
D03*
Y57284D02*
D03*
Y54724D02*
D03*
X333268D02*
D03*
Y57284D02*
D03*
Y59842D02*
D03*
Y62402D02*
D03*
Y64961D02*
D03*
X217126D02*
D03*
Y62402D02*
D03*
Y59842D02*
D03*
Y57284D02*
D03*
Y54724D02*
D03*
X198622D02*
D03*
Y57284D02*
D03*
Y59842D02*
D03*
Y62402D02*
D03*
Y64961D02*
D03*
X217126Y31496D02*
D03*
Y28937D02*
D03*
Y26378D02*
D03*
Y23819D02*
D03*
Y21260D02*
D03*
X198622D02*
D03*
Y23819D02*
D03*
Y26378D02*
D03*
Y28937D02*
D03*
Y31496D02*
D03*
D130*
X207874Y160236D02*
D03*
X324016Y26378D02*
D03*
Y227165D02*
D03*
Y193701D02*
D03*
Y160236D02*
D03*
Y260630D02*
D03*
X207874Y227165D02*
D03*
Y193701D02*
D03*
Y260630D02*
D03*
X324016Y126772D02*
D03*
X207874D02*
D03*
X324016Y93307D02*
D03*
X207874D02*
D03*
X324016Y59842D02*
D03*
X207874D02*
D03*
Y26378D02*
D03*
D131*
X575984Y206890D02*
D03*
Y212795D02*
D03*
X757677Y43898D02*
D03*
D132*
X402165Y174114D02*
D03*
Y176673D02*
D03*
Y179232D02*
D03*
Y181791D02*
D03*
Y184350D02*
D03*
Y186909D02*
D03*
Y189469D02*
D03*
Y192027D02*
D03*
X378937D02*
D03*
Y189469D02*
D03*
Y186909D02*
D03*
Y184350D02*
D03*
Y181791D02*
D03*
Y179232D02*
D03*
Y176673D02*
D03*
Y174114D02*
D03*
X401772Y134744D02*
D03*
Y137303D02*
D03*
Y139862D02*
D03*
Y142421D02*
D03*
Y144980D02*
D03*
Y147539D02*
D03*
Y150098D02*
D03*
Y152657D02*
D03*
X378543D02*
D03*
Y150098D02*
D03*
Y147539D02*
D03*
Y144980D02*
D03*
Y142421D02*
D03*
Y139862D02*
D03*
Y137303D02*
D03*
Y134744D02*
D03*
X704331Y67815D02*
D03*
Y70374D02*
D03*
Y72933D02*
D03*
Y75492D02*
D03*
X687008D02*
D03*
Y72933D02*
D03*
Y70374D02*
D03*
Y67815D02*
D03*
D133*
X346063Y27559D02*
D03*
Y17323D02*
D03*
X229921Y261811D02*
D03*
Y251575D02*
D03*
X346063Y184646D02*
D03*
Y194882D02*
D03*
Y151181D02*
D03*
Y161417D02*
D03*
Y218110D02*
D03*
Y228346D02*
D03*
X229921Y161417D02*
D03*
Y151181D02*
D03*
Y184646D02*
D03*
Y194882D02*
D03*
Y218110D02*
D03*
Y228346D02*
D03*
X346063Y251575D02*
D03*
Y261811D02*
D03*
X229921Y27559D02*
D03*
Y17323D02*
D03*
Y94488D02*
D03*
Y84252D02*
D03*
Y50787D02*
D03*
Y61024D02*
D03*
Y127953D02*
D03*
Y117717D02*
D03*
X346063Y94488D02*
D03*
Y84252D02*
D03*
Y127953D02*
D03*
Y117717D02*
D03*
Y61024D02*
D03*
Y50787D02*
D03*
D134*
X178347Y40945D02*
D03*
Y34646D02*
D03*
Y168504D02*
D03*
Y174803D02*
D03*
X294488D02*
D03*
Y168504D02*
D03*
X178347Y208268D02*
D03*
Y201969D02*
D03*
X294488Y208268D02*
D03*
Y201969D02*
D03*
X178347Y241732D02*
D03*
Y235433D02*
D03*
X294488Y241732D02*
D03*
Y235433D02*
D03*
X178347Y275197D02*
D03*
Y268898D02*
D03*
X294488Y275197D02*
D03*
Y268898D02*
D03*
X178347Y107874D02*
D03*
Y101575D02*
D03*
X294488Y40945D02*
D03*
Y34646D02*
D03*
X178347Y74410D02*
D03*
Y68110D02*
D03*
Y141339D02*
D03*
Y135039D02*
D03*
X294488Y107874D02*
D03*
Y101575D02*
D03*
Y141339D02*
D03*
Y135039D02*
D03*
Y68110D02*
D03*
Y74410D02*
D03*
D135*
X229921Y34843D02*
D03*
Y40748D02*
D03*
X346063Y168701D02*
D03*
Y174606D02*
D03*
X229921Y202165D02*
D03*
Y208071D02*
D03*
X346063Y202165D02*
D03*
Y208071D02*
D03*
X229921Y235630D02*
D03*
Y241535D02*
D03*
X346063Y235630D02*
D03*
Y241535D02*
D03*
X229921Y269094D02*
D03*
Y275000D02*
D03*
X346063Y269094D02*
D03*
Y275000D02*
D03*
X674803Y199409D02*
D03*
Y193504D02*
D03*
X229921Y168701D02*
D03*
Y174606D02*
D03*
X346063Y135236D02*
D03*
Y141142D02*
D03*
X229921Y135236D02*
D03*
Y141142D02*
D03*
X346063Y101772D02*
D03*
Y107677D02*
D03*
X229921Y101772D02*
D03*
Y107677D02*
D03*
X346063Y74213D02*
D03*
Y68307D02*
D03*
X229921D02*
D03*
Y74213D02*
D03*
X346063Y34843D02*
D03*
Y40748D02*
D03*
D136*
X137303Y66142D02*
D03*
X169783D02*
D03*
X137303Y32677D02*
D03*
X169783D02*
D03*
X137303Y200000D02*
D03*
X169783D02*
D03*
X253445Y166535D02*
D03*
X285925D02*
D03*
X253445Y200000D02*
D03*
X285925D02*
D03*
X253445Y233464D02*
D03*
X285925D02*
D03*
X137303D02*
D03*
X169783D02*
D03*
X137303Y266929D02*
D03*
X169783D02*
D03*
Y166535D02*
D03*
X137303D02*
D03*
X253445Y266929D02*
D03*
X285925D02*
D03*
Y133071D02*
D03*
X253445D02*
D03*
X169783D02*
D03*
X137303D02*
D03*
X285925Y99606D02*
D03*
X253445D02*
D03*
X169783D02*
D03*
X137303D02*
D03*
X285925Y66142D02*
D03*
X253445D02*
D03*
Y32677D02*
D03*
X285925D02*
D03*
D137*
X490650Y280750D02*
D03*
X481988D02*
D03*
Y274451D02*
D03*
X490650D02*
D03*
D138*
X725098Y67716D02*
D03*
X731595D02*
D03*
D139*
X710630Y19685D02*
D03*
X98425Y374016D02*
D03*
D140*
X576181Y218504D02*
D03*
X582087D02*
D03*
D141*
X753543Y163760D02*
D03*
Y168760D02*
D03*
Y152106D02*
D03*
Y157106D02*
D03*
Y142106D02*
D03*
Y147106D02*
D03*
Y126516D02*
D03*
Y131516D02*
D03*
Y116516D02*
D03*
Y121516D02*
D03*
X732283Y178760D02*
D03*
Y173760D02*
D03*
Y168760D02*
D03*
Y163760D02*
D03*
X753543Y178760D02*
D03*
Y173760D02*
D03*
X732283Y131516D02*
D03*
Y126516D02*
D03*
Y121516D02*
D03*
Y116516D02*
D03*
Y142106D02*
D03*
Y147106D02*
D03*
Y152106D02*
D03*
Y157106D02*
D03*
Y202382D02*
D03*
Y197382D02*
D03*
Y192382D02*
D03*
Y187382D02*
D03*
X753543Y202382D02*
D03*
Y197382D02*
D03*
Y192382D02*
D03*
Y187382D02*
D03*
Y210216D02*
D03*
Y215216D02*
D03*
Y220216D02*
D03*
Y225217D02*
D03*
X732283Y210216D02*
D03*
Y215216D02*
D03*
Y220216D02*
D03*
Y225217D02*
D03*
D142*
X690551Y86024D02*
D03*
Y93504D02*
D03*
X700787D02*
D03*
Y89764D02*
D03*
Y86024D02*
D03*
D143*
X492126Y307087D02*
D03*
D144*
X493110Y314567D02*
D03*
X495079D02*
D03*
X497047D02*
D03*
Y299606D02*
D03*
X495079D02*
D03*
X493110D02*
D03*
X491142D02*
D03*
X489173D02*
D03*
X487205D02*
D03*
X491142Y314567D02*
D03*
X489173D02*
D03*
X487205D02*
D03*
D145*
X627756Y23524D02*
D03*
Y26083D02*
D03*
Y28642D02*
D03*
Y31201D02*
D03*
Y33760D02*
D03*
Y36319D02*
D03*
Y38878D02*
D03*
X650591D02*
D03*
Y36319D02*
D03*
Y33760D02*
D03*
Y31201D02*
D03*
Y28642D02*
D03*
Y26083D02*
D03*
Y23524D02*
D03*
D146*
X757677Y37205D02*
D03*
X766732D02*
D03*
Y44685D02*
D03*
D147*
X551181Y87008D02*
D03*
Y88977D02*
D03*
Y90945D02*
D03*
D148*
X554134Y83268D02*
D03*
X552165D02*
D03*
X550197D02*
D03*
X548228D02*
D03*
Y94685D02*
D03*
X550197D02*
D03*
X552165D02*
D03*
X554134D02*
D03*
D149*
X654429Y303150D02*
D03*
X648721D02*
D03*
D150*
X53347Y314272D02*
D03*
X63346Y329272D02*
D03*
X53347Y304272D02*
D03*
X63346Y309272D02*
D03*
Y349272D02*
D03*
Y339272D02*
D03*
Y319272D02*
D03*
X53347Y344272D02*
D03*
Y334272D02*
D03*
Y324272D02*
D03*
D151*
X28346Y349272D02*
D03*
Y304272D02*
D03*
D152*
X18307Y353543D02*
D03*
X10315Y300000D02*
D03*
Y353543D02*
D03*
X18307Y300000D02*
D03*
D153*
X40354Y295886D02*
D03*
Y357658D02*
D03*
D154*
X27874Y281496D02*
D03*
X31418D02*
D03*
X19016Y278425D02*
D03*
X22559D02*
D03*
X26103D02*
D03*
X29646D02*
D03*
X33189D02*
D03*
X34961Y281496D02*
D03*
X24331D02*
D03*
X20788D02*
D03*
X38504D02*
D03*
X17244D02*
D03*
X15473Y278425D02*
D03*
X36733D02*
D03*
D155*
X17441Y285591D02*
D03*
Y274331D02*
D03*
X36339D02*
D03*
Y285591D02*
D03*
D156*
X697479Y376772D02*
D03*
X687479D02*
D03*
X677479D02*
D03*
X667480D02*
D03*
X647480D02*
D03*
X657480D02*
D03*
X627480D02*
D03*
X617480D02*
D03*
X607480D02*
D03*
X637480D02*
D03*
X757165Y303937D02*
D03*
X737165D02*
D03*
X747165D02*
D03*
D157*
X784370Y197324D02*
D03*
X794370D02*
D03*
X784370Y207324D02*
D03*
X794370D02*
D03*
X784370Y217324D02*
D03*
X794370D02*
D03*
Y227324D02*
D03*
X784370D02*
D03*
X794370Y237324D02*
D03*
X784370D02*
D03*
Y147324D02*
D03*
X794370D02*
D03*
X784370Y157324D02*
D03*
X794370D02*
D03*
X784370Y167324D02*
D03*
X794370D02*
D03*
Y177324D02*
D03*
X784370D02*
D03*
X794370Y187324D02*
D03*
X784370D02*
D03*
Y97324D02*
D03*
X794370D02*
D03*
X784370Y107324D02*
D03*
X794370D02*
D03*
X784370Y117324D02*
D03*
X794370D02*
D03*
Y127324D02*
D03*
X784370D02*
D03*
X794370Y137324D02*
D03*
X784370D02*
D03*
D158*
X845830Y335373D02*
D03*
D159*
X795436Y327105D02*
D03*
X817090Y343640D02*
D03*
Y327105D02*
D03*
X795436Y343640D02*
D03*
X829122Y335373D02*
D03*
X807075Y322381D02*
D03*
Y348365D02*
D03*
D160*
X737165Y315748D02*
D03*
D161*
X727165D02*
D03*
X7441Y223346D02*
D03*
Y233347D02*
D03*
X17441D02*
D03*
Y223346D02*
D03*
X27441Y233347D02*
D03*
Y223346D02*
D03*
X37441Y233347D02*
D03*
Y223346D02*
D03*
X7441Y245000D02*
D03*
Y255000D02*
D03*
X17441D02*
D03*
Y245000D02*
D03*
X27441Y255000D02*
D03*
Y245000D02*
D03*
X37441Y255000D02*
D03*
Y245000D02*
D03*
D162*
X803150Y49213D02*
D03*
X808661D02*
D03*
X831102Y57087D02*
D03*
X836614D02*
D03*
X798032D02*
D03*
X797638Y49213D02*
D03*
X798032Y41339D02*
D03*
X797638Y33465D02*
D03*
X798032Y25591D02*
D03*
X797638Y17717D02*
D03*
X803543Y57087D02*
D03*
Y41339D02*
D03*
X803150Y33465D02*
D03*
X803543Y25591D02*
D03*
X803150Y17717D02*
D03*
X809055Y57087D02*
D03*
Y41339D02*
D03*
X808661Y33465D02*
D03*
X809055Y25591D02*
D03*
X808661Y17717D02*
D03*
X814567Y57087D02*
D03*
X814173Y49213D02*
D03*
X814567Y41339D02*
D03*
X814173Y33465D02*
D03*
X814567Y25591D02*
D03*
X814173Y17717D02*
D03*
X820079Y57087D02*
D03*
X819685Y49213D02*
D03*
X820079Y41339D02*
D03*
X819685Y33465D02*
D03*
X820079Y25591D02*
D03*
X819685Y17717D02*
D03*
X825591Y57087D02*
D03*
X825197Y49213D02*
D03*
X825591Y41339D02*
D03*
X825197Y33465D02*
D03*
X825591Y25591D02*
D03*
X825197Y17717D02*
D03*
X830709Y49213D02*
D03*
X831102Y41339D02*
D03*
X830709Y33465D02*
D03*
X831102Y25591D02*
D03*
X830709Y17717D02*
D03*
X836220Y49213D02*
D03*
X836614Y41339D02*
D03*
X836220Y33465D02*
D03*
X836614Y25591D02*
D03*
X836220Y17717D02*
D03*
X842126Y57087D02*
D03*
X841732Y49213D02*
D03*
X842126Y41339D02*
D03*
X841732Y33465D02*
D03*
X842126Y25591D02*
D03*
X841732Y17717D02*
D03*
X847638Y57087D02*
D03*
X847244Y49213D02*
D03*
X847638Y41339D02*
D03*
X847244Y33465D02*
D03*
X847638Y25591D02*
D03*
X847244Y17717D02*
D03*
X853150Y57087D02*
D03*
X852756Y49213D02*
D03*
X853150Y41339D02*
D03*
X852756Y33465D02*
D03*
X853150Y25591D02*
D03*
X852756Y17717D02*
D03*
X858661Y57087D02*
D03*
X858268Y49213D02*
D03*
X858661Y41339D02*
D03*
X858268Y33465D02*
D03*
X858661Y25591D02*
D03*
X858268Y17717D02*
D03*
D163*
X464567Y218134D02*
D03*
Y208134D02*
D03*
Y198134D02*
D03*
Y188134D02*
D03*
Y178134D02*
D03*
Y168134D02*
D03*
Y18086D02*
D03*
Y28086D02*
D03*
Y48086D02*
D03*
Y38086D02*
D03*
D164*
X727165Y303937D02*
D03*
D165*
X19906Y21700D02*
D03*
Y371700D02*
D03*
D166*
X31496Y78720D02*
D03*
Y179508D02*
D03*
Y173209D02*
D03*
Y166909D02*
D03*
Y160610D02*
D03*
Y154311D02*
D03*
Y148012D02*
D03*
Y141713D02*
D03*
Y103917D02*
D03*
Y97618D02*
D03*
Y91319D02*
D03*
Y85020D02*
D03*
Y135413D02*
D03*
Y129114D02*
D03*
Y122815D02*
D03*
Y116516D02*
D03*
Y110216D02*
D03*
X26969Y182658D02*
D03*
Y176358D02*
D03*
Y170059D02*
D03*
Y163760D02*
D03*
Y157461D02*
D03*
Y151161D02*
D03*
Y144862D02*
D03*
Y107067D02*
D03*
Y100768D02*
D03*
Y94468D02*
D03*
Y88169D02*
D03*
Y81870D02*
D03*
Y138563D02*
D03*
Y132264D02*
D03*
Y125965D02*
D03*
Y119665D02*
D03*
Y113366D02*
D03*
X22244Y177933D02*
D03*
Y171634D02*
D03*
Y165335D02*
D03*
Y159035D02*
D03*
Y152736D02*
D03*
Y146437D02*
D03*
Y140138D02*
D03*
Y133839D02*
D03*
Y127539D02*
D03*
Y121240D02*
D03*
Y114941D02*
D03*
Y108642D02*
D03*
Y102342D02*
D03*
Y96043D02*
D03*
Y89744D02*
D03*
Y83445D02*
D03*
Y77146D02*
D03*
X17717Y181083D02*
D03*
Y174784D02*
D03*
Y168484D02*
D03*
Y162185D02*
D03*
Y155886D02*
D03*
Y149587D02*
D03*
Y143287D02*
D03*
Y136988D02*
D03*
Y130689D02*
D03*
Y124390D02*
D03*
Y118090D02*
D03*
Y111791D02*
D03*
Y105492D02*
D03*
Y99193D02*
D03*
Y92894D02*
D03*
Y86594D02*
D03*
Y80295D02*
D03*
D167*
X12284Y212402D02*
D03*
Y47441D02*
D03*
D168*
X22638Y193602D02*
D03*
X22638Y66240D02*
D03*
D169*
X42224Y269783D02*
D03*
X431890Y244980D02*
D03*
X439075Y240846D02*
D03*
X437402Y243012D02*
D03*
X70768Y267523D02*
D03*
Y265154D02*
D03*
X651279Y182868D02*
D03*
Y185236D02*
D03*
X72106Y229528D02*
D03*
Y240158D02*
D03*
Y235039D02*
D03*
Y224016D02*
D03*
Y218504D02*
D03*
Y245669D02*
D03*
Y251181D02*
D03*
Y256693D02*
D03*
X860084Y88583D02*
D03*
X857615D02*
D03*
X835096Y70866D02*
D03*
X832627D02*
D03*
X614961Y166831D02*
D03*
X608268Y149016D02*
D03*
X600984Y219488D02*
D03*
X600295Y225394D02*
D03*
X594587Y242618D02*
D03*
X573524Y243209D02*
D03*
X451181Y237402D02*
D03*
X262008Y330217D02*
D03*
X428999Y311414D02*
D03*
Y313783D02*
D03*
X428999Y300341D02*
D03*
Y302809D02*
D03*
X669095Y273819D02*
D03*
X757480Y97244D02*
D03*
Y111909D02*
D03*
X831201Y143648D02*
D03*
Y146116D02*
D03*
Y160683D02*
D03*
Y158215D02*
D03*
Y176037D02*
D03*
Y173569D02*
D03*
X343307Y282972D02*
D03*
X340748Y281004D02*
D03*
X599213Y249016D02*
D03*
X597047Y246063D02*
D03*
X599311Y240846D02*
D03*
X604528Y159941D02*
D03*
X423425Y155905D02*
D03*
X776181Y308957D02*
D03*
X773622D02*
D03*
X688976Y214272D02*
D03*
X604134Y225886D02*
D03*
X658169Y224410D02*
D03*
X693209Y214370D02*
D03*
X652264Y211713D02*
D03*
X722835Y225590D02*
D03*
X683268Y208760D02*
D03*
X596161Y223425D02*
D03*
Y227362D02*
D03*
X653839Y258858D02*
D03*
X657776D02*
D03*
X655807Y260827D02*
D03*
X659744D02*
D03*
X661713Y258858D02*
D03*
X763583Y299606D02*
D03*
Y266535D02*
D03*
Y272047D02*
D03*
Y305118D02*
D03*
Y294094D02*
D03*
Y288583D02*
D03*
Y283071D02*
D03*
Y277559D02*
D03*
X684271Y228543D02*
D03*
X685105Y224508D02*
D03*
X662008Y240158D02*
D03*
X664665Y232579D02*
D03*
X689764Y248819D02*
D03*
X778839Y302165D02*
D03*
X716339Y281693D02*
D03*
X778839Y258465D02*
D03*
X797441Y256724D02*
D03*
X661614Y243996D02*
D03*
X714567Y285630D02*
D03*
X717224D02*
D03*
X610925Y170177D02*
D03*
X570398Y145866D02*
D03*
X614075Y174902D02*
D03*
X632677Y176772D02*
D03*
X626968Y210236D02*
D03*
X626575Y212697D02*
D03*
X621850Y241142D02*
D03*
X604823Y218012D02*
D03*
X607776Y161811D02*
D03*
X699902Y181004D02*
D03*
X654528Y191929D02*
D03*
X640453Y179823D02*
D03*
X628937Y189075D02*
D03*
X548622Y216535D02*
D03*
X559845Y226867D02*
D03*
X617421Y261811D02*
D03*
X614764Y264764D02*
D03*
X621850Y248721D02*
D03*
X643701Y258661D02*
D03*
X646949Y255807D02*
D03*
X635827Y258071D02*
D03*
X683957Y304921D02*
D03*
X643996Y300492D02*
D03*
X11220Y290551D02*
D03*
X471161Y283169D02*
D03*
X462008Y316929D02*
D03*
X817163Y288189D02*
D03*
X443898Y319390D02*
D03*
X648425Y124705D02*
D03*
X704331Y89764D02*
D03*
X433563Y144783D02*
D03*
X428445Y144882D02*
D03*
X722835Y207480D02*
D03*
X63386Y288681D02*
D03*
X70079Y270571D02*
D03*
X30788Y289075D02*
D03*
X46949Y267520D02*
D03*
Y265151D02*
D03*
X28419Y289075D02*
D03*
X57579Y285433D02*
D03*
X57185Y274410D02*
D03*
X63386Y258760D02*
D03*
X44161Y279528D02*
D03*
X601378Y214665D02*
D03*
X450802Y314355D02*
D03*
X450773Y299621D02*
D03*
X423425Y175984D02*
D03*
X461909Y291732D02*
D03*
X461811Y286221D02*
D03*
X462303Y306988D02*
D03*
X462008Y297244D02*
D03*
X457382Y319390D02*
D03*
X82972Y323110D02*
D03*
Y315453D02*
D03*
X76673Y315472D02*
D03*
Y323130D02*
D03*
X255807Y336024D02*
D03*
X255807Y328645D02*
D03*
X543996Y166443D02*
D03*
X652264Y71752D02*
D03*
X698754Y67815D02*
D03*
Y70472D02*
D03*
X638091Y31201D02*
D03*
X636024Y14567D02*
D03*
X770374Y44685D02*
D03*
X754035Y43898D02*
D03*
X611417Y323917D02*
D03*
X642717Y28642D02*
D03*
X635630D02*
D03*
Y36319D02*
D03*
X645374Y18209D02*
D03*
X622441Y23524D02*
D03*
X655905Y38878D02*
D03*
X657579Y23524D02*
D03*
X668012Y260827D02*
D03*
X817163Y279528D02*
D03*
X763681Y240059D02*
D03*
X695866Y261260D02*
D03*
X667618Y270669D02*
D03*
X741339Y362697D02*
D03*
X629626Y313976D02*
D03*
X614468Y308268D02*
D03*
X614468Y320669D02*
D03*
X679134Y78347D02*
D03*
X709646Y76673D02*
D03*
X679134Y96457D02*
D03*
X679134Y83071D02*
D03*
X721063Y72835D02*
D03*
X734941Y67716D02*
D03*
X679134Y64961D02*
D03*
X610630Y163921D02*
D03*
X543209Y174016D02*
D03*
X835827Y316535D02*
D03*
X835827Y255906D02*
D03*
X817163Y275197D02*
D03*
X600394Y307972D02*
D03*
X599793Y320598D02*
D03*
X600098Y326153D02*
D03*
X588583Y320374D02*
D03*
X572638Y218504D02*
D03*
X765551Y244781D02*
D03*
X248820Y343309D02*
D03*
X239369Y343309D02*
D03*
X244094Y339864D02*
D03*
X244094Y380610D02*
D03*
X248820Y377165D02*
D03*
X239369Y377165D02*
D03*
X179724Y365592D02*
D03*
X170374Y352364D02*
D03*
X727264Y192461D02*
D03*
X713583Y173622D02*
D03*
X567224Y210335D02*
D03*
X581103Y99902D02*
D03*
X556299Y83268D02*
D03*
X492618Y268898D02*
D03*
X42165Y366142D02*
D03*
X588583Y302461D02*
D03*
X576378Y320374D02*
D03*
X605315Y284941D02*
D03*
X674705Y190157D02*
D03*
X817163Y296850D02*
D03*
X493110Y321260D02*
D03*
X816966Y266535D02*
D03*
Y270866D02*
D03*
X817163Y292520D02*
D03*
X597441Y212106D02*
D03*
X713583Y151969D02*
D03*
Y126378D02*
D03*
Y121653D02*
D03*
X395276Y137303D02*
D03*
X585335Y206693D02*
D03*
X481890Y284449D02*
D03*
X713583Y147244D02*
D03*
X713583Y196850D02*
D03*
Y215354D02*
D03*
Y220079D02*
D03*
X407382Y134744D02*
D03*
X390945Y175787D02*
D03*
X395276Y141240D02*
D03*
X395669Y176575D02*
D03*
Y180610D02*
D03*
X713583Y210630D02*
D03*
X722835Y113583D02*
D03*
X713583Y116535D02*
D03*
X713583Y142126D02*
D03*
X722835Y139173D02*
D03*
X713583Y163779D02*
D03*
X722835Y160827D02*
D03*
X727264Y157185D02*
D03*
Y131595D02*
D03*
Y187461D02*
D03*
Y178839D02*
D03*
Y225295D02*
D03*
X722835Y205315D02*
D03*
X713583Y202362D02*
D03*
X582382Y177953D02*
D03*
X405905Y152657D02*
D03*
X406299Y192027D02*
D03*
X397835Y168898D02*
D03*
X397441Y129528D02*
D03*
X387008Y125394D02*
D03*
X387402Y164764D02*
D03*
X75394Y197244D02*
D03*
X58071Y203937D02*
D03*
X57677Y66142D02*
D03*
X60630Y188583D02*
D03*
Y197244D02*
D03*
X756988Y25591D02*
D03*
X343307Y279035D02*
D03*
D170*
X251476Y88976D02*
D03*
X254134Y80709D02*
D03*
X251378Y84350D02*
D03*
X254134Y91535D02*
D03*
X251476Y122441D02*
D03*
X254134Y114173D02*
D03*
X251378Y117815D02*
D03*
X254134Y125000D02*
D03*
X251476Y155905D02*
D03*
X254134Y147638D02*
D03*
X251378Y151279D02*
D03*
X254134Y158465D02*
D03*
X251476Y189370D02*
D03*
X254134Y181102D02*
D03*
X251378Y184744D02*
D03*
X254134Y191929D02*
D03*
X251476Y222835D02*
D03*
X254134Y214567D02*
D03*
X251378Y218209D02*
D03*
X254134Y225394D02*
D03*
X251476Y256299D02*
D03*
X254134Y248031D02*
D03*
X251378Y251673D02*
D03*
X254134Y258858D02*
D03*
X251476Y55512D02*
D03*
X254134Y47244D02*
D03*
X251378Y50886D02*
D03*
X254134Y58071D02*
D03*
X539370Y196260D02*
D03*
X527559D02*
D03*
X515748D02*
D03*
X550000Y141929D02*
D03*
X513779D02*
D03*
X540945D02*
D03*
X531890D02*
D03*
X522835D02*
D03*
X504724D02*
D03*
X143012Y353988D02*
D03*
X135138D02*
D03*
X158760D02*
D03*
X150787Y353939D02*
D03*
X433169Y62106D02*
D03*
X320079Y264567D02*
D03*
Y256693D02*
D03*
X327953D02*
D03*
Y264567D02*
D03*
X320079Y231102D02*
D03*
Y223228D02*
D03*
X327953D02*
D03*
Y231102D02*
D03*
X320079Y197638D02*
D03*
Y189764D02*
D03*
X327953D02*
D03*
Y197638D02*
D03*
X320079Y164173D02*
D03*
Y156299D02*
D03*
X327953D02*
D03*
Y164173D02*
D03*
X320079Y130709D02*
D03*
Y122835D02*
D03*
X327953D02*
D03*
Y130709D02*
D03*
X320079Y97244D02*
D03*
Y89370D02*
D03*
X327953D02*
D03*
Y97244D02*
D03*
X320079Y63779D02*
D03*
Y55905D02*
D03*
X327953D02*
D03*
Y63779D02*
D03*
X320079Y30315D02*
D03*
Y22441D02*
D03*
X327953D02*
D03*
Y30315D02*
D03*
X203937D02*
D03*
Y22441D02*
D03*
X211811D02*
D03*
Y30315D02*
D03*
X203937Y63779D02*
D03*
Y55905D02*
D03*
X211811D02*
D03*
Y63779D02*
D03*
X203937Y97244D02*
D03*
Y89370D02*
D03*
X211811D02*
D03*
Y97244D02*
D03*
X203937Y130709D02*
D03*
Y122835D02*
D03*
X211811D02*
D03*
Y130709D02*
D03*
X203937Y264567D02*
D03*
Y256693D02*
D03*
X211811D02*
D03*
Y264567D02*
D03*
X203937Y231102D02*
D03*
Y223228D02*
D03*
X211811D02*
D03*
Y231102D02*
D03*
X203937Y197638D02*
D03*
Y189764D02*
D03*
X211811D02*
D03*
Y197638D02*
D03*
Y164173D02*
D03*
Y156299D02*
D03*
X203937D02*
D03*
Y164173D02*
D03*
X659842Y304914D02*
D03*
X279921Y40945D02*
D03*
X254134Y24606D02*
D03*
X251378Y17421D02*
D03*
X254134Y13780D02*
D03*
X251476Y22047D02*
D03*
X163779Y74410D02*
D03*
X279921D02*
D03*
X163779Y107874D02*
D03*
X279921D02*
D03*
X163779Y141339D02*
D03*
X279921D02*
D03*
X163779Y174803D02*
D03*
X279921D02*
D03*
X163779Y208268D02*
D03*
X279921D02*
D03*
X163779Y241732D02*
D03*
X279921D02*
D03*
X163779Y275197D02*
D03*
X279921D02*
D03*
X163779Y40945D02*
D03*
M02*
