G04*
G04 #@! TF.GenerationSoftware,Altium Limited,Altium Designer,24.7.2 (38)*
G04*
G04 Layer_Physical_Order=4*
G04 Layer_Color=13010237*
%FSLAX25Y25*%
%MOIN*%
G70*
G04*
G04 #@! TF.SameCoordinates,7466D0F8-E9CD-42B0-AAD5-FE8217CC6D43*
G04*
G04*
G04 #@! TF.FilePolarity,Positive*
G04*
G01*
G75*
%ADD13C,0.00787*%
%ADD14C,0.01181*%
%ADD15C,0.01968*%
%ADD17C,0.00500*%
%ADD171C,0.00598*%
%ADD176P,0.05568X4X360.0*%
%ADD177C,0.00669*%
%ADD178C,0.03937*%
%ADD179C,0.01535*%
%ADD180C,0.01143*%
%ADD181C,0.01575*%
%ADD186C,0.05512*%
%ADD187C,0.12835*%
%ADD188C,0.05984*%
%ADD189C,0.09449*%
%ADD190C,0.02756*%
%ADD191O,0.07480X0.03543*%
%ADD192C,0.06693*%
%ADD193C,0.06299*%
%ADD194C,0.14173*%
%ADD195C,0.09843*%
%ADD196R,0.05906X0.05906*%
%ADD197C,0.05906*%
%ADD198C,0.04331*%
%ADD199C,0.07087*%
%ADD200R,0.06693X0.06693*%
%ADD201C,0.19685*%
%ADD202C,0.04134*%
%ADD203C,0.07874*%
%ADD204C,0.08858*%
%ADD205C,0.01968*%
%ADD206C,0.02362*%
%ADD207C,0.02598*%
%ADD209P,0.05568X4X270.0*%
%ADD210C,0.05512*%
G36*
X32325Y284743D02*
X32805Y284025D01*
X33523Y283545D01*
X34370Y283376D01*
X36339D01*
Y280187D01*
X35725Y279932D01*
X35225Y279432D01*
X34955Y278779D01*
Y278071D01*
X35225Y277418D01*
X35598Y277045D01*
X35419Y276545D01*
X34370D01*
X33523Y276376D01*
X32805Y275896D01*
X32325Y275178D01*
X32156Y274331D01*
X21624D01*
X21455Y275178D01*
X20975Y275896D01*
X20257Y276376D01*
X19410Y276545D01*
X16786D01*
X16607Y277045D01*
X16980Y277418D01*
X17251Y278071D01*
Y278779D01*
X17080Y279190D01*
X17385Y279718D01*
X17598D01*
X18251Y279989D01*
X18752Y280489D01*
X19022Y281142D01*
Y281850D01*
X18752Y282503D01*
X18378Y282876D01*
X18558Y283376D01*
X19410D01*
X20257Y283545D01*
X20975Y284025D01*
X21455Y284743D01*
X21624Y285591D01*
X32156D01*
X32325Y284743D01*
D02*
G37*
G36*
X733563Y73622D02*
X724143D01*
X724138Y73659D01*
X723820Y74426D01*
X723425Y74940D01*
Y83661D01*
X733563D01*
Y73622D01*
D02*
G37*
%LPC*%
G36*
X31771Y283274D02*
X31064D01*
X30410Y283003D01*
X29910Y282503D01*
X29896Y282469D01*
X29396D01*
X29381Y282503D01*
X28881Y283003D01*
X28228Y283274D01*
X27521D01*
X26867Y283003D01*
X26367Y282503D01*
X26353Y282469D01*
X25853D01*
X25838Y282503D01*
X25338Y283003D01*
X24685Y283274D01*
X23977D01*
X23324Y283003D01*
X22824Y282503D01*
X22553Y281850D01*
Y281142D01*
X22735Y280703D01*
X22466Y280221D01*
X22442Y280203D01*
X22206D01*
X21552Y279932D01*
X21052Y279432D01*
X20781Y278779D01*
Y278071D01*
X21052Y277418D01*
X21552Y276918D01*
X22206Y276647D01*
X22913D01*
X23566Y276918D01*
X24067Y277418D01*
X24081Y277453D01*
X24581D01*
X24595Y277418D01*
X25095Y276918D01*
X25749Y276647D01*
X26456D01*
X27110Y276918D01*
X27610Y277418D01*
X27624Y277453D01*
X28124D01*
X28139Y277418D01*
X28639Y276918D01*
X29292Y276647D01*
X30000D01*
X30653Y276918D01*
X31153Y277418D01*
X31424Y278071D01*
Y278779D01*
X31242Y279218D01*
X31511Y279700D01*
X31535Y279718D01*
X31771D01*
X32425Y279989D01*
X32925Y280489D01*
X33195Y281142D01*
Y281850D01*
X32925Y282503D01*
X32425Y283003D01*
X31771Y283274D01*
D02*
G37*
%LPD*%
D13*
X55315Y216779D02*
X62709Y209385D01*
X55315Y277480D02*
X59577Y281742D01*
X55315Y216779D02*
Y277480D01*
X427362Y240846D02*
X439075D01*
X389173Y279035D02*
X427362Y240846D01*
Y243012D02*
X437402D01*
X389370Y281004D02*
X427362Y243012D01*
X211910Y281004D02*
X340748D01*
X389370D01*
X431890Y244980D02*
Y244980D01*
X393898Y282972D02*
X431890Y244980D01*
X343307Y282972D02*
X393898D01*
X211516D02*
X343307D01*
X457883Y230253D02*
X515368D01*
X565790Y179831D01*
X583160D01*
X583168Y179823D02*
X640453D01*
X583160Y179831D02*
X583168Y179823D01*
X139217Y291283D02*
X406700D01*
X451822Y246161D02*
X546309D01*
X406700Y291283D02*
X451822Y246161D01*
X452356Y247449D02*
X546842D01*
X138683Y292571D02*
X407234D01*
X452356Y247449D01*
X138150Y293858D02*
X407767D01*
X452889Y248736D01*
X547376D01*
X137617Y295146D02*
X408300D01*
X453422Y250024D02*
X547909D01*
X408300Y295146D02*
X453422Y250024D01*
X408833Y296433D02*
X453955Y251311D01*
X137083Y296433D02*
X408833D01*
X453955Y251311D02*
X548442D01*
X136550Y297721D02*
X409367D01*
X454489Y252598D02*
X549075D01*
X409367Y297721D02*
X454489Y252598D01*
X136017Y299008D02*
X409900D01*
X455022Y253886D01*
X549608D01*
X455555Y255173D02*
X550141D01*
X410433Y300295D02*
X455555Y255173D01*
X135484Y300295D02*
X410433D01*
X77756Y229823D02*
X139217Y291283D01*
X75295Y229183D02*
X138683Y292571D01*
X73819Y229528D02*
X138150Y293858D01*
X77510Y235039D02*
X137617Y295146D01*
X80808Y240158D02*
X137083Y296433D01*
X84499Y245669D02*
X136550Y297721D01*
X88190Y251181D02*
X136017Y299008D01*
X91881Y256693D02*
X135484Y300295D01*
X72106Y251181D02*
X88190D01*
X72106Y218504D02*
X77756Y224154D01*
Y229823D01*
X72106Y224016D02*
X74213D01*
X75295Y225098D01*
Y229183D01*
X72106Y229528D02*
X73819D01*
X72106Y256693D02*
X91881D01*
X72106Y245669D02*
X84499D01*
X72106Y240158D02*
X80808D01*
X72106Y235039D02*
X77510D01*
X413452Y306429D02*
X452657Y267224D01*
X464961D01*
X453493Y264567D02*
X472933D01*
X412919Y305142D02*
X453493Y264567D01*
X412385Y303854D02*
X453937Y262303D01*
X536117D01*
X453986Y260433D02*
X536417D01*
X411852Y302567D02*
X453986Y260433D01*
X612959Y149016D02*
X614961Y151017D01*
Y166831D01*
X608161Y148909D02*
X608268Y149016D01*
X449992Y148909D02*
X608161D01*
X608268Y149016D02*
X612959D01*
X594095Y217028D02*
X600295Y223228D01*
X594095Y206693D02*
Y217028D01*
Y206693D02*
X602854Y197933D01*
X600295Y223228D02*
Y225394D01*
X600984Y219488D02*
X602658Y221161D01*
X629331D01*
X602854Y197933D02*
X626793D01*
X558563Y246752D02*
X593405D01*
X599311Y240846D01*
X550141Y255173D02*
X558563Y246752D01*
X558120Y245374D02*
X591831D01*
X549608Y253886D02*
X558120Y245374D01*
X591831D02*
X594587Y242618D01*
X558465Y243209D02*
X573524D01*
X549075Y252598D02*
X558465Y243209D01*
X548442Y251311D02*
X558899Y240854D01*
X590543D02*
X593070Y238327D01*
X558899Y240854D02*
X590543D01*
X547909Y250024D02*
X558366Y239567D01*
X590010D02*
X592537Y237040D01*
X558366Y239567D02*
X590010D01*
X547376Y248736D02*
X561565Y234547D01*
X639716D01*
X593070Y238327D02*
X639558D01*
X653839Y252608D02*
Y258858D01*
X639558Y238327D02*
X653839Y252608D01*
X592537Y237040D02*
X640091D01*
X655807Y252756D01*
X639716Y234547D02*
X657776Y252607D01*
X564321Y228150D02*
X581201D01*
X546309Y246161D02*
X564321Y228150D01*
X451181Y223524D02*
Y237402D01*
X423425Y195768D02*
X451181Y223524D01*
X546842Y247449D02*
X561221Y233071D01*
X640158D01*
X581201Y228150D02*
X584350Y231299D01*
X536417Y260433D02*
X546654Y270669D01*
X536117Y262303D02*
X545861Y272047D01*
X472933Y264567D02*
X475591Y267224D01*
X88348Y306429D02*
X413452D01*
X53043Y295118D02*
X77037D01*
X88348Y306429D01*
X88882Y305142D02*
X412919D01*
X52658Y293307D02*
X77047D01*
X88882Y305142D01*
X89415Y303854D02*
X412385D01*
X68590Y283029D02*
X89415Y303854D01*
X90163Y302567D02*
X411852D01*
X69338Y281742D02*
X90163Y302567D01*
X640158Y233071D02*
X659744Y252658D01*
X600886Y250689D02*
Y268768D01*
X597607Y272047D02*
X600886Y268768D01*
X545861Y272047D02*
X597607D01*
X546654Y270669D02*
X595866D01*
X599508Y267028D01*
Y252067D02*
Y267028D01*
X59577Y281742D02*
X69338D01*
X59014Y283029D02*
X68590D01*
X53914Y277930D02*
X59014Y283029D01*
X53914Y215147D02*
Y277930D01*
X55622Y197244D02*
X60470D01*
X20295Y186714D02*
X45092D01*
X55622Y197244D01*
X29737Y185426D02*
X47974D01*
X51130Y188583D02*
X60630D01*
X47974Y185426D02*
X51130Y188583D01*
X208957Y249410D02*
Y275197D01*
X212795Y279035D02*
X343307D01*
X208957Y275197D02*
X212795Y279035D01*
X201476Y272933D02*
X211516Y282972D01*
X201476Y248130D02*
Y272933D01*
X206791Y275886D02*
X211910Y281004D01*
X206791Y249606D02*
Y275886D01*
X618502Y195472D02*
X622742Y191232D01*
X626793Y197933D02*
X632206Y192520D01*
X597047Y249606D02*
X599508Y252067D01*
X597047Y246063D02*
Y249606D01*
X599213Y249016D02*
X600886Y250689D01*
X622742Y191232D02*
X643250D01*
X643947Y191929D02*
X654528D01*
X53914Y215147D02*
X60630Y208431D01*
X26969Y182658D02*
X29737Y185426D01*
X49441Y298721D02*
X53043Y295118D01*
X33563Y312402D02*
X52658Y293307D01*
X644390Y194193D02*
X661122D01*
X632206Y192520D02*
X642717D01*
X644390Y194193D01*
X626968Y210236D02*
X637927Y199278D01*
X699246D02*
X706201Y192323D01*
X637927Y199278D02*
X699246D01*
X700984Y200591D02*
X709219Y192356D01*
X640158Y200591D02*
X700984D01*
X628057Y212691D02*
X640158Y200591D01*
X641440Y201965D02*
X703546D01*
X713583Y191929D01*
X628248Y215158D02*
X641440Y201965D01*
X640551Y231299D02*
X661713Y252461D01*
X584350Y231299D02*
X640551D01*
X594095Y225492D02*
Y229040D01*
Y225492D02*
X596161Y223425D01*
X594095Y229040D02*
X594983Y229929D01*
X646842D01*
X661128Y215643D01*
X699622Y206118D02*
X713583Y220079D01*
X644374Y206118D02*
X699622D01*
X629331Y221161D02*
X644374Y206118D01*
X703059Y204831D02*
X713583Y215354D01*
X629429Y218996D02*
X643595Y204831D01*
X703059D01*
X62709Y190662D02*
Y209385D01*
X604429Y160039D02*
Y171260D01*
Y160039D02*
X604528Y159941D01*
Y158169D02*
Y159941D01*
X599902Y153543D02*
X604528Y158169D01*
X433563Y144783D02*
X445866D01*
X449992Y148909D01*
X358819Y84114D02*
Y142966D01*
X367821Y151969D01*
X352854Y78150D02*
X358819Y84114D01*
X360106Y74673D02*
Y139824D01*
X356102Y70669D02*
X360106Y74673D01*
Y139824D02*
X367717Y147435D01*
X361394Y54504D02*
Y135982D01*
X351575Y44685D02*
X361394Y54504D01*
Y135982D02*
X367415Y142003D01*
Y142847D01*
X367717Y143148D01*
X344980Y35630D02*
X362681Y53331D01*
Y134335D02*
X367717Y139370D01*
X362681Y53331D02*
Y134335D01*
X348371Y23031D02*
X355413D01*
X363968Y31587D01*
X339218Y13878D02*
X348371Y23031D01*
X363968Y31587D02*
Y131947D01*
X367717Y135695D01*
X348721Y21260D02*
X356244D01*
X365256Y129823D02*
X367717Y132283D01*
X365256Y30272D02*
Y129823D01*
X356244Y21260D02*
X365256Y30272D01*
X710138Y309842D02*
Y311681D01*
X690945Y290650D02*
X710138Y309842D01*
X690945Y288142D02*
Y290650D01*
X682972Y270669D02*
X690945Y278642D01*
Y288142D01*
X667618Y270669D02*
X682972D01*
X675907Y260827D02*
X696773Y281693D01*
X668012Y260827D02*
X675907D01*
X696773Y281693D02*
X716339D01*
X696654Y246457D02*
X747165Y296969D01*
X763583Y303051D02*
Y305118D01*
X757500Y296969D02*
X763583Y303051D01*
X747165Y296969D02*
X757500D01*
X661128Y215643D02*
X684639D01*
X686516Y217520D02*
X690059D01*
X693209Y214370D01*
X684639Y215643D02*
X686516Y217520D01*
X597441Y228642D02*
X640354D01*
X654724Y214272D01*
X688976D01*
X596161Y227362D02*
X597441Y228642D01*
X604134Y225886D02*
X634154D01*
X651279Y208760D01*
X683268D01*
X632677Y176772D02*
X640650Y168799D01*
X664961D02*
X712101Y121659D01*
X640650Y168799D02*
X664961D01*
X605875Y218996D02*
X629429D01*
X642323Y203543D02*
X706890D01*
X629331Y216535D02*
X642323Y203543D01*
X606693Y216535D02*
X629331D01*
X608563Y215158D02*
X628248D01*
X626580Y212691D02*
X628057D01*
X626575Y212697D02*
X626580Y212691D01*
X604890Y218012D02*
X605875Y218996D01*
X604823Y218012D02*
X604890D01*
X605512Y212106D02*
X608563Y215158D01*
X604823Y214665D02*
X606693Y216535D01*
X713577Y121659D02*
X713583Y121653D01*
X712101Y121659D02*
X713577D01*
X655807Y252756D02*
Y260827D01*
X661713Y252461D02*
Y258858D01*
X659744Y252658D02*
Y260827D01*
X657776Y252607D02*
Y258858D01*
X17717Y181083D02*
X17816Y181183D01*
Y184236D01*
X60630Y197244D02*
Y208431D01*
X664075Y246457D02*
X696654D01*
X661614Y243996D02*
X664075Y246457D01*
X717224Y288091D02*
X726083Y296949D01*
X740177D02*
X747165Y303937D01*
X726083Y296949D02*
X740177D01*
X714567Y288405D02*
X724685Y298524D01*
X731752D02*
X737165Y303937D01*
X724685Y298524D02*
X731752D01*
X710138Y311681D02*
X714205Y315748D01*
X727165D01*
X717224Y285630D02*
Y288091D01*
X714567Y285630D02*
Y288405D01*
X706890Y203543D02*
X713583Y196850D01*
X661122Y194193D02*
X674311Y181004D01*
X610606Y170177D02*
X610925D01*
X609985Y169630D02*
X610059D01*
X607776Y167421D02*
X609985Y169630D01*
X610059D02*
X610606Y170177D01*
X604823Y150197D02*
X610630Y156004D01*
Y163921D01*
X426279Y150197D02*
X604823D01*
X604429Y171260D02*
X608071Y174902D01*
X614075D01*
X607776Y161811D02*
Y167421D01*
X601378Y214665D02*
X604823D01*
X597441Y212106D02*
X605512D01*
X424508Y153543D02*
X599902D01*
X412205Y141240D02*
X424508Y153543D01*
X602179Y151575D02*
X607776Y157171D01*
Y161811D01*
X425098Y151575D02*
X602179D01*
X674311Y181004D02*
X699902D01*
X628937Y189075D02*
X662894D01*
X423425Y175984D02*
Y195768D01*
X614764Y264764D02*
X621063Y271063D01*
Y365650D01*
X343307Y279035D02*
X389173D01*
X662894Y189075D02*
X713583Y138386D01*
Y126378D02*
Y138386D01*
X706201Y154626D02*
Y192323D01*
Y154626D02*
X713583Y147244D01*
X709219Y156333D02*
Y192356D01*
Y156333D02*
X713583Y151969D01*
X18307Y309646D02*
X21063Y312402D01*
X18307Y300000D02*
Y309646D01*
X21063Y312402D02*
X33563D01*
X37992Y310138D02*
Y321358D01*
X49409Y298721D02*
X49441D01*
X37992Y310138D02*
X49409Y298721D01*
X60630Y188583D02*
X62709Y190662D01*
X17816Y184236D02*
X20295Y186714D01*
X60470Y197244D02*
X60550Y197164D01*
X643250Y191232D02*
X643947Y191929D01*
X18307Y341043D02*
X37992Y321358D01*
X18307Y341043D02*
Y353543D01*
X625669Y270059D02*
Y358347D01*
X617421Y261811D02*
X625669Y270059D01*
X643996Y300492D02*
Y326673D01*
X687479Y370156D01*
X640606Y295527D02*
X641929Y296850D01*
X639985Y294980D02*
X640532Y295527D01*
X639665Y294980D02*
X639985D01*
X640532Y295527D02*
X640606D01*
X641929Y296850D02*
Y326772D01*
X637174Y369851D02*
Y376465D01*
X625669Y358347D02*
X637174Y369851D01*
Y376465D02*
X637480Y376772D01*
X641929Y326772D02*
X677479Y362322D01*
Y376772D01*
X218406Y11220D02*
X338681D01*
X348721Y21260D01*
X333563Y13878D02*
X339218D01*
X215748D02*
X218406Y11220D01*
X428494Y144833D02*
X433514D01*
X433563Y144783D01*
X428445Y144882D02*
X428494Y144833D01*
X208957Y246654D02*
X210236Y247933D01*
X208957Y249410D02*
X210433Y247933D01*
X210236D02*
X210433D01*
X208957Y216142D02*
Y246654D01*
X210433Y147736D02*
X210433Y147736D01*
X208957Y149213D02*
X210433Y147736D01*
X210433Y147736D01*
X208957Y146260D02*
X210433Y147736D01*
X205315D02*
X206791Y149213D01*
X205315Y147736D02*
X205315Y147736D01*
X206791Y146260D01*
X205315Y147736D02*
X205315Y147736D01*
X205315Y248130D02*
X206791Y249606D01*
X208957Y216142D02*
X210433Y214665D01*
X205315D02*
X206791Y216142D01*
Y246654D01*
X205315Y248130D02*
X206791Y246654D01*
X208957Y182677D02*
X210433Y181201D01*
X208957Y213189D02*
X210433Y214665D01*
X208957Y182677D02*
Y213189D01*
X205315Y181201D02*
X206791Y182677D01*
Y213189D01*
X205315Y214665D02*
X206791Y213189D01*
X208957Y179724D02*
X210433Y181201D01*
X208957Y149213D02*
Y179724D01*
X206791Y149213D02*
Y179724D01*
X205315Y181201D02*
X206791Y179724D01*
X208957Y115748D02*
X210433Y114272D01*
X208957Y115748D02*
Y146260D01*
X205315Y114272D02*
X206791Y115748D01*
Y146260D01*
X208957Y82284D02*
X210433Y80807D01*
X208957Y112795D02*
X210433Y114272D01*
X208957Y82284D02*
Y112795D01*
X205315Y80807D02*
X206791Y82284D01*
Y112795D01*
X205315Y114272D02*
X206791Y112795D01*
X208957Y48819D02*
X210433Y47343D01*
X208957Y79331D02*
X210433Y80807D01*
X208957Y48819D02*
Y79331D01*
X205315Y47343D02*
X206791Y48819D01*
Y79331D01*
X205315Y80807D02*
X206791Y79331D01*
X205315Y47343D02*
X206791Y45866D01*
Y15354D02*
Y45866D01*
X205315Y13878D02*
X206791Y15354D01*
X208957Y15354D02*
Y45866D01*
X210433Y47343D01*
X208957Y15354D02*
X210433Y13878D01*
X410827Y137303D02*
X425098Y151575D01*
X410827Y134744D02*
X426279Y150197D01*
X395177Y137303D02*
X395276D01*
X391831Y172736D02*
X395669Y176575D01*
X391831Y140650D02*
X395177Y137303D01*
X391831Y140650D02*
Y172736D01*
X395276Y137303D02*
X410827D01*
X392717Y134744D02*
X407382D01*
X389370Y138091D02*
X392717Y134744D01*
X389370Y138091D02*
Y174213D01*
X390945Y175787D01*
X407382Y134744D02*
X410827D01*
X395669Y180610D02*
X397736D01*
X393701Y169882D02*
X398819Y175000D01*
X393701Y142815D02*
Y169882D01*
X395276Y141240D02*
X412205D01*
X398819Y175000D02*
Y179528D01*
X397736Y180610D02*
X398819Y179528D01*
X393701Y142815D02*
X395276Y141240D01*
X318701Y70669D02*
X356102D01*
X329134Y245473D02*
X331004Y243602D01*
Y226378D02*
X357768Y199614D01*
X331004Y226378D02*
Y243602D01*
X329134Y145079D02*
X331791Y147736D01*
Y162795D02*
X346260Y177264D01*
X331791Y147736D02*
Y162795D01*
X346260Y177264D02*
X361843D01*
X334055Y146045D02*
Y159707D01*
X346002Y171653D02*
X368110D01*
X334055Y159707D02*
X346002Y171653D01*
X328642Y140631D02*
X334055Y146045D01*
X343898Y139665D02*
X364476Y160244D01*
X343898Y126378D02*
Y139665D01*
X329134Y111614D02*
X343898Y126378D01*
X329134Y78150D02*
X352854D01*
X329134Y44685D02*
X351575D01*
X311910Y45374D02*
X321654Y35630D01*
X344980D01*
X617480Y369232D02*
Y376772D01*
Y369232D02*
X621063Y365650D01*
X638091Y28839D02*
Y31201D01*
X643459Y26870D02*
X730118D01*
X643453Y26864D02*
X643459Y26870D01*
X640065Y26864D02*
X643453D01*
X638091Y28839D02*
X640065Y26864D01*
X786811Y29429D02*
X849311D01*
X853150Y25591D01*
X780905Y35335D02*
X786811Y29429D01*
X738583Y35335D02*
X780905D01*
X730118Y26870D02*
X738583Y35335D01*
X790453Y21654D02*
X843701D01*
X847638Y25591D01*
X779921Y32185D02*
X790453Y21654D01*
X742815Y32185D02*
X779921D01*
X734154Y23524D02*
X742815Y32185D01*
X657579Y23524D02*
X734154D01*
X713583Y173622D02*
Y191929D01*
X687479Y370156D02*
Y376772D01*
X357768Y199614D02*
X368215D01*
X212992Y245473D02*
X309646D01*
X359642Y195476D02*
X368215D01*
X309646Y245473D02*
X359642Y195476D01*
X361417Y191339D02*
X368215D01*
X340748Y212008D02*
X361417Y191339D01*
X329134Y212008D02*
X340748D01*
X320616Y204472D02*
X345626D01*
X363294Y186805D02*
X368110D01*
X345626Y204472D02*
X363294Y186805D01*
X361843Y177264D02*
X364041Y175065D01*
X333108Y182518D02*
X368110D01*
X329134Y178543D02*
X333108Y182518D01*
X318853Y140631D02*
X328642D01*
X313081Y212008D02*
X320616Y204472D01*
X333366Y178740D02*
X368110D01*
X328402Y173776D02*
X333366Y178740D01*
X364041Y175065D02*
X368110D01*
X364476Y160244D02*
X367821D01*
X364082Y156106D02*
X367821D01*
X346660Y138684D02*
X364082Y156106D01*
X346660Y123038D02*
Y138684D01*
X330934Y107311D02*
X346660Y123038D01*
X316530Y173776D02*
X328402D01*
X201476Y181201D02*
Y214665D01*
Y248130D01*
Y13878D02*
Y47343D01*
Y80807D02*
Y114272D01*
Y47343D02*
Y80807D01*
Y114272D02*
Y147736D01*
Y181201D01*
X212992Y212008D02*
X313081D01*
X212992Y145079D02*
X314406D01*
X318853Y140631D01*
X311763Y178543D02*
X316530Y173776D01*
X212992Y178543D02*
X311763D01*
X212992Y111614D02*
X315256D01*
X319559Y107311D01*
X330934D01*
X212992Y44685D02*
X244882D01*
X265201Y40354D02*
X270221Y45374D01*
X249213Y40354D02*
X265201D01*
X270221Y45374D02*
X311910D01*
X244882Y44685D02*
X249213Y40354D01*
X311221Y78150D02*
X318701Y70669D01*
X212992Y78150D02*
X311221D01*
D14*
X255807Y328645D02*
X261414Y334252D01*
X273622D02*
X292520Y353150D01*
X261414Y334252D02*
X273622D01*
X292520Y353150D02*
X585433D01*
X450802Y306988D02*
Y314355D01*
Y317997D01*
X443898Y319390D02*
X449409D01*
X39993Y270945D02*
X44161Y275113D01*
Y279528D01*
X36733Y278425D02*
X38504Y281496D01*
X15473Y278425D02*
X17244Y281496D01*
X32552Y270945D02*
X39993D01*
X31449Y272047D02*
X32552Y270945D01*
X31449Y272047D02*
Y276685D01*
X33189Y278425D01*
X449409Y319390D02*
X450802Y317997D01*
X585433Y353150D02*
X611417Y327165D01*
Y323917D02*
Y327165D01*
X51181Y82284D02*
Y183760D01*
X40846Y71949D02*
X51181Y82284D01*
X27441Y71949D02*
X40846D01*
X22244Y77146D02*
X27441Y71949D01*
D15*
X176376Y352364D02*
X193602Y335138D01*
X170374Y352364D02*
X176376D01*
X179724Y353248D02*
Y365592D01*
Y353248D02*
X195669Y337303D01*
X464591Y218110D02*
X482874D01*
X464567Y218134D02*
X464591Y218110D01*
X614764Y117717D02*
X680905D01*
X720276Y78347D02*
X725591D01*
X680905Y117717D02*
X720276Y78347D01*
X725591D02*
X728346D01*
X731102D01*
X286516Y220965D02*
X290945Y216535D01*
X286516Y220965D02*
Y241732D01*
Y254429D02*
Y275197D01*
Y254429D02*
X290945Y250000D01*
X286516Y187500D02*
X290945Y183071D01*
X286516Y187500D02*
Y208268D01*
X170374Y54036D02*
X175197Y49213D01*
X170374Y87500D02*
X175197Y82677D01*
X170374Y120965D02*
X175197Y116142D01*
X170374Y154429D02*
X175197Y149606D01*
X170374Y187894D02*
X175197Y183071D01*
X170374Y221358D02*
X175197Y216535D01*
X170374Y254823D02*
X175197Y250000D01*
X170374Y20571D02*
X175197Y15748D01*
X286516Y20374D02*
X291142Y15748D01*
X286516Y20374D02*
Y40945D01*
Y53839D02*
X291142Y49213D01*
X286516Y53839D02*
Y74410D01*
Y87303D02*
Y107874D01*
Y87303D02*
X291142Y82677D01*
X286516Y120768D02*
X291142Y116142D01*
X286516Y120768D02*
Y141339D01*
Y154232D02*
X291142Y149606D01*
X286516Y154232D02*
Y174803D01*
Y141339D02*
X309547D01*
X279921Y141339D02*
X286516D01*
Y74410D02*
X309547D01*
X279921Y74410D02*
X286516D01*
X279921Y40945D02*
X286516D01*
Y40945D02*
X309547D01*
X286516Y275197D02*
X309547D01*
X279921Y275197D02*
X286516D01*
Y241732D02*
X309547D01*
X279921Y241732D02*
X286516D01*
Y107874D02*
X309547D01*
X279921Y107874D02*
X286516D01*
Y208268D02*
X309547D01*
X279921Y208268D02*
X286516D01*
Y174803D02*
X309547D01*
X279921Y174803D02*
X286516D01*
X170374Y87500D02*
Y107874D01*
Y107874D02*
X193405D01*
X163779Y107874D02*
X170374D01*
Y141339D02*
X193405D01*
X163779Y141339D02*
X170374D01*
Y120965D02*
Y141339D01*
Y174803D02*
X193405D01*
X163779Y174803D02*
X170374D01*
Y154429D02*
Y174803D01*
Y187894D02*
Y208268D01*
Y208268D02*
X193405D01*
X163779Y208268D02*
X170374D01*
Y74410D02*
X193405D01*
X163779Y74410D02*
X170374D01*
Y54036D02*
Y74410D01*
X163779Y241732D02*
X170374D01*
Y221358D02*
Y241732D01*
Y241732D02*
X193405D01*
X170374Y275197D02*
X193405D01*
X163779Y275197D02*
X170374D01*
Y254823D02*
Y275197D01*
Y40945D02*
X193405D01*
X163779Y40945D02*
X170374D01*
Y20571D02*
Y40945D01*
D17*
X511890Y241437D02*
X568641Y184687D01*
X568401Y183417D02*
X643983D01*
X511435Y240337D02*
X568185Y183587D01*
X451119Y240337D02*
X511435D01*
X451575Y241437D02*
X511890D01*
X568185Y183587D02*
X568232D01*
X568641Y184687D02*
X644509D01*
X568232Y183587D02*
X568401Y183417D01*
X157498Y288797D02*
X404215D01*
X451575Y241437D01*
X403759Y287697D02*
X451119Y240337D01*
X157953Y287697D02*
X403759D01*
X82864Y212608D02*
X157953Y287697D01*
X82864Y212608D02*
X82864D01*
X82542Y212286D02*
X82864Y212608D01*
X70134Y266889D02*
X70768Y267523D01*
X67584Y266889D02*
X70134D01*
X69203Y212608D02*
X69203D01*
X65632Y216178D02*
X69203Y212608D01*
X69525Y212286D02*
X82542D01*
X69203Y212608D02*
X69525Y212286D01*
X65632Y216178D02*
Y264937D01*
X67584Y266889D01*
X68039Y265789D02*
X70134D01*
X70768Y265154D01*
X82087Y213386D02*
X157498Y288797D01*
X66732Y264482D02*
X68039Y265789D01*
X69980Y213386D02*
X82087D01*
X66732Y216634D02*
X69980Y213386D01*
X66732Y216634D02*
Y264482D01*
X88287Y327854D02*
X91847Y324295D01*
X88702Y328854D02*
X92261Y325295D01*
X70297Y325719D02*
X73432Y328854D01*
X71297Y325305D02*
X73847Y327854D01*
X88287D01*
X73432Y328854D02*
X88702D01*
X70197Y325234D02*
X70297Y325334D01*
X71297Y304191D02*
Y325305D01*
X70297Y325334D02*
Y325719D01*
X70197Y304647D02*
Y325234D01*
X92261Y325295D02*
X415453D01*
X91847Y324295D02*
X414583D01*
X89137Y311892D02*
X414134D01*
X425002Y301025D01*
X74852Y299163D02*
X88681Y312992D01*
X75407Y298163D02*
X89137Y311892D01*
X88681Y312992D02*
X414590D01*
X425457Y302125D01*
X414583Y324295D02*
X427464Y311414D01*
X415453Y325295D02*
X426965Y313783D01*
X427464Y311414D02*
X428999D01*
X70975Y303869D02*
X71297Y304191D01*
X53347Y304272D02*
X60295D01*
X70975Y303869D02*
Y303869D01*
X67679Y300573D02*
X70975Y303869D01*
X63881Y300686D02*
X63994Y300573D01*
X67679D01*
X60295Y304272D02*
X63881Y300686D01*
X63881D01*
X426965Y313783D02*
X428999D01*
X67223Y301673D02*
X70197Y304647D01*
X64868Y301673D02*
X67223D01*
X63346Y303195D02*
Y309272D01*
Y303195D02*
X64868Y301673D01*
X428315Y301025D02*
X428999Y300341D01*
X425002Y301025D02*
X428315D01*
X46441Y307366D02*
X53347Y314272D01*
X46441Y303661D02*
Y307366D01*
X51939Y298163D02*
X75407D01*
X46441Y303661D02*
X51939Y298163D01*
X63346Y325453D02*
Y329272D01*
X428315Y302125D02*
X428999Y302809D01*
X425457Y302125D02*
X428315D01*
X58465Y320571D02*
X63346Y325453D01*
X54410Y309154D02*
X58465Y313208D01*
Y320571D01*
X50394Y309154D02*
X54410D01*
X47441Y304075D02*
X52353Y299163D01*
X74852D01*
X47441Y306201D02*
X50394Y309154D01*
X47441Y304075D02*
Y306201D01*
X684482Y56201D02*
X698754Y70472D01*
X662106Y56201D02*
X684482D01*
X684384Y53445D02*
X698754Y67815D01*
X661122Y53445D02*
X684384D01*
X642717Y35039D02*
X661122Y53445D01*
X642717Y28642D02*
Y35039D01*
X642224Y36319D02*
X662106Y56201D01*
X635630Y36319D02*
X642224D01*
X765551Y120965D02*
X774409Y112106D01*
X789152D02*
X794370Y117324D01*
X774409Y112106D02*
X789152D01*
X763681Y119965D02*
Y240059D01*
Y119965D02*
X776322Y107324D01*
X784370D01*
X765551Y244781D02*
X765551Y120965D01*
D171*
X818972Y98029D02*
G03*
X818974Y94495I1766J-1766D01*
G01*
X814306Y95488D02*
G03*
X810774Y95488I-1766J-1766D01*
G01*
X817278Y92516D02*
G03*
X819116Y94353I919J919D01*
G01*
X810774Y95488D02*
G03*
X810774Y91956I1766J-1766D01*
G01*
X813746Y87146D02*
G03*
X813746Y88984I-919J919D01*
G01*
X811909Y87146D02*
G03*
X813746Y87146I919J919D01*
G01*
X808937Y90118D02*
G03*
X805404Y90118I-1766J-1766D01*
G01*
X808376Y81777D02*
G03*
X808377Y83614I-919J919D01*
G01*
X806539Y81777D02*
G03*
X808376Y81777I919J919D01*
G01*
X805404Y90118D02*
G03*
X805404Y86586I1766J-1766D01*
G01*
X803567Y84749D02*
G03*
X800035Y84749I-1766J-1766D01*
G01*
X801169Y76407D02*
G03*
X803007Y78244I919J919D01*
G01*
X800035Y84749D02*
G03*
X800035Y81217I1766J-1766D01*
G01*
X798198Y79379D02*
G03*
X794665Y79379I-1766J-1766D01*
G01*
D02*
G03*
X794665Y75847I1766J-1766D01*
G01*
X792828Y74010D02*
G03*
X789296Y74010I-1766J-1766D01*
G01*
X797637Y71038D02*
G03*
X797637Y72875I-919J919D01*
G01*
X795800Y71038D02*
G03*
X797637Y71038I919J919D01*
G01*
X792268Y65668D02*
G03*
X792268Y67505I-919J919D01*
G01*
X790430Y65668D02*
G03*
X792268Y65668I919J919D01*
G01*
X789296Y74010D02*
G03*
X789296Y70477I1766J-1766D01*
G01*
X790287Y65812D02*
G03*
X786755Y65812I-1766J-1766D01*
G01*
X819965Y91671D02*
G03*
X819963Y95201I-1768J1764D01*
G01*
X819819Y97181D02*
G03*
X819819Y95345I919J-919D01*
G01*
X819964Y91669D02*
G03*
X819965Y91671I-424J423D01*
G01*
X813459Y94640D02*
G03*
X811621Y94640I-919J-919D01*
G01*
D02*
G03*
X811621Y92803I919J-919D01*
G01*
X819961Y91666D02*
G03*
X819962Y91668I-422J426D01*
G01*
X816431Y91668D02*
G03*
X819961Y91666I1766J1766D01*
G01*
X814593Y86299D02*
G03*
X814593Y89831I-1766J1766D01*
G01*
X811061Y86299D02*
G03*
X814593Y86299I1766J1766D01*
G01*
X808089Y89271D02*
G03*
X806252Y89271I-919J-919D01*
G01*
D02*
G03*
X806252Y87433I919J-919D01*
G01*
X809224Y80929D02*
G03*
X809224Y84461I-1766J1766D01*
G01*
X805692Y80929D02*
G03*
X809224Y80929I1766J1766D01*
G01*
X802720Y83901D02*
G03*
X800882Y83901I-919J-919D01*
G01*
X803856Y75562D02*
G03*
X803854Y79092I-1768J1764D01*
G01*
X803855Y75560D02*
G03*
X803856Y75562I-424J423D01*
G01*
X803852Y75557D02*
G03*
X803854Y75559I-422J426D01*
G01*
X800322Y75560D02*
G03*
X803852Y75557I1766J1766D01*
G01*
X800882Y83901D02*
G03*
X800882Y82064I919J-919D01*
G01*
X797350Y78532D02*
G03*
X795513Y78532I-919J-919D01*
G01*
D02*
G03*
X795513Y76694I919J-919D01*
G01*
X791981Y73162D02*
G03*
X790143Y73162I-919J-919D01*
G01*
X798485Y70190D02*
G03*
X798485Y73722I-1766J1766D01*
G01*
X794953Y70190D02*
G03*
X798485Y70190I1766J1766D01*
G01*
X793115Y64820D02*
G03*
X793115Y68353I-1766J1766D01*
G01*
X789583Y64820D02*
G03*
X793115Y64820I1766J1766D01*
G01*
X790143Y73162D02*
G03*
X790143Y71325I919J-919D01*
G01*
X789439Y64964D02*
G03*
X787602Y64964I-919J-919D01*
G01*
X813287Y145941D02*
G03*
X815785Y143443I2498J0D01*
G01*
X817084Y142144D02*
G03*
X815785Y143443I-1299J0D01*
G01*
X815988Y133251D02*
G03*
X817287Y134550I0J1299D01*
G01*
Y134550D02*
G03*
X815988Y135849I-1299J0D01*
G01*
X815785Y140845D02*
G03*
X817084Y142144I0J1299D01*
G01*
X813041Y140845D02*
G03*
X810543Y138347I0J-2498D01*
G01*
Y138347D02*
G03*
X813041Y135849I2498J0D01*
G01*
X811785Y133251D02*
G03*
X809287Y130753I0J-2498D01*
G01*
X813287Y126956D02*
G03*
X811988Y128256I-1299J0D01*
G01*
X809287Y130753D02*
G03*
X811785Y128256I2498J0D01*
G01*
X814486Y145941D02*
G03*
X815785Y144641I1299J0D01*
G01*
X818283Y142144D02*
G03*
X815785Y144641I-2498J0D01*
G01*
X818486Y134550D02*
G03*
X815988Y137048I-2498J0D01*
G01*
X815785Y139646D02*
G03*
X818283Y142144I0J2498D01*
G01*
X815988Y132052D02*
G03*
X818486Y134550I0J2498D01*
G01*
X813041Y139646D02*
G03*
X811741Y138347I0J-1299D01*
G01*
Y138347D02*
G03*
X813041Y137048I1299J0D01*
G01*
X811785Y132052D02*
G03*
X810486Y130753I0J-1299D01*
G01*
X814486Y126956D02*
G03*
X811988Y129454I-2498J0D01*
G01*
X810486Y130753D02*
G03*
X811785Y129454I1299J0D01*
G01*
X859449Y87948D02*
X860084Y88583D01*
X866929Y40825D02*
Y71654D01*
X863193Y37089D02*
X866929Y40825D01*
X859449Y79134D02*
Y87948D01*
Y79134D02*
X866929Y71654D01*
X857373Y37089D02*
X863193D01*
X856111Y35621D02*
X858268Y33465D01*
X856111Y35827D02*
X857373Y37089D01*
X856111Y35621D02*
Y35827D01*
X857615Y88583D02*
X858250Y87948D01*
Y78637D02*
Y87948D01*
X865731Y41321D02*
Y71157D01*
X862697Y38287D02*
X865731Y41321D01*
X858250Y78637D02*
X865731Y71157D01*
X856877Y38287D02*
X862697D01*
X854913Y36323D02*
X856877Y38287D01*
X852756Y33465D02*
X854913Y35621D01*
Y36323D01*
X834461Y70231D02*
X835096Y70866D01*
X834457Y59243D02*
X836614Y57087D01*
X834461Y64685D02*
Y70231D01*
X834457Y59243D02*
Y64682D01*
X834461Y64685D01*
X833262Y65181D02*
Y70231D01*
X833259Y65178D02*
X833262Y65181D01*
X833259Y59243D02*
Y65178D01*
X832627Y70866D02*
X833262Y70231D01*
X831102Y57087D02*
X833259Y59243D01*
X836909Y88091D02*
Y142533D01*
X823040Y51369D02*
X825197Y49213D01*
X821157Y53954D02*
X823040Y52071D01*
Y51369D02*
Y52071D01*
X813311Y64492D02*
X836909Y88091D01*
X796185Y64492D02*
X813311D01*
X792126Y60433D02*
X796185Y64492D01*
X793683Y53954D02*
X821157D01*
X792126Y55512D02*
Y60433D01*
Y55512D02*
X793683Y53954D01*
X835711Y88587D02*
Y142036D01*
X819685Y49213D02*
X821842Y51369D01*
X820661Y52756D02*
X821842Y51575D01*
Y51369D02*
Y51575D01*
X812814Y65690D02*
X835711Y88587D01*
X790928Y60930D02*
X795688Y65690D01*
X812814D01*
X793187Y52756D02*
X820661D01*
X790928Y55015D02*
Y60930D01*
Y55015D02*
X793187Y52756D01*
X833961Y145481D02*
X836909Y142533D01*
X831836Y145481D02*
X833961D01*
X833465Y144283D02*
X835711Y142036D01*
X831201Y146116D02*
X831836Y145481D01*
X831836Y144283D02*
X833465D01*
X831201Y143648D02*
X831836Y144283D01*
X830830Y158215D02*
X831201D01*
X821260Y156813D02*
X824495Y160048D01*
X824991Y158850D02*
X830195D01*
X830195Y160048D02*
X830830Y160683D01*
X831201D01*
X830195Y158850D02*
X830830Y158215D01*
X822458Y156317D02*
X824991Y158850D01*
X824495Y160048D02*
X830195D01*
X821260Y100317D02*
Y156813D01*
X822458Y99821D02*
Y156317D01*
X819607Y98664D02*
X821260Y100317D01*
X818972Y98029D02*
X819607Y98664D01*
X818974Y94495D02*
X819116Y94353D01*
X819116Y94353D01*
X814306Y95488D02*
X814306Y95488D01*
X814306Y95488D02*
X817278Y92516D01*
X810774Y91956D02*
X813746Y88984D01*
X808937Y90118D02*
X811909Y87146D01*
X813746Y88984D02*
X813746Y88984D01*
X808937Y90118D02*
X808937Y90118D01*
X808376Y83614D02*
X808377Y83614D01*
X805404Y86586D02*
X808376Y83614D01*
X806505Y47056D02*
X808661Y49213D01*
X806505Y45960D02*
Y47056D01*
X803567Y84749D02*
X806539Y81777D01*
X803567Y84749D02*
X803567Y84749D01*
X803007Y78244D02*
X803007Y78244D01*
X800035Y81217D02*
X803007Y78244D01*
X798197Y79379D02*
X801169Y76407D01*
X798197Y79379D02*
X798198Y79379D01*
X794665Y75847D02*
X797637Y72875D01*
X797637Y72875D01*
X792828Y74010D02*
X792828Y74010D01*
X792828Y74010D02*
X795800Y71038D01*
X792268Y67505D02*
X792268Y67505D01*
X804917Y44372D02*
X806505Y45960D01*
X788305Y44372D02*
X804917D01*
X789296Y70477D02*
X792268Y67505D01*
X783848Y62905D02*
X786755Y65812D01*
X790287D02*
X790430Y65668D01*
X783268Y49409D02*
X788305Y44372D01*
X783268Y62325D02*
X783848Y62905D01*
X783268Y49409D02*
Y62325D01*
X820455Y97817D02*
X820455D01*
X822458Y99821D01*
X819819Y97181D02*
X820455Y97817D01*
X819819Y95345D02*
X819963Y95201D01*
X819963Y95201D01*
X813459Y94640D02*
X813459Y94640D01*
X819962Y91668D02*
X819964Y91669D01*
X813459Y94640D02*
X816431Y91668D01*
X811621Y92803D02*
X814593Y89831D01*
X814593Y89831D01*
X808089Y89271D02*
X811061Y86299D01*
X806252Y87433D02*
X809224Y84461D01*
X808089Y89271D02*
X808089Y89271D01*
X809224Y84461D02*
X809224Y84461D01*
X805306Y46457D02*
Y47056D01*
X804420Y45571D02*
X805306Y46457D01*
X802720Y83901D02*
X805692Y80929D01*
X802720Y83901D02*
X802720Y83901D01*
X803854Y79092D02*
X803854Y79092D01*
X800882Y82064D02*
X803854Y79092D01*
X803854Y75559D02*
X803855Y75560D01*
X797350Y78532D02*
X797350Y78532D01*
X797350Y78532D02*
X800322Y75560D01*
X795513Y76694D02*
X798485Y73722D01*
X798485Y73722D01*
X791981Y73162D02*
X791981Y73162D01*
X791981Y73162D02*
X794952Y70190D01*
X793115Y68353D02*
X793115Y68353D01*
X803150Y49213D02*
X805306Y47056D01*
X788801Y45571D02*
X804420D01*
X790143Y71325D02*
X793115Y68353D01*
X789439Y64964D02*
X789583Y64820D01*
X784695Y62057D02*
X787602Y64964D01*
X784695Y62057D02*
X784695D01*
X784466Y49906D02*
X788801Y45571D01*
X784466Y61828D02*
X784695Y62057D01*
X784466Y49906D02*
Y61828D01*
X816227Y175402D02*
X830616D01*
X814408Y173584D02*
X816227Y175402D01*
X815785Y143443D02*
X815785D01*
X817922Y39182D02*
X820079Y41339D01*
X817922Y37693D02*
Y39182D01*
X816826Y36597D02*
X817922Y37693D01*
X817084Y142144D02*
Y142144D01*
X817287Y134550D02*
Y134550D01*
X813287Y126058D02*
Y126956D01*
X813287Y163570D02*
X813287D01*
Y145941D02*
Y163570D01*
X813287Y172463D02*
X814384Y173559D01*
X813041Y140845D02*
X815785D01*
X813041Y135849D02*
X815988D01*
X811785Y133251D02*
X815988D01*
X813287Y163570D02*
Y172463D01*
X810543Y138347D02*
Y138347D01*
X813287Y126058D02*
X813287D01*
X813287Y102876D02*
Y126058D01*
X784958Y36597D02*
X816826D01*
X778248Y67837D02*
X813287Y102876D01*
X811785Y128256D02*
X811988D01*
X809287Y130753D02*
Y130753D01*
X778248Y43307D02*
X784958Y36597D01*
X778248Y43307D02*
Y67837D01*
X816724Y174204D02*
X830616D01*
X815785Y144641D02*
X815785D01*
X818283Y142144D02*
Y142144D01*
X818486Y134550D02*
Y134550D01*
X814486Y102380D02*
Y126058D01*
X814567Y41339D02*
X816724Y39182D01*
X814486Y126058D02*
Y126956D01*
X816724Y38189D02*
Y39182D01*
X816330Y37795D02*
X816724Y38189D01*
X814486Y171966D02*
X816724Y174204D01*
X814486Y145941D02*
Y163570D01*
X813041Y139646D02*
X815785D01*
X813041Y137048D02*
X815988D01*
X811785Y132052D02*
X815988D01*
X814486Y163570D02*
Y171966D01*
X811741Y138347D02*
Y138347D01*
X811785Y129454D02*
X811988D01*
X779447Y67340D02*
X814486Y102380D01*
X785455Y37795D02*
X816330D01*
X810486Y130753D02*
Y130753D01*
X779447Y43804D02*
X785455Y37795D01*
X779447Y43804D02*
Y67340D01*
X831201Y175987D02*
Y176037D01*
X830616Y175402D02*
X831201Y175987D01*
Y173569D02*
Y173619D01*
X830616Y174204D02*
X831201Y173619D01*
D176*
X51181Y374016D02*
D03*
D177*
X643983Y183417D02*
X650730D01*
X644509Y184687D02*
X650730D01*
X651279Y185236D01*
X650730Y183417D02*
X651279Y182868D01*
X46951Y289663D02*
Y289665D01*
X36226Y288481D02*
X46464D01*
X49114Y272342D02*
Y287501D01*
X44882Y268110D02*
X49114Y272342D01*
X46464Y288481D02*
X47933Y287011D01*
Y272956D02*
Y287011D01*
X43613Y268636D02*
X47933Y272956D01*
X34431Y290275D02*
Y290275D01*
X30935Y292549D02*
X32157D01*
X34431Y290275D01*
X30154Y291768D02*
X30935Y292549D01*
X34431Y290275D02*
X36226Y288481D01*
X30154Y289709D02*
X30788Y289075D01*
X30154Y289709D02*
Y291768D01*
X43613Y267076D02*
Y268636D01*
Y267076D02*
X44988Y265701D01*
X44882Y267602D02*
Y268110D01*
Y267602D02*
X45514Y266970D01*
X46399D01*
X46949Y267520D01*
X44988Y265701D02*
X46399D01*
X46949Y265151D01*
X35616Y290766D02*
Y290766D01*
X32648Y293734D02*
X35616Y290766D01*
X36716Y289665D02*
X46951D01*
X35616Y290766D02*
X36716Y289665D01*
X30444Y293734D02*
X32648D01*
X28969Y292258D02*
X30444Y293734D01*
X28969Y289624D02*
Y292258D01*
X46951Y289663D02*
X49114Y287501D01*
X28419Y289075D02*
X28969Y289624D01*
D178*
X76673Y319272D02*
X413898D01*
X425787Y307382D01*
X435380D01*
X442353Y314355D01*
X143945Y339173D02*
X158760Y353988D01*
X63445Y339173D02*
X143945D01*
X141239Y344390D02*
X150787Y353939D01*
X123622Y344390D02*
X141239D01*
X127756Y349311D02*
X138335D01*
X120965Y356102D02*
X127756Y349311D01*
X138335D02*
X143012Y353988D01*
X442353Y314355D02*
X450802D01*
X473228Y309294D02*
Y321654D01*
X470922Y306988D02*
X473228Y309294D01*
X467996Y306988D02*
X470922D01*
X462008D02*
X462303D01*
X450802D02*
X462008D01*
X59744Y363583D02*
X125543D01*
X46260Y329035D02*
Y350098D01*
X59744Y363583D01*
X53347Y348819D02*
X60630Y356102D01*
X53347Y344272D02*
Y348819D01*
X46260Y329035D02*
X50722Y324573D01*
X60630Y356102D02*
X120965D01*
X118740Y349272D02*
X123622Y344390D01*
X63346Y349272D02*
X118740D01*
X125543Y363583D02*
X135138Y353988D01*
X462303Y306988D02*
X467996D01*
X76673Y319272D02*
Y323130D01*
Y315472D02*
Y319272D01*
X50722Y324573D02*
X53045D01*
X53347Y324272D01*
D179*
X671094Y309873D02*
G03*
X671094Y307373I1250J-1250D01*
G01*
X671254Y304714D02*
G03*
X671254Y307214I-1250J1250D01*
G01*
X668754Y304714D02*
G03*
X671254Y304714I1250J1250D01*
G01*
X665765Y307702D02*
G03*
X663266Y307702I-1250J-1250D01*
G01*
X663266Y307702D02*
G03*
X663266Y305202I1250J-1250D01*
G01*
X666183Y299785D02*
G03*
X666183Y302285I-1250J1250D01*
G01*
X663683Y299785D02*
G03*
X666183Y299785I1250J1250D01*
G01*
X662180Y301288D02*
G03*
X659680Y301288I-1250J-1250D01*
G01*
D02*
G03*
X659680Y298788I1250J-1250D01*
G01*
X661423Y294546D02*
G03*
X661423Y297045I-1250J1250D01*
G01*
X658923Y294546D02*
G03*
X661423Y294546I1250J1250D01*
G01*
X655766Y297703D02*
G03*
X653266Y297703I-1250J-1250D01*
G01*
D02*
G03*
X653266Y295203I1250J-1250D01*
G01*
X656423Y289546D02*
G03*
X656423Y292046I-1250J1250D01*
G01*
X653923Y289546D02*
G03*
X656423Y289546I1250J1250D01*
G01*
X650766Y292703D02*
G03*
X648266Y292703I-1250J-1250D01*
G01*
D02*
G03*
X648266Y290203I1250J-1250D01*
G01*
X648595Y287374D02*
G03*
X648595Y289874I-1250J1250D01*
G01*
X632185Y253445D02*
Y271260D01*
X637500Y276575D01*
X671094Y309873D02*
X673811Y312590D01*
X671094Y307373D02*
X671254Y307214D01*
X671254Y307214D02*
X671254Y307214D01*
X668754Y304714D02*
X668754Y304714D01*
X665765Y307702D02*
X668754Y304714D01*
X665765Y307702D02*
X665765Y307702D01*
X663266Y307702D02*
X663266Y307702D01*
X663266Y305202D02*
X663266Y305202D01*
X666183Y302285D01*
X666183Y302285D02*
X666183Y302285D01*
X663683Y299785D02*
X663683Y299785D01*
X662180Y301288D02*
X663683Y299785D01*
X662180Y301288D02*
X662180Y301288D01*
X659680Y298788D02*
X659680Y298788D01*
X661423Y297045D01*
X661423Y297045D02*
X661423Y297045D01*
X661423Y294546D02*
X661423Y294546D01*
X658923Y294546D02*
X658923Y294546D01*
X655766Y297703D02*
X658923Y294546D01*
X655766Y297703D02*
X655766Y297703D01*
X653266Y295203D02*
X653266Y295203D01*
X656423Y292046D01*
X656423Y292046D02*
X656423Y292046D01*
X656423Y289546D02*
X656423Y289546D01*
X653923Y289546D02*
X653923Y289546D01*
X650766Y292703D02*
X653923Y289546D01*
X650766Y292703D02*
X650766Y292703D01*
X648266Y290203D02*
X648266Y290203D01*
X648595Y289874D01*
X648595Y289874D02*
X648595Y289874D01*
X648052Y286832D02*
X648595Y287374D01*
X673811Y312590D02*
X674311Y313090D01*
X683446D01*
X763583Y294094D02*
X815588D01*
X817163Y292520D01*
X763583Y299606D02*
X766339Y296850D01*
X817163D01*
X707382Y243209D02*
X763779Y299606D01*
X763583D02*
X763779D01*
X664665Y232579D02*
X668504Y236417D01*
X705905D01*
X662008Y240158D02*
X665059Y243209D01*
X707382D01*
X706004Y220571D02*
X757480Y272047D01*
X679521Y224410D02*
X683359Y220571D01*
X706004D01*
X757480Y272047D02*
X763583D01*
X658169Y224410D02*
X679521D01*
X652264Y211713D02*
X701476D01*
X756299Y266535D01*
X763583D01*
X816966D01*
X763583Y272047D02*
X805118D01*
X699228Y307988D02*
X700311D01*
X700394Y308071D01*
X659252Y268012D02*
X699228Y307988D01*
X635039Y268012D02*
X659252D01*
X705905Y236417D02*
X763500Y294012D01*
X806299Y270866D02*
X816966D01*
X805118Y272047D02*
X806299Y270866D01*
X812598Y288189D02*
X817163D01*
X812205Y288583D02*
X812598Y288189D01*
X763583Y288583D02*
X812205D01*
X703543Y228543D02*
X763583Y288583D01*
X684271Y228543D02*
X703543D01*
X757724Y277559D02*
X763583D01*
X805118D01*
X807087Y279528D02*
X817163D01*
X805118Y277559D02*
X807087Y279528D01*
X704673Y224508D02*
X757724Y277559D01*
X685105Y224508D02*
X704673D01*
X658034Y283366D02*
X685199Y310531D01*
X637205Y283366D02*
X658034D01*
X647539Y286319D02*
X648052Y286832D01*
X632874Y282283D02*
Y284055D01*
X635138Y286319D01*
X631791Y279429D02*
X658465D01*
X685199Y310531D02*
X687697D01*
X635138Y286319D02*
X647539D01*
X637500Y276575D02*
X659744D01*
X693012Y309842D01*
X658465Y279429D02*
X683957Y304921D01*
X698465Y311260D02*
Y313130D01*
X657874Y270669D02*
X698465Y311260D01*
X637008Y270669D02*
X657874D01*
X693012Y309842D02*
Y318110D01*
D180*
X592717Y289665D02*
X606201Y276181D01*
Y251575D02*
Y276181D01*
Y251575D02*
X611221Y246555D01*
X589712Y286122D02*
X602461Y273374D01*
Y249803D02*
X611122Y241142D01*
X602461Y249803D02*
Y273374D01*
X607874Y252461D02*
X611614Y248721D01*
X607874Y252461D02*
Y278051D01*
X594488Y291437D02*
X607874Y278051D01*
X623032Y246555D02*
X626201Y243386D01*
X611221Y246555D02*
X623032D01*
X610827Y244291D02*
X621850D01*
X604335Y250783D02*
X610827Y244291D01*
X626201Y241162D02*
Y243386D01*
X626181Y241142D02*
X626201Y241162D01*
X611122Y241142D02*
X621850D01*
X519320Y287963D02*
X591171D01*
X604335Y250783D02*
Y274799D01*
X591171Y287963D02*
X604335Y274799D01*
X520276Y289665D02*
X592717D01*
X520965Y291437D02*
X594488D01*
X514961Y286122D02*
X589712D01*
X504823Y296260D02*
X514961Y286122D01*
X512303Y294980D02*
X519320Y287963D01*
X514272Y295669D02*
X520276Y289665D01*
X516405Y295996D02*
X520965Y291437D01*
X542323Y322047D02*
X569193Y295177D01*
X604528D01*
X615158Y284547D01*
X514075Y322047D02*
X542323D01*
X507480Y328642D02*
X514075Y322047D01*
X611614Y248721D02*
X621850D01*
X504823Y296260D02*
Y304626D01*
X512303Y294980D02*
Y307382D01*
X514272Y295669D02*
Y308858D01*
X516405Y295996D02*
Y311252D01*
X485335Y322146D02*
Y322146D01*
Y322146D02*
X492520Y314961D01*
X504724D01*
X489173Y321920D02*
X493967Y317126D01*
X506004D01*
X504724Y314961D02*
X512303Y307382D01*
X506004Y317126D02*
X514272Y308858D01*
X508465Y319193D02*
X516405Y311252D01*
X495177Y319193D02*
X508465D01*
X493110Y321260D02*
X495177Y319193D01*
X490158Y312894D02*
X496555D01*
X504823Y304626D01*
X484842Y318209D02*
X490158Y312894D01*
D181*
X470177Y145866D02*
X570398D01*
X433169Y108858D02*
X470177Y145866D01*
X433169Y62106D02*
Y108858D01*
X462008Y306988D02*
Y307390D01*
Y297244D02*
Y306988D01*
Y307390D02*
Y316929D01*
X462303Y306988D02*
Y307095D01*
X462008Y307390D02*
X462303Y307095D01*
X471161Y283169D02*
Y294587D01*
X467913Y297835D02*
X471161Y294587D01*
X467913Y306906D02*
X467996Y306988D01*
X467913Y297835D02*
Y306906D01*
D186*
X53347Y314272D02*
D03*
X63346Y329272D02*
D03*
X53347Y304272D02*
D03*
X63346Y309272D02*
D03*
Y349272D02*
D03*
Y339272D02*
D03*
Y319272D02*
D03*
X53347Y344272D02*
D03*
Y334272D02*
D03*
Y324272D02*
D03*
D187*
X28346Y349272D02*
D03*
Y304272D02*
D03*
D188*
X18307Y353543D02*
D03*
X10315Y300000D02*
D03*
Y353543D02*
D03*
X18307Y300000D02*
D03*
D189*
X40354Y295886D02*
D03*
Y357658D02*
D03*
D190*
X27874Y281496D02*
D03*
X31418D02*
D03*
X19016Y278425D02*
D03*
X22559D02*
D03*
X26103D02*
D03*
X29646D02*
D03*
X33189D02*
D03*
X34961Y281496D02*
D03*
X24331D02*
D03*
X20788D02*
D03*
X38504D02*
D03*
X17244D02*
D03*
X15473Y278425D02*
D03*
X36733D02*
D03*
D191*
X17441Y285591D02*
D03*
Y274331D02*
D03*
X36339D02*
D03*
Y285591D02*
D03*
D192*
X697479Y376772D02*
D03*
X687479D02*
D03*
X677479D02*
D03*
X667480D02*
D03*
X647480D02*
D03*
X657480D02*
D03*
X627480D02*
D03*
X617480D02*
D03*
X607480D02*
D03*
X637480D02*
D03*
X757165Y303937D02*
D03*
X737165D02*
D03*
X747165D02*
D03*
D193*
X784370Y197324D02*
D03*
X794370D02*
D03*
X784370Y207324D02*
D03*
X794370D02*
D03*
X784370Y217324D02*
D03*
X794370D02*
D03*
Y227324D02*
D03*
X784370D02*
D03*
X794370Y237324D02*
D03*
X784370D02*
D03*
Y147324D02*
D03*
X794370D02*
D03*
X784370Y157324D02*
D03*
X794370D02*
D03*
X784370Y167324D02*
D03*
X794370D02*
D03*
Y177324D02*
D03*
X784370D02*
D03*
X794370Y187324D02*
D03*
X784370D02*
D03*
Y97324D02*
D03*
X794370D02*
D03*
X784370Y107324D02*
D03*
X794370D02*
D03*
X784370Y117324D02*
D03*
X794370D02*
D03*
Y127324D02*
D03*
X784370D02*
D03*
X794370Y137324D02*
D03*
X784370D02*
D03*
D194*
X845830Y335373D02*
D03*
D195*
X795436Y327105D02*
D03*
X817090Y343640D02*
D03*
Y327105D02*
D03*
X795436Y343640D02*
D03*
X829122Y335373D02*
D03*
X807075Y322381D02*
D03*
Y348365D02*
D03*
D196*
X737165Y315748D02*
D03*
D197*
X727165D02*
D03*
X7441Y223346D02*
D03*
Y233347D02*
D03*
X17441D02*
D03*
Y223346D02*
D03*
X27441Y233347D02*
D03*
Y223346D02*
D03*
X37441Y233347D02*
D03*
Y223346D02*
D03*
X7441Y245000D02*
D03*
Y255000D02*
D03*
X17441D02*
D03*
Y245000D02*
D03*
X27441Y255000D02*
D03*
Y245000D02*
D03*
X37441Y255000D02*
D03*
Y245000D02*
D03*
D198*
X803150Y49213D02*
D03*
X808661D02*
D03*
X831102Y57087D02*
D03*
X836614D02*
D03*
X798032D02*
D03*
X797638Y49213D02*
D03*
X798032Y41339D02*
D03*
X797638Y33465D02*
D03*
X798032Y25591D02*
D03*
X797638Y17717D02*
D03*
X803543Y57087D02*
D03*
Y41339D02*
D03*
X803150Y33465D02*
D03*
X803543Y25591D02*
D03*
X803150Y17717D02*
D03*
X809055Y57087D02*
D03*
Y41339D02*
D03*
X808661Y33465D02*
D03*
X809055Y25591D02*
D03*
X808661Y17717D02*
D03*
X814567Y57087D02*
D03*
X814173Y49213D02*
D03*
X814567Y41339D02*
D03*
X814173Y33465D02*
D03*
X814567Y25591D02*
D03*
X814173Y17717D02*
D03*
X820079Y57087D02*
D03*
X819685Y49213D02*
D03*
X820079Y41339D02*
D03*
X819685Y33465D02*
D03*
X820079Y25591D02*
D03*
X819685Y17717D02*
D03*
X825591Y57087D02*
D03*
X825197Y49213D02*
D03*
X825591Y41339D02*
D03*
X825197Y33465D02*
D03*
X825591Y25591D02*
D03*
X825197Y17717D02*
D03*
X830709Y49213D02*
D03*
X831102Y41339D02*
D03*
X830709Y33465D02*
D03*
X831102Y25591D02*
D03*
X830709Y17717D02*
D03*
X836220Y49213D02*
D03*
X836614Y41339D02*
D03*
X836220Y33465D02*
D03*
X836614Y25591D02*
D03*
X836220Y17717D02*
D03*
X842126Y57087D02*
D03*
X841732Y49213D02*
D03*
X842126Y41339D02*
D03*
X841732Y33465D02*
D03*
X842126Y25591D02*
D03*
X841732Y17717D02*
D03*
X847638Y57087D02*
D03*
X847244Y49213D02*
D03*
X847638Y41339D02*
D03*
X847244Y33465D02*
D03*
X847638Y25591D02*
D03*
X847244Y17717D02*
D03*
X853150Y57087D02*
D03*
X852756Y49213D02*
D03*
X853150Y41339D02*
D03*
X852756Y33465D02*
D03*
X853150Y25591D02*
D03*
X852756Y17717D02*
D03*
X858661Y57087D02*
D03*
X858268Y49213D02*
D03*
X858661Y41339D02*
D03*
X858268Y33465D02*
D03*
X858661Y25591D02*
D03*
X858268Y17717D02*
D03*
D199*
X464567Y218134D02*
D03*
Y208134D02*
D03*
Y198134D02*
D03*
Y188134D02*
D03*
Y178134D02*
D03*
Y168134D02*
D03*
Y18086D02*
D03*
Y28086D02*
D03*
Y48086D02*
D03*
Y38086D02*
D03*
D200*
X727165Y303937D02*
D03*
D201*
X19906Y21700D02*
D03*
Y371700D02*
D03*
D202*
X31496Y78720D02*
D03*
Y179508D02*
D03*
Y173209D02*
D03*
Y166909D02*
D03*
Y160610D02*
D03*
Y154311D02*
D03*
Y148012D02*
D03*
Y141713D02*
D03*
Y103917D02*
D03*
Y97618D02*
D03*
Y91319D02*
D03*
Y85020D02*
D03*
Y135413D02*
D03*
Y129114D02*
D03*
Y122815D02*
D03*
Y116516D02*
D03*
Y110216D02*
D03*
X26969Y182658D02*
D03*
Y176358D02*
D03*
Y170059D02*
D03*
Y163760D02*
D03*
Y157461D02*
D03*
Y151161D02*
D03*
Y144862D02*
D03*
Y107067D02*
D03*
Y100768D02*
D03*
Y94468D02*
D03*
Y88169D02*
D03*
Y81870D02*
D03*
Y138563D02*
D03*
Y132264D02*
D03*
Y125965D02*
D03*
Y119665D02*
D03*
Y113366D02*
D03*
X22244Y177933D02*
D03*
Y171634D02*
D03*
Y165335D02*
D03*
Y159035D02*
D03*
Y152736D02*
D03*
Y146437D02*
D03*
Y140138D02*
D03*
Y133839D02*
D03*
Y127539D02*
D03*
Y121240D02*
D03*
Y114941D02*
D03*
Y108642D02*
D03*
Y102342D02*
D03*
Y96043D02*
D03*
Y89744D02*
D03*
Y83445D02*
D03*
Y77146D02*
D03*
X17717Y181083D02*
D03*
Y174784D02*
D03*
Y168484D02*
D03*
Y162185D02*
D03*
Y155886D02*
D03*
Y149587D02*
D03*
Y143287D02*
D03*
Y136988D02*
D03*
Y130689D02*
D03*
Y124390D02*
D03*
Y118090D02*
D03*
Y111791D02*
D03*
Y105492D02*
D03*
Y99193D02*
D03*
Y92894D02*
D03*
Y86594D02*
D03*
Y80295D02*
D03*
D203*
X12284Y212402D02*
D03*
Y47441D02*
D03*
D204*
X22638Y193602D02*
D03*
X22638Y66240D02*
D03*
D205*
X42224Y269783D02*
D03*
X431890Y244980D02*
D03*
X439075Y240846D02*
D03*
X437402Y243012D02*
D03*
X70768Y267523D02*
D03*
Y265154D02*
D03*
X651279Y182868D02*
D03*
Y185236D02*
D03*
X72106Y229528D02*
D03*
Y240158D02*
D03*
Y235039D02*
D03*
Y224016D02*
D03*
Y218504D02*
D03*
Y245669D02*
D03*
Y251181D02*
D03*
Y256693D02*
D03*
X860084Y88583D02*
D03*
X857615D02*
D03*
X835096Y70866D02*
D03*
X832627D02*
D03*
X614961Y166831D02*
D03*
X608268Y149016D02*
D03*
X600984Y219488D02*
D03*
X600295Y225394D02*
D03*
X594587Y242618D02*
D03*
X573524Y243209D02*
D03*
X451181Y237402D02*
D03*
X262008Y330217D02*
D03*
X428999Y311414D02*
D03*
Y313783D02*
D03*
X428999Y300341D02*
D03*
Y302809D02*
D03*
X631791Y279429D02*
D03*
X669095Y273819D02*
D03*
X757480Y97244D02*
D03*
Y111909D02*
D03*
X831201Y143648D02*
D03*
Y146116D02*
D03*
Y160683D02*
D03*
Y158215D02*
D03*
Y176037D02*
D03*
Y173569D02*
D03*
X193602Y335138D02*
D03*
X195669Y337303D02*
D03*
X343307Y282972D02*
D03*
X340748Y281004D02*
D03*
X599213Y249016D02*
D03*
X597047Y246063D02*
D03*
X599311Y240846D02*
D03*
X632185Y253445D02*
D03*
X604528Y159941D02*
D03*
X423425Y155905D02*
D03*
X776181Y308957D02*
D03*
X773622D02*
D03*
X688976Y214272D02*
D03*
X604134Y225886D02*
D03*
X658169Y224410D02*
D03*
X693209Y214370D02*
D03*
X652264Y211713D02*
D03*
X722835Y225590D02*
D03*
X683268Y208760D02*
D03*
X596161Y223425D02*
D03*
Y227362D02*
D03*
X653839Y258858D02*
D03*
X657776D02*
D03*
X655807Y260827D02*
D03*
X659744D02*
D03*
X661713Y258858D02*
D03*
X763583Y299606D02*
D03*
Y266535D02*
D03*
Y272047D02*
D03*
Y305118D02*
D03*
Y294094D02*
D03*
Y288583D02*
D03*
Y283071D02*
D03*
Y277559D02*
D03*
X684271Y228543D02*
D03*
X685105Y224508D02*
D03*
X662008Y240158D02*
D03*
X664665Y232579D02*
D03*
X689764Y248819D02*
D03*
X778839Y302165D02*
D03*
X716339Y281693D02*
D03*
X778839Y258465D02*
D03*
X797441Y256724D02*
D03*
X661614Y243996D02*
D03*
X690945Y288142D02*
D03*
X714567Y285630D02*
D03*
X717224D02*
D03*
X610925Y170177D02*
D03*
X570398Y145866D02*
D03*
X614075Y174902D02*
D03*
X632677Y176772D02*
D03*
X626968Y210236D02*
D03*
X626575Y212697D02*
D03*
X621850Y244291D02*
D03*
X626181Y241142D02*
D03*
X621850D02*
D03*
X604823Y218012D02*
D03*
X607776Y161811D02*
D03*
X699902Y181004D02*
D03*
X654528Y191929D02*
D03*
X640453Y179823D02*
D03*
X628937Y189075D02*
D03*
X548622Y216535D02*
D03*
X482874Y218110D02*
D03*
X559845Y226867D02*
D03*
X617421Y261811D02*
D03*
X614764Y264764D02*
D03*
X621850Y248721D02*
D03*
X643701Y258661D02*
D03*
X646949Y255807D02*
D03*
X635827Y258071D02*
D03*
X635039Y268012D02*
D03*
X669685Y300295D02*
D03*
X632874Y282283D02*
D03*
X637205Y283366D02*
D03*
X683957Y304921D02*
D03*
X687697Y310531D02*
D03*
X643996Y300492D02*
D03*
X700394Y308071D02*
D03*
X11220Y290551D02*
D03*
X473228Y321654D02*
D03*
X471161Y283169D02*
D03*
X462008Y316929D02*
D03*
X817163Y288189D02*
D03*
X693012Y318110D02*
D03*
X485335Y322146D02*
D03*
X489173Y321920D02*
D03*
X683169Y233071D02*
D03*
X443898Y319390D02*
D03*
X648425Y124705D02*
D03*
X704331Y89764D02*
D03*
X522146Y311024D02*
D03*
Y305118D02*
D03*
X464961Y267224D02*
D03*
X433563Y144783D02*
D03*
X428445Y144882D02*
D03*
X722835Y207480D02*
D03*
X462992Y325492D02*
D03*
X63386Y288681D02*
D03*
X70079Y270571D02*
D03*
X30788Y289075D02*
D03*
X46949Y267520D02*
D03*
Y265151D02*
D03*
X28419Y289075D02*
D03*
X57579Y285433D02*
D03*
X57185Y274410D02*
D03*
X63386Y258760D02*
D03*
X44161Y279528D02*
D03*
X601378Y214665D02*
D03*
X450802Y314355D02*
D03*
X450773Y299621D02*
D03*
X423425Y175984D02*
D03*
X461909Y291732D02*
D03*
X461811Y286221D02*
D03*
X462303Y306988D02*
D03*
X462008Y297244D02*
D03*
X457382Y319390D02*
D03*
X82972Y323110D02*
D03*
Y315453D02*
D03*
X76673Y315472D02*
D03*
Y323130D02*
D03*
X255807Y336024D02*
D03*
X255807Y328645D02*
D03*
X543996Y166443D02*
D03*
X652264Y71752D02*
D03*
X698754Y67815D02*
D03*
Y70472D02*
D03*
X638091Y31201D02*
D03*
X636024Y14567D02*
D03*
X770374Y44685D02*
D03*
X754035Y43898D02*
D03*
X611417Y323917D02*
D03*
X642717Y28642D02*
D03*
X635630D02*
D03*
Y36319D02*
D03*
X645374Y18209D02*
D03*
X622441Y23524D02*
D03*
X655905Y38878D02*
D03*
X657579Y23524D02*
D03*
X668012Y260827D02*
D03*
X817163Y279528D02*
D03*
X763681Y240059D02*
D03*
X695866Y261260D02*
D03*
X667618Y270669D02*
D03*
X741339Y362697D02*
D03*
X629626Y313976D02*
D03*
X614468Y308268D02*
D03*
X614468Y320669D02*
D03*
X679134Y78347D02*
D03*
X709646Y76673D02*
D03*
X679134Y96457D02*
D03*
X679134Y83071D02*
D03*
X721063Y72835D02*
D03*
X734941Y67716D02*
D03*
X679134Y64961D02*
D03*
X610630Y163921D02*
D03*
X543209Y174016D02*
D03*
X835827Y316535D02*
D03*
X835827Y255906D02*
D03*
X817163Y275197D02*
D03*
X570374Y262598D02*
D03*
X614764Y77559D02*
D03*
X593898Y117717D02*
D03*
X591339Y104823D02*
D03*
X618110Y92028D02*
D03*
X614764Y117717D02*
D03*
X600394Y307972D02*
D03*
X599793Y320598D02*
D03*
X600098Y326153D02*
D03*
X588583Y320374D02*
D03*
X605118Y303642D02*
D03*
X611417D02*
D03*
X648819Y320453D02*
D03*
X659842Y320453D02*
D03*
X654331Y320453D02*
D03*
X572638Y218504D02*
D03*
X765551Y244781D02*
D03*
X248820Y343309D02*
D03*
X239369Y343309D02*
D03*
X244094Y339864D02*
D03*
X244094Y380610D02*
D03*
X248820Y377165D02*
D03*
X239369Y377165D02*
D03*
X179724Y365592D02*
D03*
X170374Y352364D02*
D03*
X572342Y305906D02*
D03*
Y311417D02*
D03*
X451476Y332283D02*
D03*
X727264Y192461D02*
D03*
X713583Y173622D02*
D03*
X567224Y210335D02*
D03*
X579429Y231102D02*
D03*
Y237402D02*
D03*
X448425Y62106D02*
D03*
X447146Y71653D02*
D03*
X672854Y303130D02*
D03*
X714173Y309350D02*
D03*
X698465Y313130D02*
D03*
X683563Y313091D02*
D03*
X714173Y322539D02*
D03*
X581103Y99902D02*
D03*
X556299Y83268D02*
D03*
X546457Y116634D02*
D03*
X492618Y268898D02*
D03*
X42165Y366142D02*
D03*
X588583Y302461D02*
D03*
X576378Y320374D02*
D03*
X605315Y284941D02*
D03*
X637008Y270669D02*
D03*
X555906Y67618D02*
D03*
X546063D02*
D03*
X522146Y283071D02*
D03*
X507874Y271161D02*
D03*
X502362D02*
D03*
X496850D02*
D03*
X497244Y335531D02*
D03*
X491732D02*
D03*
X486221D02*
D03*
X683169Y278346D02*
D03*
X638976Y301673D02*
D03*
X632677D02*
D03*
X674705Y190157D02*
D03*
X817163Y296850D02*
D03*
X493110Y321260D02*
D03*
X816966Y266535D02*
D03*
Y270866D02*
D03*
X817163Y292520D02*
D03*
X597441Y212106D02*
D03*
X713583Y151969D02*
D03*
Y126378D02*
D03*
Y121653D02*
D03*
X395276Y137303D02*
D03*
X585335Y206693D02*
D03*
X579823Y250787D02*
D03*
Y257087D02*
D03*
Y282677D02*
D03*
Y276378D02*
D03*
X508563Y302264D02*
D03*
X481890Y284449D02*
D03*
X522146Y316535D02*
D03*
X522146Y327165D02*
D03*
X522146Y294094D02*
D03*
X713583Y147244D02*
D03*
X713583Y196850D02*
D03*
Y215354D02*
D03*
Y220079D02*
D03*
X407382Y134744D02*
D03*
X390945Y175787D02*
D03*
X395276Y141240D02*
D03*
X395669Y176575D02*
D03*
Y180610D02*
D03*
X713583Y210630D02*
D03*
X722835Y113583D02*
D03*
X713583Y116535D02*
D03*
X713583Y142126D02*
D03*
X722835Y139173D02*
D03*
X713583Y163779D02*
D03*
X722835Y160827D02*
D03*
X727264Y157185D02*
D03*
Y131595D02*
D03*
Y187461D02*
D03*
Y178839D02*
D03*
Y225295D02*
D03*
X722835Y205315D02*
D03*
X713583Y202362D02*
D03*
X582382Y177953D02*
D03*
X405905Y152657D02*
D03*
X406299Y192027D02*
D03*
X397835Y168898D02*
D03*
X397441Y129528D02*
D03*
X387008Y125394D02*
D03*
X387402Y164764D02*
D03*
X75394Y197244D02*
D03*
X58071Y203937D02*
D03*
X57677Y66142D02*
D03*
X60630Y188583D02*
D03*
Y197244D02*
D03*
X756988Y25591D02*
D03*
X343307Y279035D02*
D03*
X51181Y183760D02*
D03*
X470276Y267323D02*
D03*
X475591Y267224D02*
D03*
X668504Y195965D02*
D03*
X662205D02*
D03*
X636614D02*
D03*
X683169Y284646D02*
D03*
Y252756D02*
D03*
Y259055D02*
D03*
Y239370D02*
D03*
X614961Y190059D02*
D03*
X621260D02*
D03*
X642913Y195965D02*
D03*
X615158Y284547D02*
D03*
X507480Y328642D02*
D03*
X484842Y318209D02*
D03*
X480709Y335531D02*
D03*
X451476Y325984D02*
D03*
D206*
X215748Y13878D02*
D03*
X333563D02*
D03*
X326575Y13878D02*
D03*
X350886Y17323D02*
D03*
X350787Y27657D02*
D03*
X291142Y15748D02*
D03*
Y49213D02*
D03*
Y82677D02*
D03*
Y116142D02*
D03*
Y149606D02*
D03*
X251476Y88976D02*
D03*
X254134Y80709D02*
D03*
X251378Y84350D02*
D03*
X254134Y91535D02*
D03*
X251476Y122441D02*
D03*
X254134Y114173D02*
D03*
X251378Y117815D02*
D03*
X254134Y125000D02*
D03*
X251476Y155905D02*
D03*
X254134Y147638D02*
D03*
X251378Y151279D02*
D03*
X254134Y158465D02*
D03*
X251476Y189370D02*
D03*
X254134Y181102D02*
D03*
X251378Y184744D02*
D03*
X254134Y191929D02*
D03*
X251476Y222835D02*
D03*
X254134Y214567D02*
D03*
X251378Y218209D02*
D03*
X254134Y225394D02*
D03*
X251476Y256299D02*
D03*
X254134Y248031D02*
D03*
X251378Y251673D02*
D03*
X254134Y258858D02*
D03*
X251476Y55512D02*
D03*
X254134Y47244D02*
D03*
X251378Y50886D02*
D03*
X254134Y58071D02*
D03*
X210433Y214665D02*
D03*
X210433Y247933D02*
D03*
X355906Y40945D02*
D03*
Y74410D02*
D03*
X539370Y196260D02*
D03*
X527559D02*
D03*
X515748D02*
D03*
X550000Y141929D02*
D03*
X513779D02*
D03*
X540945D02*
D03*
X531890D02*
D03*
X522835D02*
D03*
X504724D02*
D03*
X143012Y353988D02*
D03*
X135138D02*
D03*
X158760D02*
D03*
X150787Y353939D02*
D03*
X433169Y62106D02*
D03*
X320079Y264567D02*
D03*
Y256693D02*
D03*
X327953D02*
D03*
Y264567D02*
D03*
X320079Y231102D02*
D03*
Y223228D02*
D03*
X327953D02*
D03*
Y231102D02*
D03*
X320079Y197638D02*
D03*
Y189764D02*
D03*
X327953D02*
D03*
Y197638D02*
D03*
X320079Y164173D02*
D03*
Y156299D02*
D03*
X327953D02*
D03*
Y164173D02*
D03*
X320079Y130709D02*
D03*
Y122835D02*
D03*
X327953D02*
D03*
Y130709D02*
D03*
X320079Y97244D02*
D03*
Y89370D02*
D03*
X327953D02*
D03*
Y97244D02*
D03*
X320079Y63779D02*
D03*
Y55905D02*
D03*
X327953D02*
D03*
Y63779D02*
D03*
X320079Y30315D02*
D03*
Y22441D02*
D03*
X327953D02*
D03*
Y30315D02*
D03*
X203937D02*
D03*
Y22441D02*
D03*
X211811D02*
D03*
Y30315D02*
D03*
X203937Y63779D02*
D03*
Y55905D02*
D03*
X211811D02*
D03*
Y63779D02*
D03*
X203937Y97244D02*
D03*
Y89370D02*
D03*
X211811D02*
D03*
Y97244D02*
D03*
X203937Y130709D02*
D03*
Y122835D02*
D03*
X211811D02*
D03*
Y130709D02*
D03*
X203937Y264567D02*
D03*
Y256693D02*
D03*
X211811D02*
D03*
Y264567D02*
D03*
X203937Y231102D02*
D03*
Y223228D02*
D03*
X211811D02*
D03*
Y231102D02*
D03*
X203937Y197638D02*
D03*
Y189764D02*
D03*
X211811D02*
D03*
Y197638D02*
D03*
Y164173D02*
D03*
Y156299D02*
D03*
X203937D02*
D03*
Y164173D02*
D03*
X659842Y304914D02*
D03*
X368110Y186805D02*
D03*
X368215Y191339D02*
D03*
Y195476D02*
D03*
Y199614D02*
D03*
X368110Y175065D02*
D03*
Y182518D02*
D03*
X367717Y143148D02*
D03*
Y147435D02*
D03*
Y132283D02*
D03*
X368110Y171653D02*
D03*
X367821Y151969D02*
D03*
Y156106D02*
D03*
Y160244D02*
D03*
X367717Y139370D02*
D03*
X368110Y178740D02*
D03*
X367717Y135695D02*
D03*
X336319Y40945D02*
D03*
X279921Y40945D02*
D03*
X309547D02*
D03*
X290945Y26772D02*
D03*
X254134Y24606D02*
D03*
X251378Y17421D02*
D03*
X254134Y13780D02*
D03*
X317618Y13878D02*
D03*
X321457D02*
D03*
X251476Y22047D02*
D03*
X220177Y74410D02*
D03*
X174803Y49213D02*
D03*
X163779Y74410D02*
D03*
X193405D02*
D03*
X174803Y60236D02*
D03*
X239764Y74410D02*
D03*
X210433Y47343D02*
D03*
X212992Y44685D02*
D03*
X205315Y47343D02*
D03*
X201476D02*
D03*
X234744Y50787D02*
D03*
X234646Y61122D02*
D03*
X336319Y74410D02*
D03*
X279921Y74410D02*
D03*
X309547D02*
D03*
X290945Y60236D02*
D03*
X317618Y47343D02*
D03*
X321457D02*
D03*
X329134Y44685D02*
D03*
X326575Y47343D02*
D03*
X350787Y61122D02*
D03*
X350886Y50787D02*
D03*
X220177Y107874D02*
D03*
X174803Y82677D02*
D03*
X163779Y107874D02*
D03*
X193405D02*
D03*
X174803Y93701D02*
D03*
X239764Y107874D02*
D03*
X210433Y80807D02*
D03*
X212992Y78150D02*
D03*
X205315Y80807D02*
D03*
X201476D02*
D03*
X234744Y84252D02*
D03*
X234646Y94587D02*
D03*
X336319Y107874D02*
D03*
X279921Y107874D02*
D03*
X309547D02*
D03*
X290945Y93701D02*
D03*
X355906Y107874D02*
D03*
X326575Y80807D02*
D03*
X329134Y78150D02*
D03*
X321457Y80807D02*
D03*
X317618D02*
D03*
X350787Y94587D02*
D03*
X350886Y84252D02*
D03*
X220177Y141339D02*
D03*
X174803Y116142D02*
D03*
X163779Y141339D02*
D03*
X193405D02*
D03*
X239764Y141339D02*
D03*
X210433Y114272D02*
D03*
X212992Y111614D02*
D03*
X205315Y114272D02*
D03*
X201476D02*
D03*
X234646Y128051D02*
D03*
X234744Y117717D02*
D03*
X174803Y127165D02*
D03*
X336319Y141339D02*
D03*
X279921Y141339D02*
D03*
X309547D02*
D03*
X290945Y127165D02*
D03*
X355906Y141339D02*
D03*
X326575Y114272D02*
D03*
X329134Y111614D02*
D03*
X321457Y114272D02*
D03*
X317618D02*
D03*
X350787Y128051D02*
D03*
X350886Y117717D02*
D03*
X239764Y174803D02*
D03*
X220177D02*
D03*
X174803Y149606D02*
D03*
X163779Y174803D02*
D03*
X193405D02*
D03*
X174803Y160630D02*
D03*
X210433Y147736D02*
D03*
X212992Y145079D02*
D03*
X205315Y147736D02*
D03*
X201476D02*
D03*
X234646Y161516D02*
D03*
X234744Y151181D02*
D03*
X336319Y174803D02*
D03*
X279921Y174803D02*
D03*
X309547D02*
D03*
X290945Y160630D02*
D03*
X355906Y174803D02*
D03*
X317618Y147736D02*
D03*
X321457D02*
D03*
X329134Y145079D02*
D03*
X326575Y147736D02*
D03*
X350886Y151181D02*
D03*
X350787Y161516D02*
D03*
X220177Y208268D02*
D03*
X174803Y183071D02*
D03*
X163779Y208268D02*
D03*
X193405D02*
D03*
X174803Y194095D02*
D03*
X239764Y208268D02*
D03*
X201476Y181201D02*
D03*
X205315D02*
D03*
X212992Y178543D02*
D03*
X210433Y181201D02*
D03*
X234744Y184646D02*
D03*
X234646Y194980D02*
D03*
X336319Y208268D02*
D03*
X290945Y183071D02*
D03*
X279921Y208268D02*
D03*
X309547D02*
D03*
X290945Y194095D02*
D03*
X355906Y208268D02*
D03*
X317618Y181201D02*
D03*
X321457D02*
D03*
X329134Y178543D02*
D03*
X326575Y181201D02*
D03*
X350886Y184646D02*
D03*
X350787Y194980D02*
D03*
X220177Y241732D02*
D03*
X174803Y216535D02*
D03*
X163779Y241732D02*
D03*
X193405D02*
D03*
X174803Y227559D02*
D03*
X239764Y241732D02*
D03*
X201476Y214665D02*
D03*
X205315D02*
D03*
X212992Y212008D02*
D03*
X234744Y218110D02*
D03*
X234646Y228445D02*
D03*
X336319Y241732D02*
D03*
X290945Y216535D02*
D03*
X279921Y241732D02*
D03*
X309547D02*
D03*
X290945Y227559D02*
D03*
X355906Y241732D02*
D03*
X317618Y214665D02*
D03*
X321457D02*
D03*
X329134Y212008D02*
D03*
X326575Y214665D02*
D03*
X350886Y218110D02*
D03*
X350787Y228445D02*
D03*
X234744Y251575D02*
D03*
X234646Y261910D02*
D03*
X220177Y275197D02*
D03*
X174803Y250000D02*
D03*
X163779Y275197D02*
D03*
X193405D02*
D03*
X174803Y261024D02*
D03*
X212992Y245473D02*
D03*
X205315Y248130D02*
D03*
X201476D02*
D03*
X239764Y275197D02*
D03*
X336319D02*
D03*
X290945Y250000D02*
D03*
X279921Y275197D02*
D03*
X309547D02*
D03*
X290945Y261024D02*
D03*
X355906Y275197D02*
D03*
X317618Y248130D02*
D03*
X321457D02*
D03*
X329134Y245473D02*
D03*
X326575Y248130D02*
D03*
X350886Y251575D02*
D03*
X350787Y261910D02*
D03*
X174803Y26772D02*
D03*
X234646Y27657D02*
D03*
X234744Y17323D02*
D03*
X201476Y13878D02*
D03*
X205315D02*
D03*
X210433D02*
D03*
X239764Y40945D02*
D03*
X193405Y40945D02*
D03*
X163779D02*
D03*
X174803Y15748D02*
D03*
X220177Y40945D02*
D03*
D207*
X725591Y78347D02*
D03*
X731102D02*
D03*
X725591Y75591D02*
D03*
X728346D02*
D03*
X731102Y81102D02*
D03*
X728346D02*
D03*
X731102Y75591D02*
D03*
X728346Y78347D02*
D03*
X725591Y81102D02*
D03*
X725591Y92126D02*
D03*
X728346Y89370D02*
D03*
X731102Y86614D02*
D03*
X728346Y92126D02*
D03*
X731102D02*
D03*
X728346Y86614D02*
D03*
X725591D02*
D03*
X731102Y89370D02*
D03*
X725591D02*
D03*
X795669Y365354D02*
D03*
X790158Y370866D02*
D03*
Y368110D02*
D03*
Y365354D02*
D03*
X792913D02*
D03*
Y370866D02*
D03*
X795669Y368110D02*
D03*
Y370866D02*
D03*
X792913Y368110D02*
D03*
X493307Y100000D02*
D03*
X496063D02*
D03*
X493307Y94488D02*
D03*
X496063D02*
D03*
X490551Y97244D02*
D03*
X496063D02*
D03*
X493307D02*
D03*
X490551Y100000D02*
D03*
Y94488D02*
D03*
X852264Y368110D02*
D03*
Y365354D02*
D03*
Y370866D02*
D03*
X849508Y365354D02*
D03*
Y370866D02*
D03*
X846752Y365354D02*
D03*
Y368110D02*
D03*
Y370866D02*
D03*
X849508Y368110D02*
D03*
X746850Y17717D02*
D03*
X749606Y20472D02*
D03*
Y17717D02*
D03*
X746850Y20472D02*
D03*
Y14961D02*
D03*
X744095D02*
D03*
Y17717D02*
D03*
Y20472D02*
D03*
X749606Y14961D02*
D03*
X538977Y121654D02*
D03*
X541733D02*
D03*
X536221D02*
D03*
X533465D02*
D03*
X550000D02*
D03*
X552756D02*
D03*
X547245D02*
D03*
X544489D02*
D03*
X561024D02*
D03*
X563780D02*
D03*
X558268D02*
D03*
X555512D02*
D03*
X566536D02*
D03*
X569292D02*
D03*
X574803D02*
D03*
X577559D02*
D03*
X572048D02*
D03*
X555020Y98032D02*
D03*
Y100788D02*
D03*
Y103544D02*
D03*
X529922Y98032D02*
D03*
X535433D02*
D03*
X532678Y100788D02*
D03*
X529922D02*
D03*
X535433D02*
D03*
Y103544D02*
D03*
X529922D02*
D03*
X532678D02*
D03*
Y98032D02*
D03*
X538189Y103544D02*
D03*
Y100788D02*
D03*
Y98032D02*
D03*
X540945Y103544D02*
D03*
Y100788D02*
D03*
Y98032D02*
D03*
Y79922D02*
D03*
Y77166D02*
D03*
Y74410D02*
D03*
X538189Y79922D02*
D03*
Y77166D02*
D03*
Y74410D02*
D03*
X532678Y79922D02*
D03*
Y74410D02*
D03*
X529922D02*
D03*
X535433D02*
D03*
Y77166D02*
D03*
X529922D02*
D03*
X532678D02*
D03*
X535433Y79922D02*
D03*
X529922D02*
D03*
X492126Y307086D02*
D03*
X494488Y309449D02*
D03*
X494488Y304724D02*
D03*
X489764Y309449D02*
D03*
Y304724D02*
D03*
D209*
X767717Y19685D02*
D03*
D210*
X757480Y87795D02*
Y99213D01*
X679134Y96457D02*
X684842Y90748D01*
Y82704D02*
Y90748D01*
X679134Y64961D02*
X684842Y70669D01*
Y82704D01*
X695464D01*
X721063Y67716D02*
X726181D01*
X721063D02*
Y72835D01*
X710451Y67716D02*
X721063D01*
X726181D02*
X726181Y67716D01*
X695464Y82704D02*
X710451Y67716D01*
X757480Y87795D02*
X788386D01*
X757480Y87795D02*
X757480Y87795D01*
X757480Y76378D02*
Y87795D01*
X748819Y67716D02*
X757480Y76378D01*
X734941Y67716D02*
X748819D01*
X726181D02*
X734941D01*
X628642Y24727D02*
X636024Y17345D01*
X628642Y24727D02*
Y54528D01*
X636024Y14567D02*
Y17345D01*
X639075Y64961D02*
X679134D01*
X628642Y54528D02*
X639075Y64961D01*
X794220Y93629D02*
Y97174D01*
X794370Y97324D01*
X788386Y87795D02*
X794220Y93629D01*
M02*
