G04*
G04 #@! TF.GenerationSoftware,Altium Limited,Altium Designer,24.8.2 (39)*
G04*
G04 Layer_Color=8421504*
%FSLAX25Y25*%
%MOIN*%
G70*
G04*
G04 #@! TF.SameCoordinates,C1053C66-5238-42FC-9F49-9D65F9AD5EA5*
G04*
G04*
G04 #@! TF.FilePolarity,Positive*
G04*
G01*
G75*
%ADD23R,0.03150X0.03543*%
%ADD24R,0.03347X0.01181*%
%ADD25R,0.01181X0.03347*%
%ADD26R,0.10236X0.10236*%
%ADD27R,0.03543X0.03937*%
%ADD28R,0.04528X0.05512*%
%ADD29R,0.03740X0.03937*%
%ADD30R,0.05315X0.01378*%
%ADD31R,0.01378X0.05315*%
%ADD32R,0.03937X0.03543*%
%ADD33R,0.21654X0.05709*%
%ADD34O,0.01181X0.03347*%
%ADD35O,0.10827X0.01181*%
%ADD36R,0.06102X0.02362*%
%ADD37R,0.05906X0.01772*%
%ADD38R,0.09449X0.02913*%
%ADD39R,0.04331X0.02362*%
%ADD40R,0.09646X0.09252*%
%ADD41R,0.04921X0.07087*%
%ADD42R,0.03740X0.05512*%
%ADD43R,0.03740X0.03740*%
%ADD44R,0.03937X0.03740*%
%ADD45R,0.04134X0.05512*%
%ADD46R,0.04252X0.03622*%
%ADD47R,0.03543X0.01575*%
%ADD48R,0.07284X0.02362*%
%ADD49R,0.08465X0.09055*%
%ADD50R,0.07874X0.04724*%
%ADD51R,0.03150X0.03150*%
%ADD52R,0.04134X0.02362*%
%ADD53R,0.04134X0.02559*%
%ADD54R,0.01575X0.03740*%
%ADD55R,0.05512X0.02953*%
%ADD56R,0.07087X0.04921*%
%ADD57R,0.07087X0.04528*%
%ADD58R,0.12500X0.12500*%
%ADD59R,0.03937X0.05906*%
%ADD60R,0.04528X0.05906*%
%ADD61R,0.05906X0.04528*%
%ADD62R,0.05512X0.06693*%
%ADD63R,0.03150X0.05906*%
%ADD64R,0.03937X0.03740*%
%ADD65R,0.07874X0.13780*%
%ADD66R,0.05512X0.04134*%
%ADD67R,0.05709X0.01772*%
%ADD68R,0.16339X0.06299*%
%ADD69R,0.02362X0.03150*%
%ADD70R,0.03622X0.04252*%
%ADD71R,0.13386X0.09055*%
%ADD72R,0.14961X0.09843*%
%ADD73R,0.31102X0.09055*%
%ADD74R,0.02559X0.04134*%
%ADD75R,0.07087X0.08858*%
%ADD76R,0.03937X0.03347*%
%ADD77R,0.07087X0.04331*%
%ADD78R,0.08465X0.04331*%
%ADD79R,0.13189X0.13189*%
%ADD80O,0.04134X0.01378*%
%ADD81O,0.01378X0.04134*%
%ADD82R,0.02362X0.06299*%
%ADD83R,0.02362X0.07284*%
%ADD84R,0.03150X0.03150*%
%ADD85R,0.04331X0.08661*%
%ADD86R,0.05118X0.12008*%
%ADD87R,0.01181X0.03150*%
G04:AMPARAMS|DCode=88|XSize=35.43mil|YSize=39.37mil|CornerRadius=0mil|HoleSize=0mil|Usage=FLASHONLY|Rotation=135.000|XOffset=0mil|YOffset=0mil|HoleType=Round|Shape=Rectangle|*
%AMROTATEDRECTD88*
4,1,4,0.02645,0.00139,-0.00139,-0.02645,-0.02645,-0.00139,0.00139,0.02645,0.02645,0.00139,0.0*
%
%ADD88ROTATEDRECTD88*%

%ADD89R,0.03740X0.03740*%
%ADD90R,0.03347X0.03937*%
%ADD91R,0.03740X0.03937*%
D23*
X295079Y305512D02*
D03*
Y300000D02*
D03*
X299410Y305512D02*
D03*
Y300000D02*
D03*
D24*
X287520Y317717D02*
D03*
Y319685D02*
D03*
Y321654D02*
D03*
Y323622D02*
D03*
Y325590D02*
D03*
Y327559D02*
D03*
X302874D02*
D03*
Y325590D02*
D03*
Y323622D02*
D03*
Y321654D02*
D03*
Y319685D02*
D03*
Y317717D02*
D03*
D25*
X290276Y330315D02*
D03*
X292244D02*
D03*
X294213Y330315D02*
D03*
X296181D02*
D03*
X298150D02*
D03*
X300118D02*
D03*
Y314961D02*
D03*
X298150D02*
D03*
X296181D02*
D03*
X294213D02*
D03*
X292244D02*
D03*
X290276D02*
D03*
D26*
X295197Y322638D02*
D03*
D27*
X394488Y-197D02*
D03*
X388189D02*
D03*
X48819Y-197D02*
D03*
X55118D02*
D03*
X15669Y6496D02*
D03*
X21969D02*
D03*
X29842Y356693D02*
D03*
X36142D02*
D03*
X567244Y28937D02*
D03*
X560945D02*
D03*
X574724D02*
D03*
X581024D02*
D03*
X689685Y2953D02*
D03*
X695984D02*
D03*
X689685Y-3347D02*
D03*
X695984D02*
D03*
X797165Y128543D02*
D03*
X797165Y134449D02*
D03*
X790866Y214764D02*
D03*
X797165D02*
D03*
X574724Y-1772D02*
D03*
X581024D02*
D03*
X686929Y46260D02*
D03*
X680630D02*
D03*
X686929Y52165D02*
D03*
X680630D02*
D03*
X790866Y113976D02*
D03*
X790866Y119882D02*
D03*
X256221Y297835D02*
D03*
X262520D02*
D03*
X256221Y303740D02*
D03*
X262520D02*
D03*
X258976Y325000D02*
D03*
X252677D02*
D03*
X240079Y307283D02*
D03*
X246378D02*
D03*
X711732Y24606D02*
D03*
X718032D02*
D03*
X240079Y336811D02*
D03*
X246378D02*
D03*
X797165Y113976D02*
D03*
X797165Y119882D02*
D03*
X790866Y220669D02*
D03*
X797165Y153740D02*
D03*
X797165Y159646D02*
D03*
X790866D02*
D03*
X617638Y122441D02*
D03*
X623937D02*
D03*
X605827D02*
D03*
X612126D02*
D03*
X583779Y159252D02*
D03*
X577480D02*
D03*
X583779Y150197D02*
D03*
X577480D02*
D03*
X605827Y134252D02*
D03*
X612126D02*
D03*
X617638D02*
D03*
X623937D02*
D03*
X577480Y141339D02*
D03*
X583779D02*
D03*
X577480Y132283D02*
D03*
X583779D02*
D03*
X577874Y123228D02*
D03*
X584173D02*
D03*
X427087Y169095D02*
D03*
X420787D02*
D03*
X427087Y151378D02*
D03*
X420787D02*
D03*
X427087Y157283D02*
D03*
X420787D02*
D03*
X427087Y163189D02*
D03*
X420787D02*
D03*
X606614Y251772D02*
D03*
X600315D02*
D03*
X606614Y245866D02*
D03*
X600315D02*
D03*
X412126Y176969D02*
D03*
X418425D02*
D03*
X423150Y180118D02*
D03*
X429449D02*
D03*
X412126Y183268D02*
D03*
X418425D02*
D03*
X538110Y354134D02*
D03*
X531811D02*
D03*
X325905Y334055D02*
D03*
X319606D02*
D03*
X336535Y319882D02*
D03*
X330236D02*
D03*
X325905Y315945D02*
D03*
X319606D02*
D03*
X686929Y40354D02*
D03*
X680630D02*
D03*
X571181Y281693D02*
D03*
X577480D02*
D03*
X797165Y141929D02*
D03*
X790866D02*
D03*
X577480Y269882D02*
D03*
X571181D02*
D03*
X246378Y330906D02*
D03*
X240079D02*
D03*
X246378Y325000D02*
D03*
X240079D02*
D03*
X797165Y101378D02*
D03*
X790866D02*
D03*
X418819Y58465D02*
D03*
X412520D02*
D03*
X797165Y207677D02*
D03*
X790866D02*
D03*
X430630Y62008D02*
D03*
X424331D02*
D03*
X34567Y44291D02*
D03*
X28268D02*
D03*
X790866Y128543D02*
D03*
X797165Y201772D02*
D03*
X790866D02*
D03*
X797165Y195866D02*
D03*
X790866D02*
D03*
X644016Y226969D02*
D03*
X637716D02*
D03*
X797165Y107283D02*
D03*
X790866D02*
D03*
X33779Y269488D02*
D03*
X27480D02*
D03*
X790866Y134449D02*
D03*
X797165Y220669D02*
D03*
X790866Y153740D02*
D03*
X797165Y189961D02*
D03*
X790866D02*
D03*
X252677Y319094D02*
D03*
X258976D02*
D03*
X797165Y147835D02*
D03*
X790866D02*
D03*
X418819Y64961D02*
D03*
X412520D02*
D03*
X246378Y313189D02*
D03*
X240079D02*
D03*
X246378Y319094D02*
D03*
X240079D02*
D03*
X281811Y316732D02*
D03*
X275512D02*
D03*
X709Y268701D02*
D03*
X-5591D02*
D03*
X19606Y247835D02*
D03*
X13307D02*
D03*
X640866Y33268D02*
D03*
X634567D02*
D03*
X640866Y15551D02*
D03*
X634567D02*
D03*
X581024Y-7677D02*
D03*
X574724D02*
D03*
X581024Y5315D02*
D03*
X574724D02*
D03*
X686929Y22638D02*
D03*
X680630D02*
D03*
X686929Y16732D02*
D03*
X680630D02*
D03*
X640866Y21457D02*
D03*
X634567D02*
D03*
X640866Y39173D02*
D03*
X634567D02*
D03*
X686929Y34449D02*
D03*
X680630D02*
D03*
X623543Y24213D02*
D03*
X617244D02*
D03*
X686929Y28543D02*
D03*
X680630D02*
D03*
X640866Y27362D02*
D03*
X634567D02*
D03*
X718032Y33268D02*
D03*
X711732D02*
D03*
X695984Y9646D02*
D03*
X689685D02*
D03*
X206614Y312795D02*
D03*
X200315D02*
D03*
X325905Y339961D02*
D03*
X319606D02*
D03*
X319606Y304823D02*
D03*
X325905D02*
D03*
X577480Y244291D02*
D03*
X571181D02*
D03*
X577480Y250197D02*
D03*
X571181D02*
D03*
X325905Y328150D02*
D03*
X319606D02*
D03*
X274724Y297835D02*
D03*
X268425D02*
D03*
X50315Y166732D02*
D03*
X44016D02*
D03*
X45197Y198622D02*
D03*
X38898D02*
D03*
X325905Y310433D02*
D03*
X319606D02*
D03*
X336535Y325000D02*
D03*
X330236D02*
D03*
X45197Y204528D02*
D03*
X38898D02*
D03*
X45197Y234055D02*
D03*
X38898D02*
D03*
X45197Y216339D02*
D03*
X38898D02*
D03*
X45197Y210433D02*
D03*
X38898D02*
D03*
X45197Y222244D02*
D03*
X38898D02*
D03*
X45197Y228150D02*
D03*
X38898D02*
D03*
X45197Y192717D02*
D03*
X38898D02*
D03*
X703071Y105709D02*
D03*
X696772D02*
D03*
X703071Y99803D02*
D03*
X696772D02*
D03*
X21969Y356693D02*
D03*
X15669D02*
D03*
X703071Y125394D02*
D03*
X696772D02*
D03*
X703071Y174606D02*
D03*
X696772D02*
D03*
X703071Y193504D02*
D03*
X696772D02*
D03*
X703071Y131299D02*
D03*
X696772D02*
D03*
X703071Y199409D02*
D03*
X696772D02*
D03*
X703209Y151909D02*
D03*
X696909D02*
D03*
X486437Y40256D02*
D03*
X480138D02*
D03*
X577480Y262008D02*
D03*
X571181D02*
D03*
X577480Y256102D02*
D03*
X571181D02*
D03*
X50315Y175394D02*
D03*
X44016D02*
D03*
D28*
X444016Y276575D02*
D03*
Y267913D02*
D03*
X450315D02*
D03*
Y276575D02*
D03*
D29*
X438504Y267913D02*
D03*
X432205D02*
D03*
X732205Y41929D02*
D03*
X738504D02*
D03*
X574724Y23031D02*
D03*
X581024D02*
D03*
X256221Y336417D02*
D03*
X262520D02*
D03*
X904252Y-21457D02*
D03*
X910551D02*
D03*
X438504Y276575D02*
D03*
X432205D02*
D03*
X300315Y295079D02*
D03*
X294016D02*
D03*
X612126Y128347D02*
D03*
X605827D02*
D03*
X612126Y140354D02*
D03*
X605827D02*
D03*
X384173Y46654D02*
D03*
X377874D02*
D03*
X664094Y15945D02*
D03*
X657795D02*
D03*
X623543Y7283D02*
D03*
X617244D02*
D03*
X63209Y297441D02*
D03*
X56909D02*
D03*
X595590Y28543D02*
D03*
X601890D02*
D03*
X444803Y303740D02*
D03*
X438504D02*
D03*
X471969Y232087D02*
D03*
X478268D02*
D03*
X444803Y297835D02*
D03*
X438504D02*
D03*
X587323Y340748D02*
D03*
X581024D02*
D03*
X703071Y119488D02*
D03*
X696772D02*
D03*
X703071Y141929D02*
D03*
X696772D02*
D03*
X703071Y180512D02*
D03*
X696772D02*
D03*
X703071Y187205D02*
D03*
X696772D02*
D03*
X314784Y321654D02*
D03*
X308484D02*
D03*
X438504Y309646D02*
D03*
X444803D02*
D03*
X548347Y230512D02*
D03*
X542047D02*
D03*
X517244Y231299D02*
D03*
X523543D02*
D03*
X275413Y329331D02*
D03*
X281713D02*
D03*
X703071Y93898D02*
D03*
X696772D02*
D03*
X521575Y328543D02*
D03*
X515276D02*
D03*
X501890D02*
D03*
X495590D02*
D03*
X497559Y232087D02*
D03*
X503858D02*
D03*
X384173Y165551D02*
D03*
X377874D02*
D03*
D30*
X464783Y314961D02*
D03*
Y312992D02*
D03*
Y311024D02*
D03*
Y309055D02*
D03*
Y307087D02*
D03*
Y305118D02*
D03*
Y303150D02*
D03*
Y301181D02*
D03*
Y299213D02*
D03*
Y297244D02*
D03*
Y295276D02*
D03*
Y293307D02*
D03*
Y291339D02*
D03*
Y289370D02*
D03*
Y287402D02*
D03*
Y285433D02*
D03*
Y283465D02*
D03*
Y281496D02*
D03*
Y279528D02*
D03*
Y277559D02*
D03*
Y275591D02*
D03*
Y273622D02*
D03*
Y271654D02*
D03*
Y269685D02*
D03*
Y267717D02*
D03*
Y265748D02*
D03*
Y263779D02*
D03*
Y261811D02*
D03*
Y259842D02*
D03*
Y257874D02*
D03*
Y255906D02*
D03*
Y253937D02*
D03*
Y251969D02*
D03*
Y250000D02*
D03*
Y248031D02*
D03*
Y246063D02*
D03*
X548445D02*
D03*
Y248031D02*
D03*
Y250000D02*
D03*
Y251969D02*
D03*
Y253937D02*
D03*
Y255906D02*
D03*
Y257874D02*
D03*
Y259842D02*
D03*
Y261811D02*
D03*
Y263779D02*
D03*
Y265748D02*
D03*
Y267717D02*
D03*
Y269685D02*
D03*
Y271654D02*
D03*
Y273622D02*
D03*
Y275591D02*
D03*
Y277559D02*
D03*
Y279528D02*
D03*
Y281496D02*
D03*
Y283465D02*
D03*
Y285433D02*
D03*
Y287402D02*
D03*
Y289370D02*
D03*
Y291339D02*
D03*
Y293307D02*
D03*
Y295276D02*
D03*
Y297244D02*
D03*
Y299213D02*
D03*
Y301181D02*
D03*
Y303150D02*
D03*
Y305118D02*
D03*
Y307087D02*
D03*
Y309055D02*
D03*
Y311024D02*
D03*
Y312992D02*
D03*
Y314961D02*
D03*
D31*
X472165Y238681D02*
D03*
X474134D02*
D03*
X476102D02*
D03*
X478071D02*
D03*
X480039D02*
D03*
X482008D02*
D03*
X483976D02*
D03*
X485945D02*
D03*
X487913D02*
D03*
X489882D02*
D03*
X491850D02*
D03*
X493819D02*
D03*
X495787D02*
D03*
X497756D02*
D03*
X499724D02*
D03*
X501693D02*
D03*
X503661D02*
D03*
X505630D02*
D03*
X507598D02*
D03*
X509567D02*
D03*
X511535D02*
D03*
X513504D02*
D03*
X515472D02*
D03*
X517441D02*
D03*
X519409D02*
D03*
X521378D02*
D03*
X523346D02*
D03*
X525315D02*
D03*
X527283D02*
D03*
X529252D02*
D03*
X531220D02*
D03*
X533189D02*
D03*
X535157D02*
D03*
X537126D02*
D03*
X539094D02*
D03*
X541063D02*
D03*
Y322342D02*
D03*
X539094D02*
D03*
X537126D02*
D03*
X535157D02*
D03*
X533189D02*
D03*
X531220D02*
D03*
X529252D02*
D03*
X527283D02*
D03*
X525315D02*
D03*
X523346D02*
D03*
X521378D02*
D03*
X519409D02*
D03*
X517441D02*
D03*
X515472D02*
D03*
X513504D02*
D03*
X511535D02*
D03*
X509567D02*
D03*
X507598D02*
D03*
X505630D02*
D03*
X503661D02*
D03*
X501693D02*
D03*
X499724D02*
D03*
X497756D02*
D03*
X495787D02*
D03*
X493819D02*
D03*
X491850D02*
D03*
X489882D02*
D03*
X487913D02*
D03*
X485945D02*
D03*
X483976D02*
D03*
X482008D02*
D03*
X480039D02*
D03*
X478071D02*
D03*
X476102D02*
D03*
X474134D02*
D03*
X472165D02*
D03*
D32*
X601496Y77363D02*
D03*
Y83662D02*
D03*
X436535Y225000D02*
D03*
Y231299D02*
D03*
X181417Y164862D02*
D03*
Y171161D02*
D03*
X172756Y152264D02*
D03*
Y158563D02*
D03*
X742047Y157283D02*
D03*
Y150984D02*
D03*
Y186417D02*
D03*
Y192717D02*
D03*
X103858Y321850D02*
D03*
Y328150D02*
D03*
X651890Y297835D02*
D03*
Y291535D02*
D03*
X747165Y136024D02*
D03*
Y129724D02*
D03*
Y104921D02*
D03*
Y111221D02*
D03*
X741260Y93898D02*
D03*
Y100197D02*
D03*
Y119488D02*
D03*
Y125787D02*
D03*
X1123937Y-38386D02*
D03*
Y-44685D02*
D03*
X1114782Y-33660D02*
D03*
Y-27361D02*
D03*
X938209Y341929D02*
D03*
Y348228D02*
D03*
X929053Y359253D02*
D03*
Y352954D02*
D03*
X566063Y213583D02*
D03*
Y207283D02*
D03*
X581811Y297835D02*
D03*
Y291535D02*
D03*
X587716D02*
D03*
Y297835D02*
D03*
X651890Y325787D02*
D03*
Y319488D02*
D03*
X657795Y325787D02*
D03*
Y319488D02*
D03*
X587716Y325787D02*
D03*
Y319488D02*
D03*
X581811Y325787D02*
D03*
Y319488D02*
D03*
X386142Y275787D02*
D03*
Y269488D02*
D03*
X181417Y244390D02*
D03*
Y238090D02*
D03*
Y207776D02*
D03*
Y201476D02*
D03*
X303071Y281004D02*
D03*
Y274705D02*
D03*
X308976Y244390D02*
D03*
Y238091D02*
D03*
X172756Y195177D02*
D03*
Y188878D02*
D03*
X303071Y207776D02*
D03*
Y201476D02*
D03*
X300315Y231791D02*
D03*
Y225492D02*
D03*
X172756Y231791D02*
D03*
Y225492D02*
D03*
X181417Y24705D02*
D03*
Y18406D02*
D03*
Y280906D02*
D03*
Y274606D02*
D03*
X308976Y171161D02*
D03*
Y164862D02*
D03*
X303071Y171161D02*
D03*
Y164862D02*
D03*
X308976Y281004D02*
D03*
Y274705D02*
D03*
X172756Y268307D02*
D03*
Y262008D02*
D03*
X300315Y195177D02*
D03*
Y188878D02*
D03*
X172756Y12106D02*
D03*
Y5807D02*
D03*
X303071Y244390D02*
D03*
Y238091D02*
D03*
X175512Y207776D02*
D03*
Y201476D02*
D03*
X300315Y158563D02*
D03*
Y152264D02*
D03*
X595591Y83662D02*
D03*
Y77363D02*
D03*
X175512Y280906D02*
D03*
Y274606D02*
D03*
X175512Y244390D02*
D03*
Y238090D02*
D03*
X443228Y255315D02*
D03*
Y249016D02*
D03*
X300315Y268406D02*
D03*
Y262106D02*
D03*
X308976Y207776D02*
D03*
Y201476D02*
D03*
X295590Y347835D02*
D03*
Y341535D02*
D03*
X589685Y83661D02*
D03*
Y77362D02*
D03*
X742047Y204134D02*
D03*
Y197835D02*
D03*
X175512Y61319D02*
D03*
Y55020D02*
D03*
X181417Y61319D02*
D03*
Y55020D02*
D03*
X172756Y48720D02*
D03*
Y42421D02*
D03*
X175512Y97933D02*
D03*
Y91634D02*
D03*
X181417Y97933D02*
D03*
Y91634D02*
D03*
X172756Y85335D02*
D03*
Y79035D02*
D03*
X175512Y134547D02*
D03*
Y128248D02*
D03*
X607008Y45473D02*
D03*
Y39173D02*
D03*
X595197Y45472D02*
D03*
Y39173D02*
D03*
X175512Y171161D02*
D03*
Y164862D02*
D03*
X110157Y346261D02*
D03*
Y339962D02*
D03*
X303071Y134547D02*
D03*
Y128248D02*
D03*
X300315Y121949D02*
D03*
Y115650D02*
D03*
X308976Y134547D02*
D03*
Y128248D02*
D03*
Y97933D02*
D03*
Y91634D02*
D03*
X300315Y85335D02*
D03*
Y79035D02*
D03*
X303071Y97933D02*
D03*
Y91634D02*
D03*
X172756Y121949D02*
D03*
Y115650D02*
D03*
X181417Y134547D02*
D03*
Y128248D02*
D03*
X301496Y347835D02*
D03*
Y341535D02*
D03*
X492047Y228543D02*
D03*
Y222244D02*
D03*
X175512Y24705D02*
D03*
Y18406D02*
D03*
X300315Y48720D02*
D03*
Y42421D02*
D03*
X308976Y61319D02*
D03*
Y55020D02*
D03*
Y24705D02*
D03*
Y18406D02*
D03*
X300315Y12106D02*
D03*
Y5807D02*
D03*
X303071Y24705D02*
D03*
Y18406D02*
D03*
Y61319D02*
D03*
Y55020D02*
D03*
X289685Y347835D02*
D03*
Y341535D02*
D03*
D33*
X624331Y67126D02*
D03*
Y51378D02*
D03*
D34*
X603268Y64961D02*
D03*
X601299D02*
D03*
X603268Y53544D02*
D03*
X601299D02*
D03*
X599331Y64961D02*
D03*
X597362D02*
D03*
X599331Y53544D02*
D03*
X597362D02*
D03*
D35*
X600315Y61221D02*
D03*
Y57284D02*
D03*
Y59252D02*
D03*
D36*
X712520Y94665D02*
D03*
Y99665D02*
D03*
Y109665D02*
D03*
Y104665D02*
D03*
X733779Y99665D02*
D03*
Y94665D02*
D03*
Y109665D02*
D03*
Y104665D02*
D03*
Y130256D02*
D03*
Y135256D02*
D03*
Y120256D02*
D03*
Y125256D02*
D03*
X712520Y130256D02*
D03*
Y135256D02*
D03*
Y125256D02*
D03*
Y120256D02*
D03*
X733779Y151909D02*
D03*
Y156909D02*
D03*
Y141909D02*
D03*
Y146909D02*
D03*
X712520Y141909D02*
D03*
Y151909D02*
D03*
Y156909D02*
D03*
Y146909D02*
D03*
X733779Y180532D02*
D03*
Y170531D02*
D03*
Y175531D02*
D03*
Y165532D02*
D03*
X712520Y170531D02*
D03*
Y180532D02*
D03*
Y175531D02*
D03*
Y165532D02*
D03*
X733779Y198366D02*
D03*
Y203366D02*
D03*
Y188366D02*
D03*
Y193366D02*
D03*
X712520Y198366D02*
D03*
Y203366D02*
D03*
Y193366D02*
D03*
Y188366D02*
D03*
X609370Y7264D02*
D03*
Y12264D02*
D03*
Y17264D02*
D03*
Y22264D02*
D03*
X588110Y7264D02*
D03*
Y12264D02*
D03*
Y17264D02*
D03*
Y22264D02*
D03*
D37*
X401201Y51870D02*
D03*
Y54429D02*
D03*
Y56988D02*
D03*
Y59547D02*
D03*
Y62106D02*
D03*
Y64665D02*
D03*
Y67224D02*
D03*
Y69784D02*
D03*
X377972D02*
D03*
Y67224D02*
D03*
Y64665D02*
D03*
Y62106D02*
D03*
Y59547D02*
D03*
Y56988D02*
D03*
Y54429D02*
D03*
Y51870D02*
D03*
X652283Y48524D02*
D03*
Y45965D02*
D03*
Y53642D02*
D03*
Y51083D02*
D03*
X669606Y45965D02*
D03*
Y53642D02*
D03*
Y48524D02*
D03*
Y51083D02*
D03*
X378071Y169980D02*
D03*
Y172539D02*
D03*
Y175098D02*
D03*
Y177657D02*
D03*
Y180217D02*
D03*
Y182776D02*
D03*
Y185335D02*
D03*
Y187894D02*
D03*
X401299D02*
D03*
Y185335D02*
D03*
Y182776D02*
D03*
Y180217D02*
D03*
Y177657D02*
D03*
Y175098D02*
D03*
Y172539D02*
D03*
Y169980D02*
D03*
D38*
X549724Y331929D02*
D03*
Y336929D02*
D03*
Y341929D02*
D03*
Y346929D02*
D03*
Y351929D02*
D03*
X565079Y331929D02*
D03*
Y336929D02*
D03*
Y341929D02*
D03*
Y346929D02*
D03*
Y351929D02*
D03*
D39*
X655827Y64173D02*
D03*
Y71653D02*
D03*
X666063Y64173D02*
D03*
Y71653D02*
D03*
Y67913D02*
D03*
X730236Y51772D02*
D03*
Y48031D02*
D03*
Y55512D02*
D03*
X740472Y48031D02*
D03*
Y55512D02*
D03*
X902283Y-34252D02*
D03*
Y-26772D02*
D03*
X912520D02*
D03*
Y-30512D02*
D03*
Y-34252D02*
D03*
X1146770Y356694D02*
D03*
Y349214D02*
D03*
X1136534D02*
D03*
Y352954D02*
D03*
Y356694D02*
D03*
D40*
X502283Y3347D02*
D03*
Y27756D02*
D03*
X481811D02*
D03*
Y3347D02*
D03*
D41*
X270394Y339567D02*
D03*
Y349803D02*
D03*
D42*
X117244Y354134D02*
D03*
X125118D02*
D03*
D43*
X535748Y224803D02*
D03*
Y230709D02*
D03*
X220394Y163091D02*
D03*
Y168996D02*
D03*
Y132382D02*
D03*
Y126476D02*
D03*
Y205610D02*
D03*
Y199705D02*
D03*
X347953Y205610D02*
D03*
Y199705D02*
D03*
X220394Y242224D02*
D03*
Y236319D02*
D03*
X347953Y242224D02*
D03*
Y236319D02*
D03*
X220394Y278740D02*
D03*
Y272835D02*
D03*
Y22539D02*
D03*
Y16634D02*
D03*
X347953Y132382D02*
D03*
Y126476D02*
D03*
Y59153D02*
D03*
Y53248D02*
D03*
X347953Y168996D02*
D03*
Y163091D02*
D03*
X347953Y22539D02*
D03*
Y16634D02*
D03*
Y278839D02*
D03*
Y272933D02*
D03*
Y95768D02*
D03*
Y89862D02*
D03*
X220394Y95768D02*
D03*
Y89862D02*
D03*
X220394Y59153D02*
D03*
Y53248D02*
D03*
D44*
X310551Y305315D02*
D03*
Y311614D02*
D03*
X1151890Y356102D02*
D03*
Y349803D02*
D03*
X642441Y-4528D02*
D03*
Y1772D02*
D03*
X723937Y56102D02*
D03*
Y49803D02*
D03*
X454252Y225000D02*
D03*
Y231299D02*
D03*
Y237205D02*
D03*
Y243504D02*
D03*
X448347Y225000D02*
D03*
Y231299D02*
D03*
Y237205D02*
D03*
Y243504D02*
D03*
X430630D02*
D03*
Y237205D02*
D03*
X436535Y243504D02*
D03*
Y237205D02*
D03*
X289685Y299409D02*
D03*
Y305709D02*
D03*
X386142Y291535D02*
D03*
Y297835D02*
D03*
X277874Y347835D02*
D03*
Y341535D02*
D03*
X181417Y85335D02*
D03*
Y79035D02*
D03*
X181417Y48720D02*
D03*
Y42421D02*
D03*
Y121949D02*
D03*
Y115650D02*
D03*
X284173Y312008D02*
D03*
Y305709D02*
D03*
X214094Y95965D02*
D03*
Y89665D02*
D03*
Y83760D02*
D03*
Y77461D02*
D03*
X214094Y47146D02*
D03*
Y40846D02*
D03*
Y59350D02*
D03*
Y53051D02*
D03*
X181417Y195177D02*
D03*
Y188878D02*
D03*
X214094Y193602D02*
D03*
Y187303D02*
D03*
X308976Y195177D02*
D03*
Y188878D02*
D03*
X341653Y95965D02*
D03*
Y89665D02*
D03*
Y193602D02*
D03*
Y187303D02*
D03*
Y120374D02*
D03*
Y114075D02*
D03*
Y132579D02*
D03*
Y126279D02*
D03*
X214094Y132579D02*
D03*
Y126279D02*
D03*
X341653Y83760D02*
D03*
Y77461D02*
D03*
X308976Y121949D02*
D03*
Y115650D02*
D03*
X341653Y156988D02*
D03*
Y150689D02*
D03*
X308976Y158563D02*
D03*
Y152264D02*
D03*
X308976Y85335D02*
D03*
Y79035D02*
D03*
X214094Y120374D02*
D03*
Y114075D02*
D03*
X590079Y62402D02*
D03*
Y56103D02*
D03*
X622231Y83661D02*
D03*
Y77362D02*
D03*
X616325Y83661D02*
D03*
Y77362D02*
D03*
X601103Y45473D02*
D03*
Y39173D02*
D03*
X214094Y156988D02*
D03*
Y150689D02*
D03*
Y169193D02*
D03*
Y162894D02*
D03*
X181417Y158563D02*
D03*
Y152264D02*
D03*
X470098Y334941D02*
D03*
Y328642D02*
D03*
X181417Y231791D02*
D03*
Y225492D02*
D03*
X308976Y231791D02*
D03*
Y225492D02*
D03*
X341653Y205807D02*
D03*
Y199508D02*
D03*
Y279035D02*
D03*
Y272736D02*
D03*
X308976Y268406D02*
D03*
Y262106D02*
D03*
X214094Y205807D02*
D03*
Y199508D02*
D03*
Y242421D02*
D03*
Y236122D02*
D03*
X181417Y268307D02*
D03*
Y262008D02*
D03*
X214094Y278937D02*
D03*
Y272638D02*
D03*
X341653Y242421D02*
D03*
Y236122D02*
D03*
X341653Y266831D02*
D03*
Y260531D02*
D03*
X214094Y266732D02*
D03*
Y260433D02*
D03*
X341653Y169193D02*
D03*
Y162894D02*
D03*
Y230217D02*
D03*
Y223917D02*
D03*
X214094Y230217D02*
D03*
Y223917D02*
D03*
X456220Y287598D02*
D03*
Y281299D02*
D03*
X650315Y71063D02*
D03*
Y64764D02*
D03*
X305039Y311614D02*
D03*
Y305315D02*
D03*
X341653Y47146D02*
D03*
Y40846D02*
D03*
X644409Y52953D02*
D03*
Y46654D02*
D03*
X561339Y269882D02*
D03*
Y263583D02*
D03*
X308976Y48720D02*
D03*
Y42421D02*
D03*
X341653Y10531D02*
D03*
Y4232D02*
D03*
X555433Y291535D02*
D03*
Y285236D02*
D03*
X214094Y22736D02*
D03*
Y16437D02*
D03*
X181417Y12106D02*
D03*
Y5807D02*
D03*
X341653Y22736D02*
D03*
Y16437D02*
D03*
Y59350D02*
D03*
Y53051D02*
D03*
X214094Y10531D02*
D03*
Y4232D02*
D03*
X308976Y12106D02*
D03*
Y5807D02*
D03*
X557008Y317126D02*
D03*
Y310827D02*
D03*
X454252Y260039D02*
D03*
Y253740D02*
D03*
X43622Y263583D02*
D03*
Y257283D02*
D03*
D45*
X36535Y342520D02*
D03*
X29449D02*
D03*
X22362Y-197D02*
D03*
X15276D02*
D03*
X549134Y223031D02*
D03*
X542047D02*
D03*
X34961Y182087D02*
D03*
X27874D02*
D03*
X623937Y17126D02*
D03*
X616850D02*
D03*
X587323Y333661D02*
D03*
X580236D02*
D03*
X29449Y350000D02*
D03*
X36535D02*
D03*
X15276D02*
D03*
X22362D02*
D03*
X34567Y263583D02*
D03*
X27480D02*
D03*
D46*
X87323Y317915D02*
D03*
Y330513D02*
D03*
X95984D02*
D03*
Y317915D02*
D03*
X78661Y330513D02*
D03*
Y317915D02*
D03*
X70000D02*
D03*
Y330513D02*
D03*
X70000Y339961D02*
D03*
Y352559D02*
D03*
X95984Y339962D02*
D03*
Y352560D02*
D03*
X87323Y339962D02*
D03*
Y352560D02*
D03*
X78661Y339962D02*
D03*
Y352560D02*
D03*
X720787Y255315D02*
D03*
Y267913D02*
D03*
D47*
X40669Y242913D02*
D03*
Y246063D02*
D03*
X33976D02*
D03*
Y242913D02*
D03*
D48*
X169803Y322382D02*
D03*
Y317382D02*
D03*
X145000Y322382D02*
D03*
Y317382D02*
D03*
D49*
X689193Y342913D02*
D03*
Y325984D02*
D03*
D50*
X172165Y336537D02*
D03*
X142638D02*
D03*
X172165Y346537D02*
D03*
X142638D02*
D03*
D51*
X567343Y23031D02*
D03*
X560847D02*
D03*
X596083Y132283D02*
D03*
X589587D02*
D03*
Y123228D02*
D03*
X596083D02*
D03*
Y159252D02*
D03*
X589587D02*
D03*
Y150394D02*
D03*
X596083D02*
D03*
X589587Y141339D02*
D03*
X596083D02*
D03*
D52*
X125709Y343112D02*
D03*
X116654Y346852D02*
D03*
Y339372D02*
D03*
X431614Y251575D02*
D03*
Y259055D02*
D03*
X422559Y255315D02*
D03*
D53*
X207992Y318898D02*
D03*
Y326378D02*
D03*
X198937Y322638D02*
D03*
X593130Y-3347D02*
D03*
X602185Y394D02*
D03*
Y-7087D02*
D03*
X568228Y-3347D02*
D03*
X559173Y-7087D02*
D03*
Y394D02*
D03*
Y16929D02*
D03*
Y9449D02*
D03*
X568228Y13189D02*
D03*
D54*
X28858Y166732D02*
D03*
X31417D02*
D03*
X28858Y175394D02*
D03*
X31417D02*
D03*
X33976Y166732D02*
D03*
Y175394D02*
D03*
X264685Y318307D02*
D03*
X267244D02*
D03*
X269803D02*
D03*
X267244Y326969D02*
D03*
X269803D02*
D03*
X264685D02*
D03*
X922165Y-34843D02*
D03*
X924724D02*
D03*
X927283D02*
D03*
Y-26181D02*
D03*
X924724D02*
D03*
X922165D02*
D03*
X652087Y304528D02*
D03*
X654646D02*
D03*
X657205D02*
D03*
Y313189D02*
D03*
X654646D02*
D03*
X652087D02*
D03*
X1126888Y348623D02*
D03*
X1124329D02*
D03*
X1121770D02*
D03*
Y357285D02*
D03*
X1124329D02*
D03*
X1126888D02*
D03*
X50118Y248819D02*
D03*
X47559Y248819D02*
D03*
X45000Y248819D02*
D03*
X50118Y240158D02*
D03*
X47559Y240158D02*
D03*
X45000Y240158D02*
D03*
X587520Y304528D02*
D03*
X584961D02*
D03*
X582402D02*
D03*
Y313189D02*
D03*
X584961D02*
D03*
X587520D02*
D03*
X746181Y14370D02*
D03*
Y5709D02*
D03*
X743622Y14370D02*
D03*
X741063D02*
D03*
X743622Y5709D02*
D03*
X741063D02*
D03*
X746181Y33268D02*
D03*
X743622D02*
D03*
X741063D02*
D03*
X746181Y24606D02*
D03*
X743622D02*
D03*
X741063D02*
D03*
X746181Y87205D02*
D03*
Y78543D02*
D03*
X743622Y87205D02*
D03*
X741063D02*
D03*
X743622Y78543D02*
D03*
X741063D02*
D03*
X536732Y346260D02*
D03*
X534173D02*
D03*
X531614D02*
D03*
X536732Y337598D02*
D03*
X534173D02*
D03*
X531614D02*
D03*
D55*
X451496Y297342D02*
D03*
Y303051D02*
D03*
D56*
X706220Y85630D02*
D03*
X716457D02*
D03*
X232598Y153839D02*
D03*
X222362D02*
D03*
X232598Y263583D02*
D03*
X222362D02*
D03*
X222402Y80610D02*
D03*
X232638D02*
D03*
X222362Y43996D02*
D03*
X232598D02*
D03*
X222362Y190453D02*
D03*
X232598D02*
D03*
X349921Y117224D02*
D03*
X360157D02*
D03*
X349921Y80610D02*
D03*
X360157D02*
D03*
X349921Y153839D02*
D03*
X360157D02*
D03*
X222362Y117224D02*
D03*
X232598D02*
D03*
X222362Y227067D02*
D03*
X232598D02*
D03*
X349921Y190453D02*
D03*
X360157D02*
D03*
X349921Y227067D02*
D03*
X360157D02*
D03*
X349921Y263681D02*
D03*
X360157D02*
D03*
X222362Y7382D02*
D03*
X232598D02*
D03*
X349921Y43996D02*
D03*
X360157D02*
D03*
X349921Y7382D02*
D03*
X360157D02*
D03*
D57*
X133386Y335631D02*
D03*
Y347442D02*
D03*
X184961Y324608D02*
D03*
Y336419D02*
D03*
X184961Y358465D02*
D03*
Y346654D02*
D03*
D58*
X423829Y330118D02*
D03*
X361841D02*
D03*
D59*
X50807Y257677D02*
D03*
X59469D02*
D03*
D60*
X645689Y295276D02*
D03*
D61*
X643425Y276673D02*
D03*
X617441D02*
D03*
X608386D02*
D03*
D62*
X645197Y333661D02*
D03*
X594410D02*
D03*
D63*
X639488Y322244D02*
D03*
X635157D02*
D03*
X630827D02*
D03*
X626496D02*
D03*
X622165D02*
D03*
X617835D02*
D03*
X613504D02*
D03*
X609173D02*
D03*
D64*
X442441Y243504D02*
D03*
Y237205D02*
D03*
X226693Y169193D02*
D03*
Y162894D02*
D03*
X442441Y225000D02*
D03*
Y231299D02*
D03*
X354252Y279035D02*
D03*
Y272736D02*
D03*
X283780Y347835D02*
D03*
Y341535D02*
D03*
X226693Y278937D02*
D03*
Y272638D02*
D03*
X226693Y242421D02*
D03*
Y236122D02*
D03*
X226693Y16437D02*
D03*
Y22736D02*
D03*
X354252Y16437D02*
D03*
Y22736D02*
D03*
X226693Y53051D02*
D03*
Y59350D02*
D03*
X354252Y53051D02*
D03*
Y59350D02*
D03*
X226693Y89665D02*
D03*
Y95965D02*
D03*
X354252Y89665D02*
D03*
Y95965D02*
D03*
X226693Y126279D02*
D03*
Y132579D02*
D03*
X354252Y126279D02*
D03*
Y132579D02*
D03*
X354252Y162894D02*
D03*
Y169193D02*
D03*
X226693Y199508D02*
D03*
Y205807D02*
D03*
X354252Y199508D02*
D03*
Y205807D02*
D03*
X354252Y236122D02*
D03*
Y242421D02*
D03*
D65*
X670394Y91929D02*
D03*
X657795D02*
D03*
X114882Y323033D02*
D03*
X127480D02*
D03*
D66*
X657795Y108858D02*
D03*
Y101772D02*
D03*
X932992Y-28543D02*
D03*
Y-21457D02*
D03*
X1118425Y341929D02*
D03*
Y334842D02*
D03*
X670394Y108858D02*
D03*
Y101772D02*
D03*
X629449Y76968D02*
D03*
Y84055D02*
D03*
X581811Y55709D02*
D03*
Y62796D02*
D03*
D67*
X649528Y21260D02*
D03*
Y31496D02*
D03*
Y28937D02*
D03*
Y36614D02*
D03*
Y34055D02*
D03*
Y26378D02*
D03*
Y23819D02*
D03*
X672362Y21260D02*
D03*
Y36614D02*
D03*
Y26378D02*
D03*
Y23819D02*
D03*
Y34055D02*
D03*
Y28937D02*
D03*
Y31496D02*
D03*
Y5610D02*
D03*
Y3051D02*
D03*
Y8169D02*
D03*
Y-2067D02*
D03*
Y492D02*
D03*
Y10728D02*
D03*
Y-4626D02*
D03*
X649528Y-2067D02*
D03*
Y492D02*
D03*
Y8169D02*
D03*
Y10728D02*
D03*
Y3051D02*
D03*
Y5610D02*
D03*
Y-4626D02*
D03*
D68*
X740669Y289567D02*
D03*
X715866D02*
D03*
D69*
X581220Y11220D02*
D03*
X574528D02*
D03*
Y17126D02*
D03*
X581220D02*
D03*
X437126Y261221D02*
D03*
X443819D02*
D03*
D70*
X717638Y48622D02*
D03*
X705039D02*
D03*
X717638Y66732D02*
D03*
X705039D02*
D03*
Y57677D02*
D03*
X717638D02*
D03*
X705039Y75787D02*
D03*
X717638D02*
D03*
X581811Y39173D02*
D03*
X569213D02*
D03*
Y48622D02*
D03*
X581811D02*
D03*
D71*
X720492Y314370D02*
D03*
D72*
X706319Y326181D02*
D03*
Y343111D02*
D03*
X760256Y326181D02*
D03*
Y343111D02*
D03*
D73*
X729351Y354528D02*
D03*
D74*
X714882Y9449D02*
D03*
X711142Y18504D02*
D03*
X718622D02*
D03*
X699331Y49213D02*
D03*
X691850D02*
D03*
X695590Y40157D02*
D03*
D75*
X735945Y65945D02*
D03*
X747362D02*
D03*
D76*
X169606Y164862D02*
D03*
Y171161D02*
D03*
X297165D02*
D03*
Y164862D02*
D03*
X169606Y244390D02*
D03*
Y238090D02*
D03*
X297165Y207776D02*
D03*
Y201476D02*
D03*
X169606Y207776D02*
D03*
Y201476D02*
D03*
X297165Y281004D02*
D03*
Y274705D02*
D03*
X297165Y244390D02*
D03*
Y238091D02*
D03*
X169606Y280906D02*
D03*
Y274606D02*
D03*
X169606Y61319D02*
D03*
Y55020D02*
D03*
X169606Y97933D02*
D03*
Y91634D02*
D03*
X297165Y97933D02*
D03*
Y91634D02*
D03*
X169606Y134547D02*
D03*
Y128248D02*
D03*
X297165Y134547D02*
D03*
Y128248D02*
D03*
X169606Y24705D02*
D03*
Y18406D02*
D03*
X297165Y24705D02*
D03*
Y18406D02*
D03*
Y61319D02*
D03*
Y55020D02*
D03*
X103858Y339962D02*
D03*
Y333663D02*
D03*
D77*
X155433Y158957D02*
D03*
X155433Y268701D02*
D03*
X122953D02*
D03*
X155433Y232185D02*
D03*
Y195571D02*
D03*
Y122342D02*
D03*
Y85728D02*
D03*
Y49114D02*
D03*
Y12500D02*
D03*
D78*
X122953Y158957D02*
D03*
X250512Y268799D02*
D03*
X282992D02*
D03*
X122953Y232185D02*
D03*
X250512Y232185D02*
D03*
X282992D02*
D03*
X250512Y195571D02*
D03*
X282992D02*
D03*
X122953D02*
D03*
X250512Y158957D02*
D03*
X282992D02*
D03*
X250512Y122342D02*
D03*
X282992D02*
D03*
X122953D02*
D03*
X250512Y85728D02*
D03*
X282992D02*
D03*
X122953Y85728D02*
D03*
X250512Y49114D02*
D03*
X282992D02*
D03*
X122953D02*
D03*
X250512Y12500D02*
D03*
X282992D02*
D03*
X122953D02*
D03*
D79*
X325905Y266437D02*
D03*
Y193209D02*
D03*
X198346Y266339D02*
D03*
X198346Y229823D02*
D03*
X198346Y10138D02*
D03*
X325905Y46752D02*
D03*
X198346D02*
D03*
X325905Y10138D02*
D03*
X198346Y83366D02*
D03*
X325905Y229823D02*
D03*
Y156595D02*
D03*
X325905Y119980D02*
D03*
X198346Y156595D02*
D03*
Y193209D02*
D03*
Y119980D02*
D03*
X325905Y83366D02*
D03*
D80*
X335157Y271555D02*
D03*
Y268996D02*
D03*
Y266437D02*
D03*
Y263878D02*
D03*
Y261319D02*
D03*
X316653D02*
D03*
Y263878D02*
D03*
Y266437D02*
D03*
Y268996D02*
D03*
Y271555D02*
D03*
X335157Y198327D02*
D03*
Y195768D02*
D03*
Y193209D02*
D03*
Y190650D02*
D03*
Y188091D02*
D03*
X316653D02*
D03*
Y190650D02*
D03*
Y193209D02*
D03*
Y195768D02*
D03*
Y198327D02*
D03*
X207598Y266339D02*
D03*
Y271457D02*
D03*
Y268898D02*
D03*
Y261221D02*
D03*
Y263779D02*
D03*
X189094Y268898D02*
D03*
Y266339D02*
D03*
Y271457D02*
D03*
Y263779D02*
D03*
Y261221D02*
D03*
X207598Y229823D02*
D03*
Y234941D02*
D03*
Y232382D02*
D03*
Y224705D02*
D03*
Y227264D02*
D03*
X189094Y232382D02*
D03*
Y229823D02*
D03*
Y234941D02*
D03*
Y227264D02*
D03*
Y224705D02*
D03*
X189094Y15256D02*
D03*
Y12697D02*
D03*
Y10138D02*
D03*
Y7579D02*
D03*
Y5020D02*
D03*
X207598D02*
D03*
Y7579D02*
D03*
Y10138D02*
D03*
Y12697D02*
D03*
Y15256D02*
D03*
X316653Y51870D02*
D03*
Y49311D02*
D03*
Y46752D02*
D03*
Y44193D02*
D03*
Y41634D02*
D03*
X335157D02*
D03*
Y44193D02*
D03*
Y46752D02*
D03*
Y49311D02*
D03*
Y51870D02*
D03*
X189094D02*
D03*
Y49311D02*
D03*
Y46752D02*
D03*
Y44193D02*
D03*
Y41634D02*
D03*
X207598D02*
D03*
Y44193D02*
D03*
Y46752D02*
D03*
Y49311D02*
D03*
Y51870D02*
D03*
X316653Y15256D02*
D03*
Y12697D02*
D03*
Y10138D02*
D03*
Y7579D02*
D03*
Y5020D02*
D03*
X335157D02*
D03*
Y7579D02*
D03*
Y10138D02*
D03*
Y12697D02*
D03*
Y15256D02*
D03*
X189094Y88484D02*
D03*
Y85925D02*
D03*
Y83366D02*
D03*
Y80807D02*
D03*
Y78248D02*
D03*
X207598D02*
D03*
Y80807D02*
D03*
Y83366D02*
D03*
Y85925D02*
D03*
Y88484D02*
D03*
X316653Y234941D02*
D03*
Y232382D02*
D03*
Y229823D02*
D03*
Y227264D02*
D03*
Y224705D02*
D03*
X335157D02*
D03*
Y227264D02*
D03*
Y229823D02*
D03*
Y232382D02*
D03*
Y234941D02*
D03*
X316653Y161713D02*
D03*
Y159153D02*
D03*
Y156595D02*
D03*
Y154035D02*
D03*
Y151476D02*
D03*
X335157D02*
D03*
Y154035D02*
D03*
Y156595D02*
D03*
Y159153D02*
D03*
Y161713D02*
D03*
X316653Y125098D02*
D03*
Y122539D02*
D03*
Y119980D02*
D03*
Y117421D02*
D03*
Y114862D02*
D03*
X335157D02*
D03*
Y117421D02*
D03*
Y119980D02*
D03*
Y122539D02*
D03*
Y125098D02*
D03*
X189094Y161713D02*
D03*
Y159153D02*
D03*
Y156595D02*
D03*
Y154035D02*
D03*
Y151476D02*
D03*
X207598D02*
D03*
Y154035D02*
D03*
Y156595D02*
D03*
Y159153D02*
D03*
Y161713D02*
D03*
X189094Y198327D02*
D03*
Y195768D02*
D03*
Y193209D02*
D03*
Y190650D02*
D03*
Y188091D02*
D03*
X207598D02*
D03*
Y190650D02*
D03*
Y193209D02*
D03*
Y195768D02*
D03*
Y198327D02*
D03*
X189094Y125098D02*
D03*
Y122539D02*
D03*
Y119980D02*
D03*
Y117421D02*
D03*
Y114862D02*
D03*
X207598D02*
D03*
Y117421D02*
D03*
Y119980D02*
D03*
Y122539D02*
D03*
Y125098D02*
D03*
X316653Y88484D02*
D03*
Y85925D02*
D03*
Y83366D02*
D03*
Y80807D02*
D03*
Y78248D02*
D03*
X335157D02*
D03*
Y80807D02*
D03*
Y83366D02*
D03*
Y85925D02*
D03*
Y88484D02*
D03*
D81*
X331024Y257185D02*
D03*
X328465D02*
D03*
X325905D02*
D03*
X323346D02*
D03*
X320787D02*
D03*
Y275689D02*
D03*
X323346D02*
D03*
X325905D02*
D03*
X328465D02*
D03*
X331024D02*
D03*
Y183957D02*
D03*
X328465D02*
D03*
X325905D02*
D03*
X323346D02*
D03*
X320787D02*
D03*
Y202461D02*
D03*
X323346D02*
D03*
X325905D02*
D03*
X328465D02*
D03*
X331024D02*
D03*
X203465Y275591D02*
D03*
Y257087D02*
D03*
X200905D02*
D03*
X198346Y275591D02*
D03*
X200905D02*
D03*
X195787D02*
D03*
X193228D02*
D03*
Y257087D02*
D03*
X195787D02*
D03*
X198346D02*
D03*
X203465Y239075D02*
D03*
Y220571D02*
D03*
X200905D02*
D03*
X198346Y239075D02*
D03*
X200905D02*
D03*
X195787D02*
D03*
X193228D02*
D03*
Y220571D02*
D03*
X195787D02*
D03*
X198346D02*
D03*
X203465Y19390D02*
D03*
X200905D02*
D03*
X198346D02*
D03*
X195787D02*
D03*
X193228D02*
D03*
Y886D02*
D03*
X195787D02*
D03*
X198346D02*
D03*
X200905D02*
D03*
X203465D02*
D03*
X331024Y56004D02*
D03*
X328465D02*
D03*
X325905D02*
D03*
X323346D02*
D03*
X320787D02*
D03*
Y37500D02*
D03*
X323346D02*
D03*
X325905D02*
D03*
X328465D02*
D03*
X331024D02*
D03*
X203465Y56004D02*
D03*
X200905D02*
D03*
X198346D02*
D03*
X195787D02*
D03*
X193228D02*
D03*
Y37500D02*
D03*
X195787D02*
D03*
X198346D02*
D03*
X200905D02*
D03*
X203465D02*
D03*
X331024Y19390D02*
D03*
X328465D02*
D03*
X325905D02*
D03*
X323346D02*
D03*
X320787D02*
D03*
Y886D02*
D03*
X323346D02*
D03*
X325905D02*
D03*
X328465D02*
D03*
X331024D02*
D03*
X203465Y92618D02*
D03*
X200905D02*
D03*
X198346D02*
D03*
X195787D02*
D03*
X193228D02*
D03*
Y74114D02*
D03*
X195787D02*
D03*
X198346D02*
D03*
X200905D02*
D03*
X203465D02*
D03*
X331024Y239075D02*
D03*
X328465D02*
D03*
X325905D02*
D03*
X323346D02*
D03*
X320787D02*
D03*
Y220571D02*
D03*
X323346D02*
D03*
X325905D02*
D03*
X328465D02*
D03*
X331024D02*
D03*
Y165847D02*
D03*
X328465D02*
D03*
X325905D02*
D03*
X323346D02*
D03*
X320787D02*
D03*
Y147343D02*
D03*
X323346D02*
D03*
X325905D02*
D03*
X328465D02*
D03*
X331024D02*
D03*
X331024Y129232D02*
D03*
X328465D02*
D03*
X325905D02*
D03*
X323346D02*
D03*
X320787D02*
D03*
Y110728D02*
D03*
X323346D02*
D03*
X325905D02*
D03*
X328465D02*
D03*
X331024D02*
D03*
X203465Y165847D02*
D03*
X200905D02*
D03*
X198346D02*
D03*
X195787D02*
D03*
X193228D02*
D03*
Y147343D02*
D03*
X195787D02*
D03*
X198346D02*
D03*
X200905D02*
D03*
X203465D02*
D03*
Y202461D02*
D03*
X200905D02*
D03*
X198346D02*
D03*
X195787D02*
D03*
X193228D02*
D03*
Y183957D02*
D03*
X195787D02*
D03*
X198346Y183169D02*
D03*
X200905Y183957D02*
D03*
X203465D02*
D03*
Y129232D02*
D03*
X200905D02*
D03*
X198346D02*
D03*
X195787D02*
D03*
X193228D02*
D03*
Y110728D02*
D03*
X195787D02*
D03*
X198346D02*
D03*
X200905D02*
D03*
X203465D02*
D03*
X331024Y92618D02*
D03*
X328465D02*
D03*
X325905D02*
D03*
X323346D02*
D03*
X320787D02*
D03*
Y74114D02*
D03*
X323346D02*
D03*
X325905D02*
D03*
X328465D02*
D03*
X331024D02*
D03*
D82*
X398996Y297835D02*
D03*
X408996D02*
D03*
X403996D02*
D03*
X393996D02*
D03*
Y269488D02*
D03*
X403996D02*
D03*
X398996D02*
D03*
X408996D02*
D03*
D83*
X565925Y200000D02*
D03*
X570925D02*
D03*
Y175197D02*
D03*
X565925D02*
D03*
D84*
X1123937Y-27264D02*
D03*
Y-33760D02*
D03*
X922362Y359350D02*
D03*
Y352854D02*
D03*
D85*
X1150906Y255709D02*
D03*
X1108780D02*
D03*
X907991D02*
D03*
X950117D02*
D03*
X1108780Y200297D02*
D03*
X1150906D02*
D03*
X1041851Y200590D02*
D03*
X1083977D02*
D03*
X974922D02*
D03*
X1017048D02*
D03*
X907992D02*
D03*
X950119D02*
D03*
X907992Y310828D02*
D03*
X950118D02*
D03*
X1083975Y310828D02*
D03*
X1041849D02*
D03*
X1150904D02*
D03*
X1108778D02*
D03*
X1017045D02*
D03*
X974919D02*
D03*
X1017046Y255709D02*
D03*
X974920D02*
D03*
X1083975D02*
D03*
X1041849D02*
D03*
D86*
X1146181Y254035D02*
D03*
X1113504D02*
D03*
X912715D02*
D03*
X945392D02*
D03*
X1113504Y198624D02*
D03*
X1146181D02*
D03*
X1046575Y198917D02*
D03*
X1079252D02*
D03*
X979646D02*
D03*
X1012323D02*
D03*
X912717D02*
D03*
X945394D02*
D03*
X912717Y309155D02*
D03*
X945394D02*
D03*
X1079251Y309155D02*
D03*
X1046573D02*
D03*
X1146180D02*
D03*
X1113502D02*
D03*
X1012321D02*
D03*
X979644D02*
D03*
X1012321Y254035D02*
D03*
X979644D02*
D03*
X1079251D02*
D03*
X1046573D02*
D03*
D87*
X1120984Y261614D02*
D03*
X1122953D02*
D03*
X1124921D02*
D03*
X1126890D02*
D03*
X1128898D02*
D03*
X1130827D02*
D03*
X1132795D02*
D03*
X1134764D02*
D03*
X1136732D02*
D03*
X1138701D02*
D03*
X937912D02*
D03*
X935943D02*
D03*
X933975D02*
D03*
X932006D02*
D03*
X930038D02*
D03*
X928109D02*
D03*
X926101D02*
D03*
X924132D02*
D03*
X922164D02*
D03*
X920195D02*
D03*
X1138701Y206202D02*
D03*
X1136733D02*
D03*
X1134764D02*
D03*
X1132796D02*
D03*
X1130827D02*
D03*
X1128898D02*
D03*
X1126890D02*
D03*
X1124922D02*
D03*
X1122953D02*
D03*
X1120985D02*
D03*
X1071772Y206496D02*
D03*
X1069804D02*
D03*
X1067835D02*
D03*
X1065866D02*
D03*
X1063898D02*
D03*
X1061969D02*
D03*
X1059961D02*
D03*
X1057992D02*
D03*
X1056024D02*
D03*
X1054055D02*
D03*
X1004843D02*
D03*
X1002874D02*
D03*
X1000906D02*
D03*
X998937D02*
D03*
X996969D02*
D03*
X995040D02*
D03*
X993032D02*
D03*
X991063D02*
D03*
X989095D02*
D03*
X987126D02*
D03*
X937914D02*
D03*
X935945D02*
D03*
X933977D02*
D03*
X932008D02*
D03*
X930040D02*
D03*
X928111D02*
D03*
X926103D02*
D03*
X924134D02*
D03*
X922166D02*
D03*
X920197D02*
D03*
X937914Y316734D02*
D03*
X935945D02*
D03*
X933977D02*
D03*
X932008D02*
D03*
X930040D02*
D03*
X928111D02*
D03*
X926103D02*
D03*
X924134D02*
D03*
X922166D02*
D03*
X920197D02*
D03*
X1054054Y316734D02*
D03*
X1056022D02*
D03*
X1057991D02*
D03*
X1059959D02*
D03*
X1061967D02*
D03*
X1063896D02*
D03*
X1065865D02*
D03*
X1067833D02*
D03*
X1069802D02*
D03*
X1071770D02*
D03*
X1120983D02*
D03*
X1122951D02*
D03*
X1124920D02*
D03*
X1126888D02*
D03*
X1128896D02*
D03*
X1130825D02*
D03*
X1132794D02*
D03*
X1134762D02*
D03*
X1136731D02*
D03*
X1138699D02*
D03*
X987124D02*
D03*
X989093D02*
D03*
X991061D02*
D03*
X993030D02*
D03*
X995037D02*
D03*
X996967D02*
D03*
X998935D02*
D03*
X1000904D02*
D03*
X1002872D02*
D03*
X1004841D02*
D03*
X987125Y261614D02*
D03*
X989093D02*
D03*
X991061D02*
D03*
X993030D02*
D03*
X995038D02*
D03*
X996967D02*
D03*
X998936D02*
D03*
X1000904D02*
D03*
X1002872D02*
D03*
X1004841D02*
D03*
X1054054D02*
D03*
X1056022D02*
D03*
X1057991D02*
D03*
X1059959D02*
D03*
X1061967D02*
D03*
X1063896D02*
D03*
X1065865D02*
D03*
X1067833D02*
D03*
X1069802D02*
D03*
X1071770D02*
D03*
D88*
X596243Y204269D02*
D03*
X591789Y208723D02*
D03*
X604904Y212930D02*
D03*
X600450Y217385D02*
D03*
X600574Y208600D02*
D03*
X596119Y213054D02*
D03*
X609235Y217261D02*
D03*
X604781Y221715D02*
D03*
D89*
X563110Y304921D02*
D03*
X557205D02*
D03*
D90*
X577480Y275787D02*
D03*
X571181D02*
D03*
X504153Y40256D02*
D03*
X497854D02*
D03*
D91*
X27874Y256890D02*
D03*
X34173D02*
D03*
M02*
