G04*
G04 #@! TF.GenerationSoftware,Altium Limited,Altium Designer,24.8.2 (39)*
G04*
G04 Layer_Color=16711935*
%FSLAX25Y25*%
%MOIN*%
G70*
G04*
G04 #@! TF.SameCoordinates,C1053C66-5238-42FC-9F49-9D65F9AD5EA5*
G04*
G04*
G04 #@! TF.FilePolarity,Positive*
G04*
G01*
G75*
%ADD13C,0.00394*%
D13*
X860114Y56890D02*
G03*
X852240Y56890I-3937J0D01*
G01*
X897556Y-49406D02*
Y-13977D01*
X-13659Y371850D02*
X844365D01*
X852239Y363976D02*
X897551D01*
X-23230Y325572D02*
X-14057Y334745D01*
Y371453D01*
X-13659Y371850D01*
X-23230Y14370D02*
X-14057D01*
X-23230Y325572D02*
X-23230Y14370D01*
X844365Y371850D02*
X852239Y363978D01*
X844365Y-21850D02*
X852239Y-13977D01*
X-14057Y-21850D02*
X844365D01*
X-14057D02*
Y14370D01*
X852239Y-13977D02*
Y56936D01*
X860114Y-13977D02*
Y56890D01*
X860311Y-13977D02*
X897559D01*
X897551Y363976D02*
X897556Y363972D01*
X897559Y363976D02*
X905433Y371850D01*
X1153466Y371850D01*
X1161339Y363978D01*
X905431Y-57282D02*
X1153465D01*
X1161339Y-49408D01*
X1161339Y363978D02*
X1161339Y-49408D01*
X897556Y-49406D02*
X905431Y-57282D01*
M02*
