G04*
G04 #@! TF.GenerationSoftware,Altium Limited,Altium Designer,24.8.2 (39)*
G04*
G04 Layer_Color=128*
%FSLAX25Y25*%
%MOIN*%
G70*
G04*
G04 #@! TF.SameCoordinates,C1053C66-5238-42FC-9F49-9D65F9AD5EA5*
G04*
G04*
G04 #@! TF.FilePolarity,Positive*
G04*
G01*
G75*
%ADD85R,0.04331X0.08661*%
%ADD86R,0.05118X0.12008*%
%ADD87R,0.01181X0.03150*%
D85*
X1108778Y310828D02*
D03*
X1150904D02*
D03*
X907992D02*
D03*
X950118D02*
D03*
X1041848Y310828D02*
D03*
X1083974D02*
D03*
X1017047D02*
D03*
X974921D02*
D03*
D86*
X1113502Y309155D02*
D03*
X1146179D02*
D03*
X912717D02*
D03*
X945394D02*
D03*
X1046573Y309155D02*
D03*
X1079250D02*
D03*
X1012323D02*
D03*
X979646D02*
D03*
D87*
X1138699Y316734D02*
D03*
X1136730D02*
D03*
X1134762D02*
D03*
X1132794D02*
D03*
X1130786D02*
D03*
X1128856D02*
D03*
X1126888D02*
D03*
X1124919D02*
D03*
X1122951D02*
D03*
X1120982D02*
D03*
X937914D02*
D03*
X935945D02*
D03*
X933976D02*
D03*
X932008D02*
D03*
X930000D02*
D03*
X928071D02*
D03*
X926103D02*
D03*
X924134D02*
D03*
X922165D02*
D03*
X920197D02*
D03*
X1071770Y316734D02*
D03*
X1069801D02*
D03*
X1067833D02*
D03*
X1065864D02*
D03*
X1063856D02*
D03*
X1061927D02*
D03*
X1059959D02*
D03*
X1057990D02*
D03*
X1056022D02*
D03*
X1054053D02*
D03*
X987126D02*
D03*
X989094D02*
D03*
X991063D02*
D03*
X993031D02*
D03*
X995000D02*
D03*
X996929D02*
D03*
X998937D02*
D03*
X1000905D02*
D03*
X1002874D02*
D03*
X1004842D02*
D03*
M02*
